<?xml version="1.0" encoding="UTF-8" standalone="no"?>
<svg width="16px" height="16px" viewBox="0 0 16 16" version="1.1" xmlns="http://www.w3.org/2000/svg" xmlns:xlink="http://www.w3.org/1999/xlink">
    <!-- Generator: Sketch 3.8.3 (29802) - http://www.bohemiancoding.com/sketch -->
    <title>Fill 552</title>
    <desc>Created with Sketch.</desc>
    <defs></defs>
    <g id="-✴️-Elements" stroke="none" stroke-width="1" fill="none" fill-rule="evenodd">
        <g id="Flat-Icons---Solid" transform="translate(-30.000000, -349.000000)" fill="#5F6C73">
            <path d="M40,357.443487 C41.19,356.750487 42,355.475487 42,353.998487 L42,352.998487 C42,350.789487 40.209,348.998487 38,348.998487 C35.791,348.998487 34,350.789487 34,352.998487 L34,353.998487 C34,355.475487 34.81,356.750487 36,357.443487 L36,358.162487 C32.551,358.718487 30,360.669487 30,362.998487 L30,363.998487 C30,364.551487 30.448,364.998487 31,364.998487 L45,364.998487 C45.552,364.998487 46,364.551487 46,363.998487 L46,362.998487 C46,360.669487 43.449,358.718487 40,358.162487 L40,357.443487" id="Fill-552"></path>
        </g>
    </g>
</svg>