<svg width="31" height="33" viewBox="0 0 31 33" xmlns="http://www.w3.org/2000/svg" xmlns:xlink="http://www.w3.org/1999/xlink"><title>organization</title><defs><rect id="a" x="3" y="8" width="5" height="5" rx="1"/><mask id="i" x="0" y="0" width="5" height="5" fill="#fff"><use xlink:href="#a"/></mask><rect id="b" x="10" y="8" width="5" height="5" rx="1"/><mask id="j" x="0" y="0" width="5" height="5" fill="#fff"><use xlink:href="#b"/></mask><rect id="c" x="10" y="22" width="5" height="5" rx="1"/><mask id="k" x="0" y="0" width="5" height="5" fill="#fff"><use xlink:href="#c"/></mask><rect id="d" x="21" y="22" width="5" height="5" rx="1"/><mask id="l" x="0" y="0" width="5" height="5" fill="#fff"><use xlink:href="#d"/></mask><rect id="e" x="21" y="15" width="5" height="5" rx="1"/><mask id="m" x="0" y="0" width="5" height="5" fill="#fff"><use xlink:href="#e"/></mask><rect id="f" x="10" y="15" width="5" height="5" rx="1"/><mask id="n" x="0" y="0" width="5" height="5" fill="#fff"><use xlink:href="#f"/></mask><rect id="g" x="3" y="22" width="5" height="5" rx="1"/><mask id="o" x="0" y="0" width="5" height="5" fill="#fff"><use xlink:href="#g"/></mask><rect id="h" x="3" y="15" width="5" height="5" rx="1"/><mask id="p" x="0" y="0" width="5" height="5" fill="#fff"><use xlink:href="#h"/></mask></defs><g transform="translate(1 1)" fill="none" fill-rule="evenodd"><path d="M18 31h9.008c1.1 0 1.992-.89 1.992-1.997V13.997C29 12.894 28.1 12 27.008 12H18" stroke="#A1AAAF" fill="#FFF"/><path d="M6 0C4.895 0 4 .888 4 2v2H2C.895 4 0 4.9 0 6.01v23c0 1.11.894 2.01 1.998 2.01h16.03V6.01c0-1.11-.895-2.01-2.003-2.01H14V2c0-1.105-.887-2-2-2H6z" stroke="#A1AAAF" fill="#FFF"/><use stroke="#A1AAAF" mask="url(#i)" stroke-width="2" xlink:href="#a"/><rect fill="#FBE9BF" style="mix-blend-mode:multiply" x="5" y="10" width="4" height="4" rx="1"/><rect fill="#FBE9BF" style="mix-blend-mode:multiply" x="12" y="10" width="4" height="4" rx="1"/><rect fill="#FBE9BF" style="mix-blend-mode:multiply" x="23" y="17" width="4" height="4" rx="1"/><rect fill="#FBE9BF" style="mix-blend-mode:multiply" x="23" y="24" width="4" height="4" rx="1"/><rect fill="#FBE9BF" style="mix-blend-mode:multiply" x="12" y="17" width="4" height="4" rx="1"/><rect fill="#FBE9BF" style="mix-blend-mode:multiply" x="12" y="24" width="4" height="4" rx="1"/><rect fill="#FBE9BF" style="mix-blend-mode:multiply" x="5" y="17" width="4" height="4" rx="1"/><rect fill="#FBE9BF" style="mix-blend-mode:multiply" x="5" y="24" width="4" height="4" rx="1"/><use stroke="#A1AAAF" mask="url(#j)" stroke-width="2" xlink:href="#b"/><use stroke="#A1AAAF" mask="url(#k)" stroke-width="2" xlink:href="#c"/><use stroke="#A1AAAF" mask="url(#l)" stroke-width="2" xlink:href="#d"/><use stroke="#A1AAAF" mask="url(#m)" stroke-width="2" xlink:href="#e"/><use stroke="#A1AAAF" mask="url(#n)" stroke-width="2" xlink:href="#f"/><use stroke="#A1AAAF" mask="url(#o)" stroke-width="2" xlink:href="#g"/><use stroke="#A1AAAF" mask="url(#p)" stroke-width="2" xlink:href="#h"/></g></svg>