<?xml version="1.0" encoding="UTF-8" standalone="no"?>
<svg xmlns="http://www.w3.org/2000/svg" height="33px" width="32px" version="1.1" xmlns:xlink="http://www.w3.org/1999/xlink" viewBox="0 0 32 33">
 <g id="👌-Design-Elements" fill-rule="evenodd" fill="none">
  <g id="Header---Dropdowns" transform="translate(-277 -86)">
   <g id="organization-icon" transform="translate(277.5 86.5)">
    <g id="line" fill="#fff">
     <g id="Group-10">
      <path id="Combined-Shape" stroke="#A1AAAF" d="m3 1.499c0-0.55175 0.4499-0.999 1.0068-0.999h11.986c0.556 0 1.007 0.44266 1.007 0.999v2.001h-14v-2.001zm-2.5 2.9975c0-0.5503 0.45093-0.9965 0.9948-0.9965h17.01c0.55 0 0.995 0.4398 0.995 0.9965v27.004h-18.005c-0.54963 0-0.995-0.44-0.995-0.997v-26.006z"/>
      <rect id="Rectangle-2" height="1" width="12" stroke="#fff" y="3" x="4"/>
      <rect id="Rectangle-12-Copy" rx="1" height="20" width="11" stroke="#A1AAAF" y="11.5" x="19.5"/>
     </g>
     <g id="Group-12" stroke="#A1AAAF" transform="translate(3.3359 6.3063)">
      <rect id="Rectangle-14" rx="1" height="5" width="5" y=".19374" x=".16406"/>
      <rect id="Rectangle-14-Copy" rx="1" height="5" width="5" y=".19374" x="8.1641"/>
      <rect id="Rectangle-14-Copy-3" rx="1" height="5" width="5" y="8.1937" x=".16406"/>
      <rect id="Rectangle-14-Copy-2" rx="1" height="5" width="5" y="8.1937" x="8.1641"/>
      <rect id="Rectangle-14-Copy-5" rx="1" height="5" width="5" y="16.194" x=".16406"/>
      <rect id="Rectangle-14-Copy-4" rx="1" height="5" width="5" y="16.194" x="8.1641"/>
     </g>
     <g id="Group-11" stroke="#A1AAAF" transform="translate(22.445 13.553)">
      <rect id="Rectangle-14-Copy-7" rx="1" height="5" width="5" y=".94709" x=".054688"/>
      <rect id="Rectangle-14-Copy-6" rx="1" height="5" width="5" y="8.9471" x=".054688"/>
     </g>
    </g>
    <g id="color" fill-opacity=".27" style="mix-blend-mode:multiply" fill="#E0AF2A" transform="translate(4.4062 7.5537)">
     <rect id="Rectangle-14" rx="1" height="5" width="5" y=".94635" x=".09375"/>
     <rect id="Rectangle-14-Copy" rx="1" height="5" width="5" y=".94635" x="8.0938"/>
     <path id="Rectangle-14-Copy-3" d="m0.09375 9.9462c0-0.5522 0.44372-0.9999 0.99985-0.9999h3.0003c0.5522 0 0.9999 0.4438 0.9999 0.9999v3.0008c0 0.552-0.4438 0.999-0.9999 0.999h-3.0003c-0.55222 0-0.99985-0.443-0.99985-0.999v-3.0008z"/>
     <path id="Rectangle-14-Copy-2" d="m8.0938 9.9462c0-0.5522 0.4437-0.9999 0.9998-0.9999h3.0004c0.552 0 1 0.4438 1 0.9999v3.0008c0 0.552-0.444 0.999-1 0.999h-3.0004c-0.5522 0-0.9998-0.443-0.9998-0.999v-3.0008z"/>
     <rect id="Rectangle-14-Copy-5" rx="1" height="5" width="5" y="16.946" x=".09375"/>
     <rect id="Rectangle-14-Copy-4" rx="1" height="5" width="5" y="16.946" x="8.0938"/>
     <path id="Rectangle-14-Copy-7" d="m19.094 9.9462c0-0.5522 0.443-0.9999 1-0.9999h3c0.552 0 1 0.4438 1 0.9999v3.0008c0 0.552-0.444 0.999-1 0.999h-3c-0.553 0-1-0.443-1-0.999v-3.0008z"/>
     <rect id="Rectangle-14-Copy-6" rx="1" height="5" width="5" y="16.946" x="19.094"/>
    </g>
   </g>
  </g>
 </g>
</svg>
