<?xml version="1.0" encoding="UTF-8" standalone="no"?>
<svg xmlns="http://www.w3.org/2000/svg" height="33px" width="30px" version="1.1" xmlns:xlink="http://www.w3.org/1999/xlink" viewBox="0 0 30 33">
 <defs>
  <circle id="path-1" cy="7.5" cx="7.5" r="7.5"/>
 </defs>
 <g id="👌-Design-Elements" fill-rule="evenodd" fill="none">
  <g id="Header---Dropdowns" transform="translate(-194 -85)">
   <g id="user-icon" transform="translate(195 86)">
    <path id="Path-7-Copy" stroke="#A1AAAF" fill="#fff" d="m0.15691 30.016c-0.086658 0.543 0.2892 0.984 0.83606 0.984h25.014c0.548 0 0.946-0.45 0.872-0.984 0 0-0.865-13.016-12.879-13.016-12.528 0-13.843 13.016-13.843 13.016z"/>
    <path id="Path-7" style="mix-blend-mode:multiply" fill-opacity=".27" fill="#98A162" d="m2.1569 31.016c-0.0866 0.543 0.2892 0.984 0.8361 0.984h25.014c0.548 0 0.946-0.45 0.872-0.984 0 0-0.865-13.016-12.879-13.016-12.528 0-13.843 13.016-13.843 13.016z"/>
    <g id="Oval-2-Copy" transform="translate(6)">
     <mask id="mask-2" fill="white">
      <use xlink:href="#path-1"/>
     </mask>
     <use id="Mask" stroke="#A1AAAF" xlink:href="#path-1" fill="#FFFFFF"/>
     <circle r="7.5" cy="-.5" cx="10.5" mask="url(#mask-2)" fill="#A1AAAF"/>
     <circle id="Oval-2-Copy-2" cx="-3.5" mask="url(#mask-2)" cy="1.5" r="7.5" fill="#A1AAAF"/>
    </g>
   </g>
  </g>
 </g>
</svg>
