<?xml version="1.0" encoding="UTF-8" standalone="no"?>
<svg width="75px" height="75px" viewBox="0 0 75 75" version="1.1" xmlns="http://www.w3.org/2000/svg" xmlns:xlink="http://www.w3.org/1999/xlink" xmlns:sketch="http://www.bohemiancoding.com/sketch/ns">
    <!-- Generator: Sketch 3.3.2 (12043) - http://www.bohemiancoding.com/sketch -->
    <title>Rectangle 542 Copy + icon-user copy</title>
    <desc>Created with Sketch.</desc>
    <defs></defs>
    <g id="-✴️-View-Patterns" stroke="none" stroke-width="1" fill="none" fill-rule="evenodd" sketch:type="MSPage">
        <g id="Page-Header--agent:dropdown-Copy" sketch:type="MSArtboardGroup" transform="translate(-815.000000, -78.000000)">
            <g id="Rectangle-542-Copy-+-icon-user-copy" sketch:type="MSLayerGroup" transform="translate(815.000000, 78.000000)">
                <rect id="Rectangle-542-Copy" fill="#EBEEF0" sketch:type="MSShapeGroup" x="0" y="0" width="75" height="75" rx="2"></rect>
                <path d="M52.27,45.732 C47.118,43.74 41.4,41.268 40.92,39.728 L40.92,38.112 C41.988,37.018 42.83,35.494 43.33,33.708 C43.992,33.242 44.43,32.456 44.43,31.566 C44.43,30.934 44.2,30.36 43.834,29.91 L43.834,26.292 C43.834,22.556 41.754,20 37,20 C32.37,20 30.164,22.556 30.164,26.292 L30.164,29.912 C29.8,30.36 29.57,30.934 29.57,31.566 C29.57,32.456 30.006,33.24 30.67,33.708 C31.168,35.494 32.012,37.018 33.08,38.112 L33.08,39.728 C32.602,41.266 26.88,43.74 21.73,45.732 C21.29,45.902 21,46.33 21,46.808 L21,50.85 C21,51.484 21.508,52 22.134,52 L51.866,52 C52.492,52 53,51.484 53,50.85 L53,46.808 C53,46.33 52.71,45.902 52.27,45.732" id="icon-user-copy" fill="#BEC4C7" sketch:type="MSShapeGroup"></path>
            </g>
        </g>
    </g>
</svg>