<svg width="29" height="32" viewBox="0 0 29 32" xmlns="http://www.w3.org/2000/svg" xmlns:xlink="http://www.w3.org/1999/xlink"><title>user</title><defs><path d="M8 9c0-3.866 3.134-7 7-7s7 3.134 7 7-3.134 7-7 7-7-3.134-7-7z" id="a"/><path d="M0 7c0-3.866 3.134-7 7-7s7 3.134 7 7-3.134 7-7 7-7-3.134-7-7z" id="b"/></defs><g transform="translate(1 1)" fill="none" fill-rule="evenodd"><use fill="#FFF" xlink:href="#a"/><g transform="translate(6)"><mask id="c" fill="#fff"><use xlink:href="#b"/></mask><use stroke="#A1AAAF" xlink:href="#b"/><circle fill="#A1AAAF" mask="url(#c)" cx="-1" cy="2" r="6"/><circle fill="#A1AAAF" mask="url(#c)" cx="11" cy="1" r="7"/></g><path d="M.344 27.032C.154 28.12.9 29 1.996 29h21.722c1.102 0 1.878-.882 1.652-1.968 0 0-.513-10.032-12.513-10.032S.344 27.032.344 27.032z" stroke="#A1AAAF" fill="#FFF"/><path d="M2.344 29.032C2.154 30.12 2.9 31 3.996 31h21.722c1.102 0 1.878-.882 1.652-1.968 0 0-.513-10.032-12.513-10.032S2.344 29.032 2.344 29.032z" fill="#D6D9C0" style="mix-blend-mode:multiply"/></g></svg>