<svg width="40" height="50" viewBox="0 0 40 50" xmlns="http://www.w3.org/2000/svg" xmlns:xlink="http://www.w3.org/1999/xlink"><title>icon--file_Xd</title><defs><path d="M0 45.5V.5C0 .2.2 0 .5 0H24l12 12v33.5c0 .3-.2.5-.5.5H.5c-.3 0-.5-.2-.5-.5z" id="b"/><filter x="-9.7%" y="-5.4%" width="119.4%" height="115.2%" filterUnits="objectBoundingBox" id="a"><feOffset dy="1" in="SourceAlpha" result="shadowOffsetOuter1"/><feGaussianBlur stdDeviation="1" in="shadowOffsetOuter1" result="shadowBlurOuter1"/><feColorMatrix values="0 0 0 0 0.176470588 0 0 0 0 0.192156863 0 0 0 0 0.219607843 0 0 0 0.09 0" in="shadowBlurOuter1"/></filter></defs><g fill="none" fill-rule="evenodd"><g fill-rule="nonzero" transform="translate(2 1)"><use fill="#000" filter="url(#a)" xlink:href="#b"/><use fill="#FFF" fill-rule="evenodd" xlink:href="#b"/></g><path d="M3 22.5V46h34V14H25.5c-.3 0-.5-.2-.5-.5V2H3v20.5zm-1 0v-21c0-.3.2-.5.5-.5H26l12 12v33.5c0 .3-.2.5-.5.5h-35c-.3 0-.5-.2-.5-.5v-24zM26 2.7V13h10.3L26 2.7z" fill="#F740BC" fill-rule="nonzero"/><path d="M20.3 27.7H18L16.4 31l-2-3.3H12l2.8 4.6L12 37h2l2-3.2 2 3.2h2.3l-3-4.7 3-4.6zm3 2c1 0 1.8.4 2 1h.2v-3.6h2v10h-2v-1.2c-.3.8-1 1.3-2.2 1.3-1.6 0-2.7-1-2.7-3.2v-1c0-2 1-3.2 2.7-3.2zM24 31c-.8 0-1.4.7-1.4 1.8v.7c0 1.2.6 1.8 1.4 1.8 1 0 1.5-.6 1.5-1.8V33c0-1.2-.6-1.8-1.5-1.8z" fill="#F740BC"/></g></svg>