<svg width="50" height="50" viewBox="0 0 50 50" xmlns="http://www.w3.org/2000/svg" xmlns:xlink="http://www.w3.org/1999/xlink"><title>icon--file_Image</title><defs><rect id="b" width="46" height="46" rx="6"/><filter x="-7.6%" y="-5.4%" width="115.2%" height="115.2%" filterUnits="objectBoundingBox" id="a"><feOffset dy="1" in="SourceAlpha" result="shadowOffsetOuter1"/><feGaussianBlur stdDeviation="1" in="shadowOffsetOuter1" result="shadowBlurOuter1"/><feColorMatrix values="0 0 0 0 0.176470588 0 0 0 0 0.192156863 0 0 0 0 0.219607843 0 0 0 0.09 0" in="shadowBlurOuter1"/></filter><rect id="c" width="46" height="46" rx="6"/></defs><g transform="translate(2 1)" fill="none" fill-rule="evenodd"><use fill="#000" filter="url(#a)" xlink:href="#b"/><use fill="#FFF" xlink:href="#b"/><use fill="#FFF" xlink:href="#c"/><rect stroke="#BEC4C7" x=".5" y=".5" width="45" height="45" rx="6"/><path d="M34 30.6l-6-11c-.2-.3-.5-.6-1-.6-.2 0-.6 0-.8.4l-5.4 7.2-3.2-2.4c-.2-.2-.5-.2-.8-.2-.3 0-.6.3-.7.6l-4 6v1c.3.2.7.4 1 .4h20c.3 0 .7-.2.8-.5.2-.2.3-.6 0-1z" fill="#ADB581" fill-rule="nonzero"/><circle fill="#BEC4C7" fill-rule="nonzero" cx="19" cy="17" r="3"/></g></svg>