<svg width="40" height="50" viewBox="0 0 40 50" xmlns="http://www.w3.org/2000/svg" xmlns:xlink="http://www.w3.org/1999/xlink"><title>icon--file_AI</title><defs><path d="M0 45.5V.5C0 .2.2 0 .5 0H24l12 12v33.5c0 .3-.2.5-.5.5H.5c-.3 0-.5-.2-.5-.5z" id="b"/><filter x="-9.7%" y="-5.4%" width="119.4%" height="115.2%" filterUnits="objectBoundingBox" id="a"><feOffset dy="1" in="SourceAlpha" result="shadowOffsetOuter1"/><feGaussianBlur stdDeviation="1" in="shadowOffsetOuter1" result="shadowBlurOuter1"/><feColorMatrix values="0 0 0 0 0.176470588 0 0 0 0 0.192156863 0 0 0 0 0.219607843 0 0 0 0.09 0" in="shadowBlurOuter1"/></filter></defs><g fill="none" fill-rule="evenodd"><g fill-rule="nonzero" transform="translate(2 1)"><use fill="#000" filter="url(#a)" xlink:href="#b"/><use fill="#FFF" fill-rule="evenodd" xlink:href="#b"/></g><path d="M3 22.5V46h34V14H25.5c-.3 0-.5-.2-.5-.5V2H3v20.5zm-1 0v-21c0-.3.2-.5.5-.5H26l12 12v33.5c0 .3-.2.5-.5.5h-35c-.3 0-.5-.2-.5-.5v-24zM26 2.7V13h10.3L26 2.7z" fill="#FF9B29" fill-rule="nonzero"/><path d="M16 37h-2l3-9.3h2.4l3 9.3h-2l-.7-2.3h-3l-.8 2.3zm2.2-7.4L17 33.2h2.3l-1-3.6zm5.4 7.4h2v-7.3h-2V37zm-.2-9.4c0 .6.4 1 1 1 1 0 1.3-.4 1.3-1s-.5-1-1.2-1-1 .4-1 1z" fill="#FF9B29"/></g></svg>