<svg width="50" height="50" viewBox="0 0 50 50" xmlns="http://www.w3.org/2000/svg" xmlns:xlink="http://www.w3.org/1999/xlink"><title>icon--file_Zip</title><defs><rect id="b" width="46" height="46" rx="6"/><filter x="-7.6%" y="-5.4%" width="115.2%" height="115.2%" filterUnits="objectBoundingBox" id="a"><feOffset dy="1" in="SourceAlpha" result="shadowOffsetOuter1"/><feGaussianBlur stdDeviation="1" in="shadowOffsetOuter1" result="shadowBlurOuter1"/><feColorMatrix values="0 0 0 0 0.176470588 0 0 0 0 0.192156863 0 0 0 0 0.219607843 0 0 0 0.09 0" in="shadowBlurOuter1"/></filter><rect id="c" width="46" height="46" rx="6"/></defs><g transform="translate(2 1)" fill="none" fill-rule="evenodd"><use fill="#000" filter="url(#a)" xlink:href="#b"/><use fill="#FFF" xlink:href="#b"/><use fill="#FFF" xlink:href="#c"/><rect stroke="#BEC4C7" x=".5" y=".5" width="45" height="45" rx="6"/><rect stroke="#D1D5D7" x="6.5" y="6.5" width="33" height="33" rx="3"/><path fill="#838D94" d="M19 1h2v24h-2zM25 1h2v24h-2zM19 25h8v2h-8zM21 1h2v2h-2zM23 3h2v2h-2zM21 5h2v2h-2zM23 7h2v2h-2zM21 9h2v2h-2zM23 11h2v2h-2zM21 13h2v2h-2zM23 15h2v2h-2zM21 17h2v2h-2zM23 19h2v2h-2zM21 21h2v2h-2z"/><path fill="#FFF" d="M23 5h2v2h-2z"/><path fill="#838D94" d="M23 23h2v2h-2z"/></g></svg>