<svg width="40" height="50" viewBox="0 0 40 50" xmlns="http://www.w3.org/2000/svg" xmlns:xlink="http://www.w3.org/1999/xlink"><title>icon--file_PDF</title><defs><path d="M0 45.5V.5C0 .2.2 0 .5 0H24l12 12v33.5c0 .3-.2.5-.5.5H.5c-.3 0-.5-.2-.5-.5z" id="b"/><filter x="-9.7%" y="-5.4%" width="119.4%" height="115.2%" filterUnits="objectBoundingBox" id="a"><feOffset dy="1" in="SourceAlpha" result="shadowOffsetOuter1"/><feGaussianBlur stdDeviation="1" in="shadowOffsetOuter1" result="shadowBlurOuter1"/><feColorMatrix values="0 0 0 0 0.176470588 0 0 0 0 0.192156863 0 0 0 0 0.219607843 0 0 0 0.09 0" in="shadowBlurOuter1"/></filter></defs><g fill="none" fill-rule="evenodd"><g fill-rule="nonzero" transform="translate(2 1)"><use fill="#000" filter="url(#a)" xlink:href="#b"/><use fill="#FFF" fill-rule="evenodd" xlink:href="#b"/></g><path d="M3 22.5V46h34V14H25.5c-.3 0-.5-.2-.5-.5V2H3v20.5zm-1 0v-21c0-.3.2-.5.5-.5H26l12 12v33.5c0 .3-.2.5-.5.5h-35c-.3 0-.5-.2-.5-.5v-24zM26 2.7V13h10.3L26 2.7z" fill="#F94646" fill-rule="nonzero"/><path d="M13.6 29c1.8 0 2.8 1.2 2.8 2.7 0 1.5-1 2.7-2.8 2.7H12V37h-1.6v-8h3.2zm1 2.7c0-.8-.5-1.3-1.3-1.3H12V33h1.3c.8 0 1.3-.4 1.3-1.3zm2.8-2.7h3c2.5 0 3.6 1.5 3.6 4s-1 4-3.6 4h-3v-8zm1.7 1.4v5.2h1.2c1.4 0 2-1 2-2.6 0-1.7-.6-2.6-2-2.6h-1zm8 6.6v-3h3v-1.5h-3v-2h3.4V29h-5v8H27z" fill="#F94646"/></g></svg>