<svg width="40" height="50" viewBox="0 0 40 50" xmlns="http://www.w3.org/2000/svg" xmlns:xlink="http://www.w3.org/1999/xlink"><title>icon--file_CSS</title><defs><path d="M0 45.5V.5C0 .2.2 0 .5 0H24l12 12v33.5c0 .3-.2.5-.5.5H.5c-.3 0-.5-.2-.5-.5z" id="b"/><filter x="-9.7%" y="-5.4%" width="119.4%" height="115.2%" filterUnits="objectBoundingBox" id="a"><feOffset dy="1" in="SourceAlpha" result="shadowOffsetOuter1"/><feGaussianBlur stdDeviation="1" in="shadowOffsetOuter1" result="shadowBlurOuter1"/><feColorMatrix values="0 0 0 0 0.176470588 0 0 0 0 0.192156863 0 0 0 0 0.219607843 0 0 0 0.09 0" in="shadowBlurOuter1"/></filter></defs><g fill="none" fill-rule="evenodd"><g fill-rule="nonzero" transform="translate(2 1)"><use fill="#000" filter="url(#a)" xlink:href="#b"/><use fill="#FFF" fill-rule="evenodd" xlink:href="#b"/></g><path d="M3 22.5V46h34V14H25.5c-.3 0-.5-.2-.5-.5V2H3v20.5zm-1 0v-21c0-.3.2-.5.5-.5H26l12 12v33.5c0 .3-.2.5-.5.5h-35c-.3 0-.5-.2-.5-.5v-24zM26 2.7V13h10.3L26 2.7z" fill="#3C88BF" fill-rule="nonzero"/><path d="M15 33c1-.2 1.4-.6 1.4-1.6V30c0-1 .3-1.4 1.3-1.4h.3V27h-.7c-2 0-2.8.8-2.8 2.6v1.2c0 1-.2 1.3-1 1.3v2c.8 0 1 .3 1 1.3v1.3c0 2 1 2.5 2.8 2.5h.7v-1.3h-.3c-1 0-1.3-.3-1.3-1.3v-1.7c0-1-.5-1.5-1.4-1.6zm9.4 0c-1 .2-1.4.7-1.4 1.7v1.7c0 1-.3 1.3-1.4 1.3h-.3V39h.7c2 0 2.8-.5 2.8-2.4v-1.3c0-1 .2-1.4 1-1.4v-2c-.8 0-1-.3-1-1.2v-1.2c0-1.8-1-2.5-2.8-2.5h-.7v1.6h.3c1 0 1.4.3 1.4 1.3v1.4c0 1 .5 1.4 1.4 1.5z" fill="#3C88BF"/></g></svg>