<svg width="50" height="50" viewBox="0 0 50 50" xmlns="http://www.w3.org/2000/svg" xmlns:xlink="http://www.w3.org/1999/xlink"><title>icon--file_Audio</title><defs><rect id="b" width="46" height="46" rx="6"/><filter x="-7.6%" y="-5.4%" width="115.2%" height="115.2%" filterUnits="objectBoundingBox" id="a"><feOffset dy="1" in="SourceAlpha" result="shadowOffsetOuter1"/><feGaussianBlur stdDeviation="1" in="shadowOffsetOuter1" result="shadowBlurOuter1"/><feColorMatrix values="0 0 0 0 0.176470588 0 0 0 0 0.192156863 0 0 0 0 0.219607843 0 0 0 0.09 0" in="shadowBlurOuter1"/></filter><rect id="c" width="46" height="46" rx="6"/></defs><g fill="none" fill-rule="evenodd"><g transform="translate(2 1)"><use fill="#000" filter="url(#a)" xlink:href="#b"/><use fill="#FFF" xlink:href="#b"/></g><g transform="translate(2 1)"><use fill="#FFF" xlink:href="#c"/><rect stroke="#BEC4C7" x=".5" y=".5" width="45" height="45" rx="6"/></g><path d="M23 16l-4 4h-3c-.6 0-1 .5-1 1v6c0 .5.4 1 1 1h3l4 4s1 .5 1-1.2V17c0-1.5-1-1-1-1M27.5 20c-.3 0-.5.2-.5.5v1c0 .2.2.5.5.5 1 .3 1.5 1 1.5 2s-.6 1.7-1.5 2c-.3 0-.5.2-.5.5v1c0 .2.2.5.5.4 2-.3 3.5-2 3.5-4s-1.5-3.8-3.5-4" fill="#F56F6D"/><path d="M27 16.5v1c0 .3.2.5.5.5 3 .3 5.5 2.8 5.5 6 0 3-2.4 5.7-5.5 6-.3 0-.5.2-.5.5v1c0 .3.2.5.5.5 4.2-.3 7.5-3.8 7.5-8 0-4.3-3.3-7.7-7.5-8-.3 0-.5.2-.5.5" fill="#F56F6D"/></g></svg>