<?xml version="1.0" encoding="UTF-8" standalone="no"?>
<svg width="16px" height="16px" viewBox="0 0 16 16" version="1.1" xmlns="http://www.w3.org/2000/svg" xmlns:xlink="http://www.w3.org/1999/xlink" xmlns:sketch="http://www.bohemiancoding.com/sketch/ns">
    <!-- Generator: Sketch 3.3.3 (12072) - http://www.bohemiancoding.com/sketch -->
    <title>kayako-pinned</title>
    <desc>Created with Sketch.</desc>
    <defs></defs>
    <g id="Page-1" stroke="none" stroke-width="1" fill="none" fill-rule="evenodd" sketch:type="MSPage">
        <g id="kayako-pinned" sketch:type="MSArtboardGroup" fill="#40364D">
            <path d="M8.0607202,8.44986202 C7.10323257,9.24796494 6.09401912,9.98726963 5.03733434,10.6591227 C6.40683722,12.2972639 7.59742696,14.0876149 8.57932201,16 L13.6681583,16 C13.9124564,16 14.0680818,15.7372939 13.9453729,15.5280609 C12.382402,12.8606177 10.3895021,10.469859 8.0607202,8.44986202 Z M8.0607202,7.57410104 C10.3951001,5.54944461 12.3918067,3.15225139 13.9567929,0.477042338 C14.0806214,0.265368668 13.9232047,0 13.6762194,0 L8.59141376,0 C7.60705558,1.92126028 6.41265918,3.71982083 5.03711042,5.3650622 C6.09401912,6.03691531 7.10323257,6.77621999 8.0607202,7.57410104 Z M4.01938795,5.52215335 C2.74169282,4.75755433 1.39816481,4.09102633 0,3.53100082 L0,5.9117749 C0.701769462,6.43119635 1.37801189,6.98212478 2.02895121,7.56078823 C2.72601833,6.91422945 3.39061685,6.23416677 4.01938795,5.52215335 Z M2.02895121,8.46339671 C1.37801189,9.04183828 0.701769462,9.59276671 0,10.1121882 L0,12.4931841 C1.39816481,11.9331586 2.74169282,11.2664087 4.01938795,10.5020316 C3.39061685,9.78979629 2.72601833,9.10973361 2.02895121,8.46339671 Z M4.51895645,5.9665793 C3.90630768,6.65995479 3.26096639,7.32426398 2.58494789,7.95684431 L3.53459827,8.99768413 C3.83868344,9.30920387 4.13537921,9.62782377 4.42535733,9.9528782 C4.48290512,10.0172234 4.54134859,10.0811249 4.59844853,10.1461358 C5.59758552,9.51533053 6.55484923,8.82483948 7.46419377,8.07865652 C7.4908404,8.05669038 7.5170392,8.0340586 7.54368584,8.01209247 C7.45523691,7.9390939 7.36634014,7.86676097 7.27721945,7.79487179 C6.42363132,7.10659955 5.52973736,6.46580965 4.59844853,5.87804912 C4.57224973,5.90778106 4.54537917,5.93684736 4.51895645,5.9665793 Z M4.46185651,5.00872266 C5.75746535,3.46909625 6.89028339,1.79079475 7.83523142,0 L0.780365851,0 C0.349317282,0 0,0.346133045 0,0.773030467 L0,2.81277475 C1.44563614,3.37635035 2.83417233,4.05286295 4.15642781,4.82922162 C4.25831202,4.88890738 4.36086799,4.94770562 4.46185651,5.00872266 Z M3.99744366,11.288153 C2.72310735,12.0254607 1.38786443,12.6702445 0,13.2111883 L0,15.2902054 C0,15.6822676 0.320655351,16 0.716324349,16 L7.82224398,16 C6.879983,14.2183023 5.7516434,12.5482104 4.46185651,11.0152404 C4.30824648,11.1079863 4.15306899,11.1980696 3.99744366,11.288153 Z M0,6.74959438 L0,9.27436868 C0.525319451,8.87121244 1.03563617,8.44986202 1.53072624,8.01209247 C1.03563617,7.57410104 0.525319451,7.1529725 0,6.74959438 Z" id="kayako-pinned-copy" sketch:type="MSShapeGroup"></path>
        </g>
    </g>
</svg>