<svg width="13" height="13" viewBox="0 0 13 13" xmlns="http://www.w3.org/2000/svg"><title>Line</title><path d="M8.65 10.008c-.89.625-1.978.992-3.15.992C2.462 11 0 8.538 0 5.5S2.462 0 5.5 0 11 2.462 11 5.5c0 1.163-.36 2.242-.977 3.13.074.06.137.116.184.163l2.5 2.5c.39.39.39 1.024 0 1.414-.39.39-1.024.39-1.414 0l-2.5-2.5c-.05-.068-.097-.134-.142-.2zm-.48-2.244c.517-.61.83-1.4.83-2.264C9 3.567 7.433 2 5.5 2S2 3.567 2 5.5 3.567 9 5.5 9c.882 0 1.688-.326 2.303-.864.028-.107.085-.2.17-.283.05-.05.116-.078.196-.09z" fill="#A1AAAF" fill-rule="evenodd"/></svg>