<svg width="47" height="44" viewBox="0 0 47 44" xmlns="http://www.w3.org/2000/svg"><title>illu-bad</title><g fill="none" fill-rule="evenodd"><path d="M16.78 25.233c0 .905-.52 1.64-1.163 1.64-.642 0-1.163-.735-1.163-1.64 0-.905.52-1.64 1.163-1.64.642 0 1.163.735 1.163 1.64M35.047 25.233c0 .905-.52 1.64-1.163 1.64-.642 0-1.163-.735-1.163-1.64 0-.905.522-1.64 1.164-1.64.642 0 1.163.735 1.163 1.64" fill="#A1AAAF"/><path d="M14.81 36.675s2.345-6.21 9.89-6.21c7.544 0 9.99 6.21 9.99 6.21" stroke="#A1AAAF" stroke-linecap="round" stroke-linejoin="round"/><path d="M39.638 39.38c-.01.008-.023.013-.032.022-.195.143-.396.282-.6.412-4.06 2.63-9.984 3.398-15.623 3.218-5.684.18-11.654-.597-15.717-3.283-.182-.117-.364-.242-.537-.37-.03-.02-.056-.043-.083-.066-9.24-6.912-7.324-27.09 4.672-34.696C15.85 2 19.875 1.178 23.382 1.234c3.507-.056 7.533.767 11.664 3.384 12.033 7.63 13.928 27.904 4.59 34.76z" stroke="#A1AAAF"/></g></svg>