<?xml version="1.0" encoding="UTF-8"?>
<svg width="93px" height="95px" viewBox="0 0 93 95" version="1.1" xmlns="http://www.w3.org/2000/svg" xmlns:xlink="http://www.w3.org/1999/xlink">
    <!-- Generator: Sketch 41.2 (35397) - http://www.bohemiancoding.com/sketch -->
    <title>Logo</title>
    <desc>Created with Sketch.</desc>
    <defs>
        <polygon id="path-2" points="57.0604214 63.9744 0.0256 63.9744 0.0256 0 28.5430107 0 57.0604214 0 57.0604214 63.9744"></polygon>
        <rect id="path-4" x="57" y="32" width="7" height="7" rx="3.5"></rect>
        <mask id="mask-5" maskContentUnits="userSpaceOnUse" maskUnits="objectBoundingBox" x="0" y="0" width="7" height="7" fill="white">
            <use xlink:href="#path-4"></use>
        </mask>
        <rect id="path-6" x="53" y="0" width="7" height="7" rx="3.5"></rect>
        <mask id="mask-7" maskContentUnits="userSpaceOnUse" maskUnits="objectBoundingBox" x="0" y="0" width="7" height="7" fill="white">
            <use xlink:href="#path-6"></use>
        </mask>
        <rect id="path-8" x="69" y="26" width="11" height="11" rx="5.5"></rect>
        <mask id="mask-9" maskContentUnits="userSpaceOnUse" maskUnits="objectBoundingBox" x="0" y="0" width="11" height="11" fill="white">
            <use xlink:href="#path-8"></use>
        </mask>
    </defs>
    <g id="🚧-Onboarding" stroke="none" stroke-width="1" fill="none" fill-rule="evenodd">
        <g id="Welcome-modal" transform="translate(-554.000000, -130.000000)">
            <g id="Group-11" transform="translate(520.000000, 98.000000)">
                <g id="Group-12">
                    <g id="Rectangle-185-Copy">
                        <g id="Logo" transform="translate(36.000000, 34.000000)">
                            <rect id="Rectangle-2" fill="#EFF8FA" x="0" y="2" width="89" height="89" rx="44.5"></rect>
                            <g id="Group-4" transform="translate(0.000000, 13.000000)">
                                <g id="Group-Copy-7" transform="translate(5.000000, 4.000000)">
                                    <path d="M54.9012877,63.997433 C56.4115099,63.997433 57.3799443,62.3665994 56.6168001,61.0713429 C50.1456944,50.0922907 41.8644643,40.3037381 32.1970787,32.076773 C31.8391596,32.0377111 31.0813708,32.0377111 31.0813708,32.0377111 L18.4004807,38.1907856 L16.1135912,41.5136457 L15.1385608,45.7996632 L27.0095594,62.9381362 C27.0095594,62.9381362 32.4220054,63.7932459 32.5273282,63.997433 L54.9012877,63.997433 Z" id="Fill-8" fill="#F37036"></path>
                                    <path d="M1.9237802,57.0944303 L17.7876486,43.1523724 C17.7876486,43.1523724 17.9064812,42.4420369 18.1308443,42.3024591 C17.9038208,42.0304157 18.3587546,41.8294948 18.1308443,41.5592295 C15.401241,38.3400494 12.35682,34.9848477 9.3017572,32.0768285 C9.20864208,31.9879254 3.78508176,30.4901524 3.69196664,30.4012494 C3.51105726,30.5728323 3.99136991,32.3992409 3.99136991,32.3992409 L0,34.1303302 C0,34.1303302 0.185343432,39.1792944 0,39.3242064 L0,51.4612529 C0.125927116,51.4114672 1.02455417,62.5280075 1.9237802,57.0944303 Z" id="Fill-7" fill="#FA8176"></path>
                                    <path d="M0,51.4431323 L0,61.1658557 C0,62.731003 1.26813927,63.9998015 2.8324733,63.9998015 L32.4342137,63.9998015 C28.4613019,56.2281886 23.6672034,48.9490115 18.1308443,42.3024591 C12.4029341,45.8595314 6.34779083,48.9365897 0,51.4431323" id="Fill-9" fill="#F15713"></path>
                                    <path d="M55.048951,0 L32.2237762,0 C32.2044447,0.232863483 26.0572029,3.22914952e-18 25.958042,0 L13.8741259,16.1118881 C13.8741259,16.3028649 16.551312,21.5619959 16.5594406,22.3776224 C16.6803864,22.4994133 16.5488695,25.2368666 16.5594406,25.0629371 C16.5488695,25.2368666 26.9819265,28.8834747 30.8811189,32.2237762 C31.2239992,32.4306847 31.6305905,31.8723359 31.7762238,32.2237762 C41.7624539,23.7825207 50.1229316,13.7759455 56.3916084,2.68531469 C57.2600767,1.42626731 56.4335487,0.0241516031 55.048951,0 Z" id="Fill-10" fill="#85B8C1"></path>
                                    <path d="M8.47524965,32.0377111 C8.66502713,31.8581269 9.11286652,32.2573017 9.3017572,32.0768285 C12.244195,29.2586013 14.9693642,26.4145922 17.6058524,23.304763 C17.8275551,23.044277 17.8683483,22.0859019 18.0873906,21.8227489 C14.2909541,16.0804998 0.956300561,6.17683255 0,12.692404 L0,24.7521049 C0,32.4287875 4.16339546,35.7855834 8.47524965,32.0377111 Z" id="Fill-11" fill="#F39D90"></path>
                                    <path d="M0,12.5314685 C6.29074649,15.2624697 12.2925063,18.3555848 17.9020979,21.9300699 C23.4880967,15.2141538 28.2669495,7.857604 32.2237762,0 L3.13286713,0 C1.37180564,0 0,1.39400445 0,3.13286713 L0,12.5314685 Z" id="Fill-12" fill="#69AAB5"></path>
                                    <path d="M8.47524965,32.0377111 C11.8894708,35.2675595 15.1227825,38.6858824 18.1308443,42.3024591 C23.0482095,39.2433046 27.7270226,35.832983 32.1060938,32.0768285 C27.7137205,28.3091165 23.0207184,24.8899046 18.0873906,21.8227489 C15.0917441,25.421545 11.8735082,28.8238653 8.47524965,32.0377111" id="Fill-13" fill="#FFB1A2"></path>
                                    <path d="M0,39.3242064 C2.94066421,37.0287292 5.76781665,34.5981194 8.47524965,32.0377111 C5.76781665,29.4773028 2.94066421,27.046693 0,24.7521049 L0,39.3242064" id="Fill-14" fill="#F76F6D"></path>
                                </g>
                                <g id="outline-k-mark">
                                    <mask id="mask-3" fill="white">
                                        <use xlink:href="#path-2"></use>
                                    </mask>
                                    <g id="Clip-2"></g>
                                    <path d="M54.4512,61.27104 C54.41408,61.33376 54.3274667,61.44 54.1585067,61.44 L33.13024,61.44 C29.696,54.62144 25.52704,48.16 20.7227733,42.1973333 C24.7402667,39.62752 28.6114133,36.7726933 32.2624,33.6900267 C41.1490133,41.5048533 48.6148267,50.66752 54.4541867,60.9480533 C54.5297067,61.08032 54.4942933,61.1968 54.4512,61.27104 Z M2.56,59.71072 L2.56,51.5246933 C8.07381333,49.3239467 13.4365867,46.6487467 18.5326933,43.5588267 C23.0344533,49.1118933 26.9687467,55.1133867 30.2536533,61.44 L4.28928,61.44 C3.33568,61.44 2.56,60.66432 2.56,59.71072 Z M4.28928,2.56 L30.2536533,2.56 C26.96832,8.88704 23.0344533,14.8885333 18.5326933,20.4411733 C13.43744,17.3512533 8.07424,14.6760533 2.56,12.4753067 L2.56,4.28928 C2.56,3.33568 3.33568,2.56 4.28928,2.56 Z M2.56,39.6130133 C4.96170667,37.7557333 7.2896,35.79136 9.50656,33.7570133 C12.0823467,36.224 14.55104,38.8424533 16.8750933,41.56928 C12.29184,44.3259733 7.49098667,46.74048 2.56,48.7650133 L2.56,39.6130133 Z M7.63477333,32 C5.99765333,33.49632 4.30464,34.9576533 2.56,36.3601067 L2.56,27.6398933 C4.30421333,29.04192 5.99722667,30.5032533 7.63477333,32 Z M9.50656,30.2429867 C7.28917333,28.2082133 4.96170667,26.24384 2.56,24.3869867 L2.56,15.2349867 C7.49184,17.2599467 12.2922667,19.6740267 16.8750933,22.43072 C14.55104,25.15712 12.0827733,27.7751467 9.50656,30.2429867 Z M19.0792533,40.2082133 C16.6532267,37.3410133 14.0693333,34.5898667 11.3719467,32 C14.06976,29.40928 16.6532267,26.65856 19.0792533,23.79136 C22.9802667,26.27072 26.7438933,29.024 30.29632,32 C26.7438933,34.9755733 22.9806933,37.7288533 19.0792533,40.2082133 Z M54.4512,2.72896 C54.4942933,2.8032 54.5301333,2.91968 54.4546133,3.05237333 C48.6173867,13.32992 41.1515733,22.4930133 32.2624,30.3095467 C28.6114133,27.2273067 24.73984,24.37248 20.7227733,21.8026667 C25.5266133,15.8408533 29.6955733,9.37898667 33.13024,2.56 L54.1585067,2.56 C54.3274667,2.56 54.4145067,2.66624 54.4512,2.72896 Z M34.2250667,32 C43.2110933,24.04608 50.76096,14.7392 56.6805333,4.31658667 C57.19296,3.41461333 57.18656,2.33984 56.6638933,1.44128 C56.1386667,0.53888 55.2017067,0 54.1585067,0 L4.28928,0 C1.92426667,0 0,1.92426667 0,4.28928 L0,59.71072 C0,62.0757333 1.92426667,64 4.28928,64 L54.1585067,64 C55.2017067,64 56.13824,63.46112 56.6634667,62.5582933 C57.18656,61.66016 57.1925333,60.58496 56.6801067,59.6834133 C50.7579733,49.2578133 43.2085333,39.95136 34.2250667,32 L34.2250667,32 Z" id="Fill-1" fill-opacity="0.960000038" fill="#40364D" style="mix-blend-mode: multiply;" mask="url(#mask-3)"></path>
                                </g>
                            </g>
                            <use id="Rectangle" stroke="#FAD57A" mask="url(#mask-5)" stroke-width="4" xlink:href="#path-4"></use>
                            <use id="Rectangle" stroke="#FAD57A" mask="url(#mask-7)" stroke-width="4" xlink:href="#path-6"></use>
                            <use id="Rectangle" stroke="#FAD57A" mask="url(#mask-9)" stroke-width="4" xlink:href="#path-8"></use>
                            <rect id="Rectangle-3" fill="#FAD57A" transform="translate(69.739054, 6.622770) rotate(50.000000) translate(-69.739054, -6.622770) " x="68.2390543" y="0.622770101" width="3" height="12" rx="1.5"></rect>
                            <rect id="Rectangle-3" fill="#FAD57A" transform="translate(75.500000, 17.000000) rotate(90.000000) translate(-75.500000, -17.000000) " x="74" y="11" width="3" height="12" rx="1.5"></rect>
                        </g>
                    </g>
                </g>
            </g>
        </g>
    </g>
</svg>
