<?xml version="1.0" encoding="UTF-8"?>
<svg width="16px" height="20px" viewBox="0 0 16 20" version="1.1" xmlns="http://www.w3.org/2000/svg" xmlns:xlink="http://www.w3.org/1999/xlink">
    <!-- Generator: Sketch 46.2 (44496) - http://www.bohemiancoding.com/sketch -->
    <title>Fill 969</title>
    <desc>Created with Sketch.</desc>
    <defs></defs>
    <g id="ðŸ‘--Notification-center" stroke="none" stroke-width="1" fill="none" fill-rule="evenodd">
        <g id="Notification-center---Icon" transform="translate(-617.000000, -75.000000)" fill="#A1AAAF">
            <path d="M627,77.307 L627,77 C627,75.895 626.104,75 625,75 C623.897,75 623,75.895 623,77 L623,77.307 C620.11,78.205 618,80.994 618,84.305 L618,90 L617.5,90 C617.224,90 617,90.224 617,90.5 L617,91.5 C617,91.776 617.224,92 617.5,92 L622,92 C622,93.656 623.343,95 625,95 C626.657,95 628,93.656 628,92 L632.5,92 C632.776,92 633,91.776 633,91.5 L633,90.5 C633,90.224 632.776,90 632.5,90 L632,90 L632,84.305 C632,80.994 629.89,78.205 627,77.307 Z M624.5,93 C624.224,93 624,92.776 624,92.5 L624,92 L626,92 L626,92.5 C626,92.776 625.776,93 625.5,93 L624.5,93 Z M620,84.305 C620,81.379 622.243,79 625,79 C627.757,79 630,81.379 630,84.305 L630,90 L620,90 L620,84.305 Z" id="Fill-969"></path>
        </g>
    </g>
</svg>