<svg width="32" height="24" viewBox="0 0 32 24" xmlns="http://www.w3.org/2000/svg" xmlns:xlink="http://www.w3.org/1999/xlink"><title>icon--email--32</title><defs><path d="M0 2.005C0 .898.89 0 2.002 0h27.996C31.104 0 32 .897 32 2.005V20.01c0 2.204-1.79 3.99-4.004 3.99H4.004C1.794 24 0 22.216 0 20.01V2.005z" id="a"/><path d="M32 6V1.998C32 .894 31.11 0 29.998 0H2.002C.896 0 0 .898 0 1.998V6l14.21 7.106c.99.494 2.583.497 3.58 0L32 6z" id="b"/></defs><g fill="none" fill-rule="evenodd"><g><use fill="#FFF" xlink:href="#a"/><path stroke="#838D94" d="M.5 2.005V20.01c0 1.928 1.568 3.49 3.504 3.49h23.992c1.938 0 3.504-1.562 3.504-3.49V2.005C31.5 1.173 30.828.5 29.998.5H2.002C1.168.5.5 1.17.5 2.005z"/></g><g><use fill="#DADDDF" xlink:href="#b"/><path stroke="#838D94" d="M31.5 5.69V2c0-.83-.668-1.498-1.502-1.498H2.002C1.174.5.5 1.173.5 1.998V5.69l13.935 6.968c.85.425 2.278.426 3.13 0L31.5 5.69z"/></g></g></svg>
