<?xml version="1.0" encoding="UTF-8"?>
<svg width="16px" height="16px" viewBox="0 0 16 16" version="1.1" xmlns="http://www.w3.org/2000/svg" xmlns:xlink="http://www.w3.org/1999/xlink">
    <!-- Generator: Sketch 46.2 (44496) - http://www.bohemiancoding.com/sketch -->
    <title>events</title>
    <desc>Created with Sketch.</desc>
    <defs></defs>
    <g id="Page-1" stroke="none" stroke-width="1" fill="none" fill-rule="evenodd">
        <g id="events" fill-rule="nonzero" fill="#A1AAAF">
            <path d="M11.2189515,6.66666667 L15.3333333,6.66666667 C15.7013333,6.66666667 16,6.96533333 16,7.33333333 L16,8.66666667 C16,9.03466667 15.7013333,9.33333333 15.3333333,9.33333333 L11.2189515,9.33333333 L14.1282588,12.2426407 C14.388474,12.502856 14.388474,12.9252344 14.1282588,13.1854497 L13.1854497,14.1282588 C12.9252344,14.388474 12.502856,14.388474 12.2426407,14.1282588 L9.33333333,11.2189515 L9.33333333,15.3333333 C9.33333333,15.7013333 9.03466667,16 8.66666667,16 L7.33333333,16 C6.96533333,16 6.66666667,15.7013333 6.66666667,15.3333333 L6.66666667,11.2189515 L3.75735933,14.1282588 C3.497144,14.388474 3.0747656,14.388474 2.81455027,14.1282588 L1.8717412,13.1854497 C1.611526,12.9252344 1.611526,12.502856 1.8717412,12.2426407 L4.78104853,9.33333333 L0.666666667,9.33333333 C0.298666667,9.33333333 0,9.03466667 0,8.66666667 L0,7.33333333 C0,6.96533333 0.298666667,6.66666667 0.666666667,6.66666667 L4.78104853,6.66666667 L1.8717412,3.75735933 C1.611526,3.497144 1.611526,3.0747656 1.8717412,2.81455027 L2.81455027,1.8717412 C3.0747656,1.611526 3.497144,1.611526 3.75735933,1.8717412 L6.66666667,4.78104853 L6.66666667,0.666666667 C6.66666667,0.298666667 6.96533333,0 7.33333333,0 L8.66666667,0 C9.03466667,0 9.33333333,0.298666667 9.33333333,0.666666667 L9.33333333,4.78104853 L12.2426407,1.8717412 C12.502856,1.611526 12.9252344,1.611526 13.1854497,1.8717412 L14.1282588,2.81455027 C14.388474,3.0747656 14.388474,3.497144 14.1282588,3.75735933 L11.2189515,6.66666667 Z" id="Combined-Shape"></path>
        </g>
    </g>
</svg>
