<?xml version="1.0" encoding="UTF-8"?>
<svg width="18px" height="16px" viewBox="0 0 18 16" version="1.1" xmlns="http://www.w3.org/2000/svg" xmlns:xlink="http://www.w3.org/1999/xlink">
    <!-- Generator: Sketch 48.2 (47327) - http://www.bohemiancoding.com/sketch -->
    <title>icon--speaker--on</title>
    <desc>Created with Sketch.</desc>
    <defs></defs>
    <g id="Notifications---Preferences" stroke="none" stroke-width="1" fill="none" fill-rule="evenodd" transform="translate(-1110.000000, -791.000000)">
        <g id="Group-7" transform="translate(270.000000, 759.000000)" fill="#ADB483">
            <path d="M848.041,32.1352004 C848.041,32.1352004 849,31.4652004 849,33.1082004 L849,46.8422004 C849,48.4682004 848.063,47.9042004 848.063,47.9042004 L844,44.0002004 L841,44.0002004 C840.447,44.0002004 840,43.5242004 840,42.9822004 L840,37.0322004 C840,36.4902004 840.447,36.0002004 841,36.0002004 L844,36.0002004 L848.041,32.1352004 Z M850.498,36.0582004 C852.473,36.3042004 854,37.9862004 854,40.0272004 C854,42.0682004 852.473,43.7512004 850.498,43.9972004 C850.225,44.0302004 850,43.8042004 850,43.5272004 L850,42.5272004 C850,42.2512004 850.227,42.0332004 850.495,41.9652004 C851.357,41.7432004 852,40.9562004 852,40.0272004 C852,39.0992004 851.357,38.3122004 850.495,38.0902004 C850.227,38.0212004 850,37.8042004 850,37.5272004 L850,36.5272004 C850,36.2512004 850.225,36.0242004 850.498,36.0582004 Z M850,32.5272004 C850,32.2512004 850.225,32.0252004 850.5,32.0432004 C854.687,32.3012004 858,35.7752004 858,40.0272004 C858,44.2792004 854.687,47.7542004 850.5,48.0122004 C850.225,48.0292004 850,47.8042004 850,47.5272004 L850,46.5272004 C850,46.2512004 850.225,46.0292004 850.499,46.0072004 C853.576,45.7532004 856,43.1702004 856,40.0272004 C856,36.8852004 853.576,34.3022004 850.499,34.0482004 C850.225,34.0252004 850,33.8042004 850,33.5272004 L850,32.5272004 Z" id="icon--speaker--on"></path>
        </g>
    </g>
</svg>