<?xml version="1.0" encoding="UTF-8"?>
<svg width="16px" height="16px" viewBox="0 0 16 16" version="1.1" xmlns="http://www.w3.org/2000/svg" xmlns:xlink="http://www.w3.org/1999/xlink">
    <!-- Generator: Sketch 48.2 (47327) - http://www.bohemiancoding.com/sketch -->
    <title>Combined Shape</title>
    <desc>Created with Sketch.</desc>
    <defs></defs>
    <g id="Notifications---Preferences" stroke="none" stroke-width="1" fill="none" fill-rule="evenodd" transform="translate(-1110.000000, -608.000000)">
        <g id="Group-6" transform="translate(1110.000000, 607.000000)" fill="#BEC4C7">
            <path d="M14.411,9.02148729 L15.851,10.4604873 C16.046,10.6554873 16.046,10.9724873 15.851,11.1674873 L15.144,11.8744873 C14.948,12.0694873 14.632,12.0694873 14.436,11.8744873 L12.997,10.4354873 L11.564,11.8684873 C11.368,12.0634873 11.052,12.0634873 10.856,11.8684873 L10.149,11.1614873 C9.954,10.9664873 9.954,10.6494873 10.149,10.4544873 L11.583,9.02148729 L10.149,7.58748729 C9.954,7.39248729 9.954,7.07548729 10.149,6.88048729 L10.856,6.17348729 C11.052,5.97748729 11.368,5.97748729 11.564,6.17348729 L12.997,7.60648729 L14.436,6.16748729 C14.632,5.97248729 14.948,5.97248729 15.144,6.16748729 L15.851,6.87448729 C16.046,7.06948729 16.046,7.38648729 15.851,7.58148729 L14.411,9.02148729 Z M8.041,1.12748729 C8.041,1.12748729 9,0.455487288 9,2.10048729 L9,15.8374873 C9,17.4644873 8.062,16.9024873 8.062,16.9024873 L4,12.9984873 L1,12.9984873 C0.447,12.9984873 0,12.5194873 0,11.9774873 L0,6.02448729 C0,5.48248729 0.447,4.99848729 1,4.99848729 L4,4.99848729 L8.041,1.12748729 Z" id="Combined-Shape"></path>
        </g>
    </g>
</svg>