<?xml version="1.0" encoding="UTF-8"?>
<svg width="44px" height="45px" viewBox="0 0 44 45" version="1.1" xmlns="http://www.w3.org/2000/svg" xmlns:xlink="http://www.w3.org/1999/xlink">
    <!-- Generator: Sketch 47.1 (45422) - http://www.bohemiancoding.com/sketch -->
    <title>icon--brands--48</title>
    <desc>Created with Sketch.</desc>
    <defs></defs>
    <g id="Admin-home" stroke="none" stroke-width="1" fill="none" fill-rule="evenodd" stroke-linecap="round" stroke-linejoin="round">
        <g id="icon--brands--48" transform="translate(-6.000000, -6.000000)" stroke="#838D94">
            <g transform="translate(6.000000, 6.000000)">
                <path d="M26.9142136,42.0857864 L42.0857864,26.9142136 L42.0857864,26.9142136 C42.866835,26.133165 42.866835,24.866835 42.0857864,24.0857864 L18.5,0.5 L0.5,0.5 L0.5,18.5 L24.0857864,42.0857864 L24.0857864,42.0857864 C24.866835,42.866835 26.133165,42.866835 26.9142136,42.0857864 Z" id="Shape" fill="#FFFFFF"></path>
                <circle id="Oval" cx="12.5" cy="12.5" r="4"></circle>
                <path d="M24.5,18.5 L31.5,25.5" id="Shape"></path>
                <path d="M18.5,24.5 L25.5,31.5" id="Shape"></path>
                <path d="M14.29,16.078 C13.29,13.878 12,12.5 10.5,12.5 C7.2,12.5 4.5,19.7 4.5,28.5 C4.5,37.3 7.2,44.5 10.5,44.5 C13.1,44.5 15.295,40.195 16.095,34.095" id="Shape"></path>
            </g>
        </g>
    </g>
</svg>