<?xml version="1.0" encoding="UTF-8"?>
<svg width="43px" height="32px" viewBox="0 0 43 32" version="1.1" xmlns="http://www.w3.org/2000/svg" xmlns:xlink="http://www.w3.org/1999/xlink">
    <!-- Generator: Sketch 47.1 (45422) - http://www.bohemiancoding.com/sketch -->
    <title>icon--configuration--48</title>
    <desc>Created with Sketch.</desc>
    <defs>
        <path d="M0,16 C0,28.3709663 9.75929717,32 21.5,32 C33.8374451,32 43,28.3709663 43,16 C43,3.62903375 33.8374451,0 21.5,0 C9.75929717,0 0,3.62903375 0,16 Z" id="path-1"></path>
    </defs>
    <g id="Admin-home" stroke="none" stroke-width="1" fill="none" fill-rule="evenodd">
        <g id="icon--configuration--48" transform="translate(-6.000000, -12.000000)">
            <g transform="translate(6.000000, 12.000000)">
                <g id="Fill-1">
                    <use fill="#FFFFFF" fill-rule="evenodd" xlink:href="#path-1"></use>
                    <path stroke="#838D94" stroke-width="1" d="M0.5,16 C0.5,26.7837721 8.01060758,31.5 21.5,31.5 C35.3423098,31.5 42.5,26.9179114 42.5,16 C42.5,5.08208861 35.3423098,0.5 21.5,0.5 C8.01060758,0.5 0.5,5.21622791 0.5,16 Z"></path>
                </g>
                <rect id="Rectangle-2" fill="#838D94" x="10" y="13.5883077" width="5" height="5" rx="2.5"></rect>
                <rect id="Rectangle-2" fill="#838D94" x="27.9166667" y="13.6153846" width="5" height="5" rx="2.5"></rect>
                <rect id="Rectangle-2" fill="#838D94" x="18.9583333" y="13.6153846" width="5" height="5" rx="2.5"></rect>
            </g>
        </g>
    </g>
</svg>