<svg width="43" height="32" xmlns="http://www.w3.org/2000/svg" xmlns:xlink="http://www.w3.org/1999/xlink"><defs><path d="M0 16c0 12.371 9.76 16 21.5 16C33.837 32 43 28.371 43 16S33.837 0 21.5 0C9.76 0 0 3.629 0 16z" id="a"/><rect id="b" y=".588" width="5" height="5" rx="2.5"/><rect id="c" x="17.917" y=".615" width="5" height="5" rx="2.5"/><rect id="d" x="8.958" y=".615" width="5" height="5" rx="2.5"/></defs><g fill="none" fill-rule="evenodd"><g><use fill="#FFF" xlink:href="#a"/><path stroke="#838D94" d="M.5 16c0 10.784 7.51 15.5 21 15.5 13.842 0 21-4.582 21-15.5S35.342.5 21.5.5C8.01.5.5 5.216.5 16z"/></g><g transform="translate(10 13)"><use fill="#838D94" xlink:href="#b"/><rect stroke="#838D94" stroke-width=".675" x=".338" y=".926" width="4.325" height="4.325" rx="2.162"/></g><g transform="translate(10 13)"><use fill="#838D94" xlink:href="#c"/><rect stroke="#838D94" stroke-width=".675" x="18.254" y=".953" width="4.325" height="4.325" rx="2.162"/></g><g transform="translate(10 13)"><use fill="#838D94" xlink:href="#d"/><rect stroke="#838D94" stroke-width=".675" x="9.296" y=".953" width="4.325" height="4.325" rx="2.162"/></g></g></svg>