<?xml version="1.0" encoding="UTF-8"?>
<svg width="45px" height="45px" viewBox="0 0 45 45" version="1.1" xmlns="http://www.w3.org/2000/svg" xmlns:xlink="http://www.w3.org/1999/xlink">
    <!-- Generator: Sketch 47.1 (45422) - http://www.bohemiancoding.com/sketch -->
    <title>icon--email_templates--48</title>
    <desc>Created with Sketch.</desc>
    <defs></defs>
    <g id="Admin-home" stroke="none" stroke-width="1" fill="none" fill-rule="evenodd">
        <g id="icon--email_templates--48" transform="translate(-6.000000, -6.000000)">
            <g transform="translate(6.000000, 6.000000)" id="Shape">
                <path d="M8.5,14.7 L0.5,20.5 L0.5,42.5 L0.5,42.5 C0.5,43.6045695 1.3954305,44.5 2.5,44.5 L42.5,44.5 L42.5,44.5 C43.6045695,44.5 44.5,43.6045695 44.5,42.5 L44.5,20.5 L36.5,14.7" stroke="#838D94" fill="#FFFFFF"></path>
                <polygon fill="#DADDDF" points="8.5 24.9 8.5 0.5 36.5 0.5 36.5 24.9 23 33"></polygon>
                <path d="M0.5,20.5 L43.5,43.5" stroke="#838D94" stroke-linecap="round" stroke-linejoin="round"></path>
                <path d="M44.5,20.5 L22.5,32.5" stroke="#838D94"></path>
                <path d="M16.5,10.5 L28.5,10.5" stroke="#838D94" stroke-linecap="round" stroke-linejoin="round"></path>
                <path d="M16.5,18.5 L28.5,18.5" stroke="#838D94" stroke-linecap="round" stroke-linejoin="round"></path>
                <path d="M8.5,24.9 L8.5,2.5 L8.5,2.5 C8.5,1.3954305 9.3954305,0.5 10.5,0.5 L34.5,0.5 L34.5,0.5 C35.6045695,0.5 36.5,1.3954305 36.5,2.5 L36.5,24.9" stroke="#838D94"></path>
            </g>
        </g>
    </g>
</svg>