<?xml version="1.0" encoding="UTF-8"?>
<svg width="39px" height="45px" viewBox="0 0 39 45" version="1.1" xmlns="http://www.w3.org/2000/svg" xmlns:xlink="http://www.w3.org/1999/xlink">
    <!-- Generator: Sketch 47.1 (45422) - http://www.bohemiancoding.com/sketch -->
    <title>icon--engagement_rules--48</title>
    <desc>Created with Sketch.</desc>
    <defs></defs>
    <g id="Admin-home" stroke="none" stroke-width="1" fill="none" fill-rule="evenodd" stroke-linecap="round" stroke-linejoin="round">
        <g id="icon--engagement_rules--48" transform="translate(-9.000000, -6.000000)" stroke="#838D94">
            <g transform="translate(9.000000, 6.000000)">
                <path d="M6.99951172,40.5 L6.5,40.5 L6.5,40.5 C5.3954305,40.5 4.5,39.6045695 4.5,38.5 L4.5,2.5 L4.5,2.5 C4.5,1.3954305 5.3954305,0.5 6.5,0.5 L29,0.5 L33,0.5 L36.5,0.5 L36.5,0.5 C37.6045695,0.5 38.5,1.3954305 38.5,2.5 L38.5,3.01920241" id="Shape" transform="translate(21.500000, 20.500000) scale(-1, 1) translate(-21.500000, -20.500000) "></path>
                <path d="M30.5,44.5 L2.5,44.5 L2.5,44.5 C1.3954305,44.5 0.5,43.6045695 0.5,42.5 L0.5,8.5 L0.5,8.5 C0.5,7.3954305 1.3954305,6.5 2.5,6.5 L30.5,6.5 L30.5,6.5 C31.6045695,6.5 32.5,7.3954305 32.5,8.5 L32.5,42.5 L32.5,42.5 C32.5,43.6045695 31.6045695,44.5 30.5,44.5 Z" id="Shape" fill="#FFFFFF"></path>
                <path d="M18.2910435,23.7089565 L18.2910435,23.7089565 C16.8648696,22.2827826 14.5524348,22.2827826 13.1262609,23.7089565 L11.4048696,25.4303478 C9.97869565,26.8565217 9.97869565,29.1689565 11.4048696,30.5951304 L11.4048696,30.5951304 C12.8310435,32.0213043 15.1434783,32.0213043 16.5696522,30.5951304 L17,30.1647826" id="Path"></path>
                <path d="M15.7089565,26.2910435 L15.7089565,26.2910435 C17.1351304,27.7172174 19.4475652,27.7172174 20.8737391,26.2910435 L22.5951304,24.5696522 C24.0213043,23.1434783 24.0213043,20.8310435 22.5951304,19.4048696 L22.5951304,19.4048696 C21.1689565,17.9786957 18.8565217,17.9786957 17.4303478,19.4048696 L17,19.8352174" id="Path"></path>
            </g>
        </g>
    </g>
</svg>