<svg width="46" height="46" xmlns="http://www.w3.org/2000/svg" xmlns:xlink="http://www.w3.org/1999/xlink"><defs><path d="M41.112 0C43.85 0 46 2.15 46 4.888v36.224C46 43.85 43.85 46 41.112 46H4.889C2.26 46 0 43.965 0 41.4V4.888C0 2.15 2.15 0 4.888 0h36.224z" id="a"/></defs><g fill-rule="nonzero" fill="none"><g><use fill="#FFF" fill-rule="evenodd" xlink:href="#a"/><path stroke="#838D94" d="M41.112.5H4.889C2.426.5.5 2.426.5 4.888V41.4c0 2.248 1.995 4.1 4.388 4.1h36.224c2.462 0 4.388-1.926 4.388-4.388V4.889C45.5 2.426 43.574.5 41.112.5z"/></g><path d="M24 45.5L23.954 32H18v-6h6v-4c0-5.398 4.343-8 9.159-8 2.307 0 4.29.172 4.867.248v5.642l-3.34.002c-2.62 0-4.686 1.244-4.686 3.07V26h7.94l-2 6H30v13.5h-6z" fill="#838D94"/></g></svg>