<?xml version="1.0" encoding="UTF-8"?>
<svg width="22px" height="20px" viewBox="0 0 22 20" version="1.1" xmlns="http://www.w3.org/2000/svg" xmlns:xlink="http://www.w3.org/1999/xlink">
    <!-- Generator: Sketch 47.1 (45422) - http://www.bohemiancoding.com/sketch -->
    <title>Group 4</title>
    <desc>Created with Sketch.</desc>
    <defs>
        <rect id="path-1" x="7" y="10" width="6" height="7.11"></rect>
        <path d="M3.96224614,17.1080789 C3.34446755,17.1080789 2.90224474,16.6114116 2.90224474,15.9969663 L2.90224474,10.1202909 L1.25890925,10.1202909 C0.641130663,10.1202909 0.494463804,9.76917934 0.932242156,9.33473432 L9.20780947,0.455833761 C9.64669894,0.0213887462 10.3533665,0.0213887462 10.792256,0.455833761 L18.8878233,9.33473432 C19.3256017,9.76917934 19.1789348,10.1202909 18.5600451,10.1202909 L16.9178207,10.1202909 L16.9178207,15.9969663 C16.9178207,16.6114116 16.4755979,17.1080789 15.8578193,17.1080789 L13.4789253,17.1080789 C13.1689249,17.1080789 12.9022579,16.8591897 12.9022579,16.5525226 L12.9022579,10.6580723 C12.9022579,10.3514053 12.6689242,10.1025161 12.3600349,10.1025161 L7.44003053,10.1025161 C7.13114124,10.1025161 6.8978076,10.3514053 6.8978076,10.6580723 L6.8978076,16.5525226 C6.8978076,16.8591897 6.63114058,17.1080789 6.32002906,17.1080789 L3.96224614,17.1080789 Z" id="path-2"></path>
    </defs>
    <g id="Admin-home" stroke="none" stroke-width="1" fill="none" fill-rule="evenodd">
        <g id="Admin---Home" transform="translate(-462.000000, -77.000000)">
            <g id="Group-4" transform="translate(463.000000, 78.000000)">
                <g id="Group">
                    <g id="Rectangle-3">
                        <use fill="#DADDDF" fill-rule="evenodd" xlink:href="#path-1"></use>
                        <rect stroke="#838D94" stroke-width="1" x="6.5" y="9.5" width="7" height="8.11"></rect>
                    </g>
                    <g id="Imported-Layers-Copy-3" stroke-linecap="round" stroke-linejoin="round">
                        <use fill="#FFFFFF" fill-rule="evenodd" xlink:href="#path-2"></use>
                        <path stroke="#838D94" stroke-width="1" d="M2.40224474,10.6202909 L1.25890925,10.6202909 C0.195724429,10.6202909 -0.175266465,9.72939024 0.566480223,8.99382641 L8.85605989,0.100485718 C9.48979172,-0.526828573 10.5102738,-0.526828573 11.1617319,0.118954579 L19.240023,8.97983237 C19.9956414,9.72969734 19.6239078,10.6202909 18.5600451,10.6202909 L17.4178207,10.6202909 L17.4178207,15.9969663 C17.4178207,16.8919367 16.7486954,17.6080789 15.8578193,17.6080789 L13.4789253,17.6080789 C12.8950516,17.6080789 12.4022579,17.1380095 12.4022579,16.5525226 L12.4022579,10.6580723 C12.4022579,10.6201069 12.3852988,10.6025161 12.3600349,10.6025161 L7.44003053,10.6025161 C7.41476669,10.6025161 7.3978076,10.6201069 7.3978076,10.6580723 L7.3978076,16.5525226 C7.3978076,17.1383317 6.90470275,17.6080789 6.32002906,17.6080789 L3.96224614,17.6080789 C3.07137002,17.6080789 2.40224474,16.8919367 2.40224474,15.9969663 L2.40224474,10.6202909 Z"></path>
                    </g>
                </g>
                <rect id="Rectangle-10" fill="#FFFFFF" x="6" y="16" width="1" height="1"></rect>
                <rect id="Rectangle-10" fill="#FFFFFF" x="13" y="16" width="1" height="1"></rect>
                <rect id="Rectangle-10" fill="#838D94" x="7" y="16" width="1" height="1"></rect>
                <rect id="Rectangle-10" fill="#838D94" x="12" y="16" width="1" height="1"></rect>
            </g>
        </g>
    </g>
</svg>