<?xml version="1.0" encoding="UTF-8"?>
<svg width="44px" height="45px" viewBox="0 0 44 45" version="1.1" xmlns="http://www.w3.org/2000/svg" xmlns:xlink="http://www.w3.org/1999/xlink">
    <!-- Generator: Sketch 47.1 (45422) - http://www.bohemiancoding.com/sketch -->
    <title>icon--plan--48</title>
    <desc>Created with Sketch.</desc>
    <defs></defs>
    <g id="Admin-home" stroke="none" stroke-width="1" fill="none" fill-rule="evenodd" stroke-linecap="round" stroke-linejoin="round">
        <g id="icon--plan--48" transform="translate(-6.000000, -6.000000)" stroke="#838D94">
            <g transform="translate(6.000000, 6.000000)" id="Shape">
                <path d="M36.5,32.5 L36.5,42.5 L36.5,42.5 C36.5,43.6045695 35.6045695,44.5 34.5,44.5 L2.5,44.5 L2.5,44.5 C1.3954305,44.5 0.5,43.6045695 0.5,42.5 L0.5,2.5 L0.5,2.5 C0.5,1.3954305 1.3954305,0.5 2.5,0.5 L34.5,0.5 L34.5,0.5 C35.6045695,0.5 36.5,1.3954305 36.5,2.5 L36.5,14.5" fill="#FFFFFF"></path>
                <path d="M10.5,12.5 L26.5,12.5"></path>
                <path d="M10.5,20.5 L26.5,20.5"></path>
                <path d="M10.5,28.5 L18.5,28.5"></path>
                <polygon fill="#DADDDF" points="29.5 34.5 24.5 35.5 25.5 30.5 39.5 16.5 43.5 20.5"></polygon>
            </g>
        </g>
    </g>
</svg>