<svg width="46" height="32" xmlns="http://www.w3.org/2000/svg"><g fill="none" fill-rule="evenodd"><path d="M19.438 3.889a8.023 8.023 0 0 1 5.764-2.438c3 0 5.619 1.648 7.013 4.095a9.815 9.815 0 0 1 3.963-.83c5.412 0 9.8 4.36 9.8 9.736 0 5.378-4.388 9.737-9.8 9.737-.66 0-1.306-.065-1.93-.189a7.18 7.18 0 0 1-6.252 3.614 7.219 7.219 0 0 1-3.134-.71c-1.245 2.883-4.144 4.905-7.523 4.905-3.52 0-6.519-2.193-7.67-5.27a7.607 7.607 0 0 1-1.56.16C3.92 26.7.524 23.32.524 19.15a7.542 7.542 0 0 1 3.794-6.54 8.533 8.533 0 0 1-.727-3.454C3.59 4.359 7.543.47 12.42.47a8.864 8.864 0 0 1 7.02 3.418" fill="#838D94" fill-rule="nonzero"/><path d="M7.107 16.722c-.029.073.01.089.02.101.085.062.171.106.259.155.463.242.901.313 1.359.313.932 0 1.511-.489 1.511-1.275v-.015c0-.727-.653-.991-1.266-1.182l-.08-.026c-.462-.148-.861-.275-.861-.575v-.016c0-.256.233-.445.594-.445.402 0 .878.131 1.185.298 0 0 .09.058.123-.028l.19-.503c.017-.048-.014-.084-.045-.103a2.675 2.675 0 0 0-1.336-.354l-.093.001c-.854 0-1.45.508-1.45 1.236v.015c0 .767.658 1.016 1.274 1.19l.099.03c.448.135.835.252.835.563v.015c0 .285-.251.497-.657.497a2.23 2.23 0 0 1-1.2-.341c-.066-.038-.104-.065-.155-.095-.026-.017-.093-.045-.122.041l-.184.503zM20.757 16.722c-.029.073.01.089.019.101.086.062.172.106.26.155.463.242.901.313 1.359.313.932 0 1.511-.489 1.511-1.275v-.015c0-.727-.653-.991-1.266-1.182l-.08-.026c-.462-.148-.861-.275-.861-.575v-.016c0-.256.233-.445.594-.445.402 0 .878.131 1.185.298 0 0 .09.058.123-.028l.19-.503c.017-.048-.014-.084-.046-.103a2.675 2.675 0 0 0-1.335-.354l-.094.001c-.853 0-1.449.508-1.449 1.236v.015c0 .767.658 1.016 1.273 1.19l.1.03c.448.135.835.252.835.563v.015c0 .285-.252.497-.657.497a2.23 2.23 0 0 1-1.201-.341c-.065-.038-.104-.064-.153-.095-.017-.01-.096-.04-.123.041l-.184.503zM30.075 15.182c0 .444-.084.794-.25 1.042-.164.245-.412.364-.758.364-.346 0-.593-.119-.754-.364-.163-.247-.246-.598-.246-1.042 0-.444.083-.794.246-1.039.161-.242.408-.36.754-.36.346 0 .594.118.759.36.165.245.249.595.249 1.039m.778-.824a1.836 1.836 0 0 0-.354-.666 1.71 1.71 0 0 0-.598-.448 1.992 1.992 0 0 0-.834-.165c-.316 0-.597.056-.834.165-.238.11-.44.26-.598.448a1.866 1.866 0 0 0-.355.666c-.075.253-.114.53-.114.824 0 .294.039.571.114.824.077.253.196.478.355.666.159.187.36.337.598.443.238.107.518.161.834.161.316 0 .596-.054.834-.16.238-.107.44-.257.598-.444.159-.187.278-.412.354-.666.077-.254.115-.531.115-.824 0-.294-.038-.571-.115-.824" fill="#FFF" fill-rule="nonzero"/><path d="M37.244 16.47c-.025-.075-.099-.047-.099-.047a1.808 1.808 0 0 1-.362.102c-.13.02-.273.03-.426.03-.377 0-.676-.11-.89-.329-.216-.218-.336-.57-.335-1.048.002-.434.108-.76.299-1.01.19-.247.478-.374.864-.374.32 0 .565.037.822.116 0 0 .061.027.09-.053.069-.186.119-.319.192-.524.02-.058-.03-.083-.048-.09a3.073 3.073 0 0 0-.52-.129 3.954 3.954 0 0 0-.584-.038c-.327 0-.618.054-.867.164-.249.11-.46.26-.627.447a1.895 1.895 0 0 0-.379.666 2.615 2.615 0 0 0-.127.825c0 .636.174 1.15.518 1.527.345.377.862.57 1.537.57.399 0 .808-.08 1.102-.195 0 0 .056-.027.031-.09l-.19-.52zM38.606 14.756c.037-.247.106-.452.213-.613.161-.243.407-.376.753-.376.346 0 .575.134.738.376.11.16.156.375.175.613h-1.879zm2.62-.543a1.605 1.605 0 0 0-.337-.607 1.546 1.546 0 0 0-.5-.376 1.952 1.952 0 0 0-.755-.15c-.329 0-.627.054-.87.166a1.727 1.727 0 0 0-.606.456c-.16.19-.28.417-.357.674a2.872 2.872 0 0 0-.116.828c0 .3.04.578.12.829.08.252.209.475.382.66.173.185.396.33.663.432.264.1.586.153.956.152.76-.003 1.162-.17 1.327-.26.029-.016.057-.044.022-.124l-.173-.475c-.025-.07-.099-.045-.099-.045-.188.07-.456.193-1.08.192-.41-.001-.712-.12-.902-.305-.195-.19-.29-.47-.307-.864l2.635.003s.069-.002.076-.068c.003-.028.09-.533-.078-1.118zM17.506 14.756c.038-.247.107-.452.213-.613.162-.243.408-.376.754-.376.345 0 .574.134.738.376.108.16.156.375.174.613h-1.879zm2.62-.543a1.605 1.605 0 0 0-.336-.607 1.546 1.546 0 0 0-.5-.376 1.952 1.952 0 0 0-.755-.15c-.329 0-.628.054-.87.166a1.727 1.727 0 0 0-.607.456c-.16.19-.28.417-.356.674a2.895 2.895 0 0 0-.116.828c0 .3.04.578.12.829.08.252.208.475.382.66.172.185.395.33.662.432.265.1.587.153.956.152.761-.003 1.162-.17 1.327-.26.03-.016.057-.044.022-.124l-.172-.475c-.026-.07-.1-.045-.1-.045-.188.07-.455.193-1.081.192-.408-.001-.711-.12-.9-.305-.196-.19-.291-.47-.308-.864l2.635.003s.07-.002.076-.068c.003-.028.09-.533-.079-1.118z" fill="#FFF"/><path d="M11.812 16.455a.53.53 0 0 1-.152-.154.62.62 0 0 1-.079-.337c0-.228.077-.392.235-.503-.002.001.227-.194.764-.187.378.005.715.06.715.06v1.18s-.334.07-.71.093c-.537.032-.775-.153-.773-.152m1.048-1.823a5.942 5.942 0 0 0-.411-.013c-.226 0-.444.029-.649.083a1.704 1.704 0 0 0-.55.251c-.16.113-.29.257-.382.428-.094.17-.14.372-.14.598 0 .23.04.43.12.593.08.164.196.3.343.405.147.106.327.183.537.23.207.046.441.07.698.07.27 0 .539-.022.8-.066.258-.044.575-.107.664-.126.087-.02.184-.047.184-.047.065-.016.06-.085.06-.085l-.001-2.373c0-.52-.141-.906-.419-1.146-.276-.238-.684-.359-1.21-.359-.198 0-.516.027-.706.065 0 0-.576.11-.813.292 0 0-.051.032-.023.103l.187.494c.023.064.086.042.086.042s.02-.008.043-.021c.507-.272 1.148-.263 1.148-.263.285 0 .504.056.652.167.143.109.216.273.216.618v.11c-.226-.032-.434-.05-.434-.05" fill="#FFF" fill-rule="nonzero"/><path d="M34.11 13.294a.07.07 0 0 0-.04-.093 2.317 2.317 0 0 0-.442-.074c-.33-.02-.514.035-.679.107-.163.073-.344.19-.445.324v-.316c0-.044-.032-.079-.076-.079h-.675c-.044 0-.076.035-.076.08v3.87c0 .043.036.079.08.079h.692a.08.08 0 0 0 .08-.08V15.18c0-.26.03-.518.087-.681a.977.977 0 0 1 .23-.382.811.811 0 0 1 .327-.193c.122-.037.257-.049.353-.049.138 0 .29.035.29.035.05.006.079-.025.095-.07.046-.119.174-.474.199-.545M27.612 11.5a2.093 2.093 0 0 0-.618-.088c-.476 0-.852.133-1.116.395-.262.26-.44.656-.53 1.177l-.032.175h-.598s-.072-.002-.088.076l-.098.54c-.007.05.016.083.086.083h.582l-.59 3.248a3.97 3.97 0 0 1-.159.64 1.3 1.3 0 0 1-.183.369.489.489 0 0 1-.241.183.994.994 0 0 1-.31.044 1.18 1.18 0 0 1-.212-.023.63.63 0 0 1-.142-.045s-.068-.026-.095.041c-.022.056-.177.476-.196.528-.018.051.008.092.041.104a1.622 1.622 0 0 0 .627.105c.242 0 .463-.034.647-.099.184-.066.344-.18.487-.334.153-.167.25-.342.341-.581.092-.236.17-.53.232-.871l.594-3.309h.868s.073.003.088-.076l.098-.54c.007-.05-.015-.083-.086-.083h-.842c.004-.018.042-.31.139-.585a.765.765 0 0 1 .184-.277.554.554 0 0 1 .221-.135.93.93 0 0 1 .283-.04c.08 0 .157.01.216.021.082.018.114.026.135.033.086.025.098 0 .115-.04l.201-.545c.02-.059-.03-.084-.049-.09M15.843 17.113a.076.076 0 0 1-.076.078h-.699c-.044 0-.075-.035-.075-.078v-5.539c0-.043.031-.078.075-.078h.699c.044 0 .076.035.076.078v5.539z" fill="#FFF"/></g></svg>