<?xml version="1.0" encoding="UTF-8"?>
<svg width="44px" height="45px" viewBox="0 0 44 45" version="1.1" xmlns="http://www.w3.org/2000/svg" xmlns:xlink="http://www.w3.org/1999/xlink">
    <!-- Generator: Sketch 47.1 (45422) - http://www.bohemiancoding.com/sketch -->
    <title>icon--security_policies--48</title>
    <desc>Created with Sketch.</desc>
    <defs></defs>
    <g id="Admin-home" stroke="none" stroke-width="1" fill="none" fill-rule="evenodd">
        <g id="icon--security_policies--48" transform="translate(-6.000000, -6.000000)">
            <g transform="translate(6.000000, 6.000000)">
                <path d="M25.4524079,44.5 L2.5,44.5 L2.5,44.5 C1.3954305,44.5 0.5,43.6045695 0.5,42.5 L0.5,2.5 L0.5,2.5 C0.5,1.3954305 1.3954305,0.5 2.5,0.5 L34.5,0.5 L34.5,0.5 C35.6045695,0.5 36.5,1.3954305 36.5,2.5 L36.5,18.5 L36,45 L25.5475382,44.5022637 L25.5475382,44.5022637 C25.5158506,44.5007548 25.4841315,44.5 25.4524079,44.5 Z" id="Shape" fill="#FFFFFF"></path>
                <path d="M24.174524,44.5 L2.5,44.5 L2.5,44.5 C1.3954305,44.5 0.5,43.6045695 0.5,42.5 L0.5,2.5 L0.5,2.5 C0.5,1.3954305 1.3954305,0.5 2.5,0.5 L34.5,0.5 L34.5,0.5 C35.6045695,0.5 36.5,1.3954305 36.5,2.5 L36.5,18.5" id="Shape" stroke="#838D94" stroke-linecap="round" stroke-linejoin="round"></path>
                <path d="M10.5,12.5 L26.5,12.5" id="Shape" stroke="#838D94" stroke-linecap="round" stroke-linejoin="round"></path>
                <path d="M10.5,20.5 L26.5,20.5" id="Shape" stroke="#838D94" stroke-linecap="round" stroke-linejoin="round"></path>
                <path d="M10.5,28.5 L18.5,28.5" id="Shape" stroke="#838D94" stroke-linecap="round" stroke-linejoin="round"></path>
                <path d="M28.5,30.5 L42.5,30.5 L42.5,30.5 C43.0522847,30.5 43.5,30.9477153 43.5,31.5 L43.5,42.5 L43.5,42.5 C43.5,43.6045695 42.6045695,44.5 41.5,44.5 L29.5,44.5 L29.5,44.5 C28.3954305,44.5 27.5,43.6045695 27.5,42.5 L27.5,31.5 L27.5,31.5 C27.5,30.9477153 27.9477153,30.5 28.5,30.5 Z" id="Rectangle-path" stroke="#838D94" fill="#DADDDF" stroke-linecap="round" stroke-linejoin="round"></path>
                <path d="M31.5,30.5 L31.5,26.5 C31.5,24.291 33.291,22.5 35.5,22.5 C37.709,22.5 39.5,24.291 39.5,26.5 L39.5,30.5" id="Shape" stroke="#838D94" stroke-linecap="round" stroke-linejoin="round"></path>
                <path d="M35.5,36.5 L35.5,38.5" id="Shape" stroke="#838D94" stroke-linecap="round" stroke-linejoin="round"></path>
            </g>
        </g>
    </g>
</svg>