<?xml version="1.0" encoding="UTF-8"?>
<svg width="45px" height="39px" viewBox="0 0 45 39" version="1.1" xmlns="http://www.w3.org/2000/svg" xmlns:xlink="http://www.w3.org/1999/xlink">
    <!-- Generator: Sketch 47.1 (45422) - http://www.bohemiancoding.com/sketch -->
    <title>icon--teams--48</title>
    <desc>Created with Sketch.</desc>
    <defs>
        <path d="M32.34375,32.0357143 C32.34375,23.5739229 25.1033549,16.7142857 16.171875,16.7142857 C7.24039506,16.7142857 0,23.5739229 0,32.0357143 C0,32.0357143 32.34375,32.0357143 32.34375,32.0357143 Z" id="path-1"></path>
        <ellipse id="path-2" cx="15.46875" cy="9.75" rx="9.84375" ry="9.75"></ellipse>
        <path d="M45,39 C45,30.5382087 37.7596049,23.6785714 28.828125,23.6785714 C19.8966451,23.6785714 12.65625,30.5382087 12.65625,39 C12.65625,39 45,39 45,39 Z" id="path-3"></path>
        <ellipse id="path-4" cx="28.125" cy="16.7142857" rx="9.84375" ry="9.75"></ellipse>
    </defs>
    <g id="Admin-home" stroke="none" stroke-width="1" fill="none" fill-rule="evenodd">
        <g id="icon--teams--48" transform="translate(-6.000000, -9.000000)">
            <g transform="translate(6.000000, 9.000000)" id="Oval-10">
                <g>
                    <use fill="#DADDDF" fill-rule="evenodd" xlink:href="#path-1"></use>
                    <path stroke="#838D94" stroke-width="1" d="M31.8349944,31.5357143 C31.5562278,23.587318 24.6558921,17.2142857 16.171875,17.2142857 C7.68785788,17.2142857 0.787522241,23.587318 0.50875558,31.5357143 C1.1612512,31.5357143 1.79080836,31.5357143 5.05371094,31.5357143 L27.2900391,31.5357143 C30.5529416,31.5357143 31.1824988,31.5357143 31.8352824,31.5357143 L31.8349944,31.5357143 Z"></path>
                </g>
                <g>
                    <use fill="#FFFFFF" fill-rule="evenodd" xlink:href="#path-2"></use>
                    <ellipse stroke="#838D94" stroke-width="1" cx="15.46875" cy="9.75" rx="9.34375" ry="9.25"></ellipse>
                </g>
                <g>
                    <use fill="#FFFFFF" fill-rule="evenodd" xlink:href="#path-3"></use>
                    <path stroke="#838D94" stroke-width="1" d="M44.4912444,38.5 C44.2124778,30.5516037 37.3121421,24.1785714 28.828125,24.1785714 C20.3441079,24.1785714 13.4437722,30.5516037 13.1650056,38.5 C13.8175012,38.5 14.4470584,38.5 17.7099609,38.5 L39.9462891,38.5 C43.2091916,38.5 43.8387488,38.5 44.4915324,38.5 L44.4912444,38.5 Z"></path>
                </g>
                <g>
                    <use fill="#FFFFFF" fill-rule="evenodd" xlink:href="#path-4"></use>
                    <ellipse stroke="#838D94" stroke-width="1" cx="28.125" cy="16.7142857" rx="9.34375" ry="9.25"></ellipse>
                </g>
            </g>
        </g>
    </g>
</svg>