<svg width="44" height="44" xmlns="http://www.w3.org/2000/svg"><path d="M27.5 22.01c0 1.586-.286 3.16-.845 4.644a13.19 13.19 0 0 1-4.646.847h-.019a13.19 13.19 0 0 1-4.644-.846 13.158 13.158 0 0 1-.846-4.645v-.02c0-1.586.285-3.16.844-4.644 1.485-.56 3.06-.847 4.647-.846h.018c1.587 0 3.161.286 4.646.846a13.15 13.15 0 0 1 .845 4.644v.02zm16.194-3.677H30.853l9.08-9.08a22.089 22.089 0 0 0-2.377-2.81v-.001a22.172 22.172 0 0 0-2.81-2.375l-9.08 9.081V.306A22.104 22.104 0 0 0 22.01 0h-.023c-1.245 0-2.466.107-3.655.306v12.842l-9.08-9.08a21.97 21.97 0 0 0-2.808 2.376l-.005.003a22.138 22.138 0 0 0-2.373 2.806l9.08 9.08H.308S0 20.745 0 21.993v.015c0 1.247.106 2.469.306 3.659h12.842l-9.081 9.08a22.156 22.156 0 0 0 5.186 5.186l9.08-9.081v12.842c1.207.203 2.428.305 3.651.306h.031a22.198 22.198 0 0 0 3.65-.306V30.852l9.082 9.081c1-.712 1.94-1.507 2.809-2.375l.002-.002a22.214 22.214 0 0 0 2.375-2.809l-9.082-9.08h12.843c.2-1.188.305-2.407.306-3.651v-.032a22.122 22.122 0 0 0-.306-3.65z" fill-rule="nonzero" fill="#838D94"/></svg>