<svg width="12" height="12" viewBox="0 0 12 12" xmlns="http://www.w3.org/2000/svg" xmlns:xlink="http://www.w3.org/1999/xlink"><defs><path d="M0 .697C0 .312.32 0 .697 0h10.606c.385 0 .697.32.697.697v10.3c0 .554-.456 1.003-1.002 1.003H1.002C.45 12 0 11.544 0 10.998V.698z" id="a"/></defs><g fill="none" fill-rule="evenodd"><path d="M0 0h12v12H0z"/><g><use fill="#FFF" xlink:href="#a"/><path stroke="#838D94" d="M.5.697C.5.592.593.5.697.5h10.606c.105 0 .197.093.197.197v10.3c0 .275-.23.503-.502.503H1.002c-.274 0-.502-.23-.502-.502V.698z"/></g><path d="M4 4h1v7H4V4zM1 3h10v1H1V3z" fill="#838D94"/><path fill="#DADDDF" d="M1 3V1h10v2"/></g></svg>
