<svg width="12" height="12" viewBox="0 0 12 12" xmlns="http://www.w3.org/2000/svg" xmlns:xlink="http://www.w3.org/1999/xlink"><defs><path d="M.75 9C.3 9 0 8.7 0 8.25V6c0-.225.075-.375.225-.525l5.25-5.25c.3-.3.75-.3 1.05 0l2.25 2.25c.3.3.3.75 0 1.05l-5.25 5.25c-.15.15-.3.225-.525.225H.75zM0 11h12v1H0v-1z" id="a"/></defs><g fill="none" fill-rule="evenodd"><path d="M0 0h12v12H0z"/><g fill-rule="nonzero"><use fill="#FFF" fill-rule="evenodd" xlink:href="#a"/><path stroke="#838D94" d="M.75 8.5C.576 8.5.5 8.424.5 8.25V6c0-.078.012-.105.08-.17L5.83.58c.103-.106.237-.106.34 0l2.25 2.25c.106.103.106.237 0 .34L3.17 8.42c-.065.068-.092.08-.17.08H.75zm-.75 3h12l-.5-.5v1l.5-.5H0l.5.5v-1l-.5.5z"/></g></g></svg>
