<svg width="12" height="10" viewBox="0 0 12 10" xmlns="http://www.w3.org/2000/svg" xmlns:xlink="http://www.w3.org/1999/xlink"><defs><path d="M0 1.703C0 1.315.32 1 .697 1h10.606c.385 0 .697.31.697.703v8.302c0 .55-.456.995-1.002.995H1.002C.45 11 0 10.544 0 10.005V1.703z" id="a"/></defs><g fill="none" fill-rule="evenodd"><path d="M0-1h12v12H0z"/><g transform="translate(0 -1)"><use fill="#FFF" xlink:href="#a"/><path stroke="#838D94" d="M.5 1.703c0-.11.094-.203.197-.203h10.606c.11 0 .197.087.197.203v8.302c0 .27-.228.495-.502.495H1.002c-.274 0-.502-.228-.502-.495V1.703z"/></g><path fill="#DADDDF" d="M1 3V1h10v2L7 6H5"/><path d="M0 3h1l4.14 2.484c.475.285 1.252.28 1.72 0L11 3h1" stroke="#838D94"/></g></svg>
