<svg width="12" height="12" viewBox="0 0 12 12" xmlns="http://www.w3.org/2000/svg" xmlns:xlink="http://www.w3.org/1999/xlink"><title>Global/Icons/12/facebook</title><defs><path d="M10.725 0C11.44 0 12 .56 12 1.275v9.45C12 11.44 11.44 12 10.725 12h-9.45C.59 12 0 11.47 0 10.8V1.275C0 .56.56 0 1.275 0h9.45z" id="a"/></defs><g fill="none" fill-rule="evenodd"><path d="M0 0h12v12H0z"/><g fill-rule="nonzero"><use fill="#FFF" fill-rule="evenodd" xlink:href="#a"/><path stroke="#838D94" d="M10.725.5h-9.45C.837.5.5.837.5 1.275V10.8c0 .376.35.7.775.7h9.45c.438 0 .775-.337.775-.775v-9.45c0-.438-.337-.775-.775-.775z"/><path d="M6.51 11L6.5 7.5H5V6h1.5V5c0-1.35.836-2 2.04-2 .576 0 1.072.043 1.216.062v1.41H8.92c-.653 0-.78.312-.78.77V6H10l-.5 1.5H8.14V11H6.51z" fill="#838D94"/></g></g></svg>
