<svg width="12" height="12" viewBox="0 0 12 12" xmlns="http://www.w3.org/2000/svg" xmlns:xlink="http://www.w3.org/1999/xlink"><defs><path d="M6 0C2.7 0 0 2.7 0 6s2.7 6 6 6 6-2.7 6-6-2.7-6-6-6z" id="a"/><path d="M6 3C4.35 3 3 4.35 3 6s1.35 3 3 3 3-1.35 3-3-1.35-3-3-3z" id="b"/></defs><g fill="none" fill-rule="evenodd"><path d="M0 0h12v12H0z"/><g fill-rule="nonzero"><use fill="#FFF" fill-rule="evenodd" xlink:href="#a"/><path stroke="#838D94" d="M6 .5c3.024 0 5.5 2.476 5.5 5.5S9.024 11.5 6 11.5.5 9.024.5 6 2.976.5 6 .5z"/></g><g fill-rule="nonzero"><use fill="#DADDDF" fill-rule="evenodd" xlink:href="#b"/><path stroke="#838D94" d="M6 3.5c1.374 0 2.5 1.126 2.5 2.5S7.374 8.5 6 8.5 3.5 7.374 3.5 6 4.626 3.5 6 3.5z"/></g></g></svg>
