<svg width="10" height="12" viewBox="0 0 10 12" xmlns="http://www.w3.org/2000/svg" xmlns:xlink="http://www.w3.org/1999/xlink"><defs><path d="M4 8L1.486 9.21c-.3.18-.486.505-.486.856V12h10v-1.934c0-.352-.184-.677-.486-.857L8 8H4z" id="a"/><path d="M3 3c0-1.657 1.343-3 3-3s3 1.343 3 3c0 2.5-1.343 4-3 4S3 5.5 3 3z" id="b"/></defs><g fill="none" fill-rule="evenodd"><path d="M-1 0h12v12H-1z"/><g transform="translate(-1)"><use fill="#FFF" xlink:href="#a"/><path stroke="#838D94" d="M4.114 8.5h3.772l2.412 1.16c.11.068.202.23.202.406V11.5h-9v-1.434c0-.175.092-.338.243-.43L4.113 8.5z"/></g><g transform="translate(-1)"><use fill="#DADDDF" xlink:href="#b"/><path stroke="#838D94" d="M3.5 3C3.5 1.62 4.62.5 6 .5S8.5 1.62 8.5 3c0 2.146-1.07 3.5-2.5 3.5S3.5 5.146 3.5 3z"/></g></g></svg>
