<svg width="12" height="12" viewBox="0 0 12 12" xmlns="http://www.w3.org/2000/svg" xmlns:xlink="http://www.w3.org/1999/xlink"><defs><path d="M10 .688C10 .275 9.714 0 9.286 0H2.714C2.286 0 2 .275 2 .688V12h8V.687z" id="a"/><path d="M5 5.688V12H0V5.687C0 5.276.286 5 .714 5h3.572c.428 0 .714.275.714.688zm7-2V12H7V3.687C7 3.276 7.286 3 7.714 3h3.572c.428 0 .714.275.714.688z" id="b"/></defs><g fill="none" fill-rule="evenodd"><path d="M0 0h12v12H0z"/><g fill-rule="nonzero"><use fill="#DADDDF" fill-rule="evenodd" xlink:href="#a"/><path stroke="#838D94" d="M9.5 11.5h-7V.687c0-.13.058-.187.214-.187h6.572c.156 0 .214.056.214.188V11.5z"/></g><g fill-rule="nonzero"><use fill="#FFF" fill-rule="evenodd" xlink:href="#b"/><path stroke="#838D94" d="M4.5 11.5h-4V5.687c0-.13.058-.187.214-.187h3.572c.156 0 .214.056.214.188V11.5zm7 0h-4V3.687c0-.13.058-.187.214-.187h3.572c.156 0 .214.056.214.188V11.5z"/></g></g></svg>
