<svg width="12" height="12" viewBox="0 0 12 12" xmlns="http://www.w3.org/2000/svg" xmlns:xlink="http://www.w3.org/1999/xlink"><title>Global/Icons/12/phone</title><defs><path d="M0 1.002C0 .45.453 0 .997 0h6.006C7.553 0 8 .456 8 1.002v9.996C8 11.55 7.547 12 7.003 12H.997C.447 12 0 11.544 0 10.998V1.002z" id="a"/><path d="M0 8h8v2.99c0 .56-.453 1.01-.997 1.01H.997C.447 12 0 11.557 0 10.99V8z" id="b"/></defs><g fill="none" fill-rule="evenodd"><path d="M-2 0h12v12H-2z"/><use fill="#FFF" xlink:href="#a"/><path stroke="#838D94" d="M.5 1.002v9.996c0 .274.226.502.497.502h6.006c.27 0 .497-.227.497-.502V1.002C7.5.728 7.274.5 7.003.5H.997C.727.5.5.727.5 1.002z"/><g><use fill-opacity=".8" fill="#D1D5D7" xlink:href="#b"/><path stroke="#838D94" d="M.5 8.5v2.49c0 .288.22.51.497.51h6.006c.27 0 .497-.23.497-.51V8.5h-7z"/></g></g></svg>
