<svg width="10" height="12" viewBox="0 0 10 12" xmlns="http://www.w3.org/2000/svg" xmlns:xlink="http://www.w3.org/1999/xlink"><defs><path d="M5.5 11.082c-.07-.07-3-2.61-3-2.682C1.5 7.553 1 6.282 1 4.94 1 2.19 3.214 0 6 0s5 2.188 5 4.94c0 1.342-.5 2.613-1.5 3.53-.07.07-2.93 2.612-3 2.683-.286.212-.714.212-1-.07z" id="a"/><ellipse id="b" cx="6" cy="4.941" rx="1.19" ry="1.176"/></defs><g fill="none" fill-rule="evenodd"><path d="M-1 0h12v12H-1z"/><g fill-rule="nonzero" transform="translate(-1)"><use fill="#FFF" fill-rule="evenodd" xlink:href="#a"/><path stroke="#838D94" d="M3 8.222c.013.033 0 .068 0 .178v-.178zm0-.024v-.03l-.177-.15C1.97 7.295 1.5 6.185 1.5 4.94 1.5 2.467 3.49.5 6 .5s4.5 1.966 4.5 4.44c0 1.24-.468 2.364-1.338 3.162-.033.032-.49.44-1.495 1.337-1.19 1.06-1.478 1.318-1.518 1.357-.052.032-.203.024-.3-.07-.03-.03-1.21-1.065-1.52-1.337l-.026-.024c-.422-.37-.76-.673-1.01-.898-.123-.11-.222-.202-.294-.27zm0 0c-.01-.01-.02-.02-.03-.027-.035-.033-.06-.06-.075-.074.067.07.095.098.105.126v-.024z"/></g><g fill-rule="nonzero" transform="translate(-1)"><use fill="#DADDDF" fill-rule="evenodd" xlink:href="#b"/><ellipse stroke="#838D94" cx="6" cy="4.941" rx="1.69" ry="1.676"/></g></g></svg>
