<svg width="12" height="12" viewBox="0 0 12 12" xmlns="http://www.w3.org/2000/svg" xmlns:xlink="http://www.w3.org/1999/xlink"><defs><path d="M0 2.01C0 .9.902 0 2.01 0h7.98C11.1 0 12 .902 12 2.01v7.98C12 11.1 11.098 12 9.99 12H2.01C.9 12 0 11.098 0 9.99V2.01z" id="a"/></defs><g fill="none" fill-rule="evenodd"><path d="M0 0h12v12H0z"/><g><use fill="#FFF" xlink:href="#a"/><path stroke="#838D94" d="M.5 2.01C.5 1.175 1.177.5 2.01.5h7.98c.834 0 1.51.677 1.51 1.51v7.98c0 .834-.677 1.51-1.51 1.51H2.01C1.175 11.5.5 10.823.5 9.99V2.01z"/></g><path d="M6.5 1.5v9" stroke="#838D94" stroke-linecap="square"/><path fill="#838D94" d="M8 5h2L9 3M8 7h2L9 9"/></g></svg>
