<svg width="12" height="12" viewBox="0 0 12 12" xmlns="http://www.w3.org/2000/svg" xmlns:xlink="http://www.w3.org/1999/xlink"><defs><path d="M11.775 5.475L6.525.225C6.375.075 6.225 0 6 0H2.25c-.225 0-.375.075-.525.225l-1.5 1.5c-.15.15-.225.3-.225.525V6c0 .225.075.375.225.525l5.25 5.25c.15.15.3.225.525.225.225 0 .375-.075.525-.225l5.25-5.25c.3-.3.3-.75 0-1.05z" id="a"/></defs><g fill="none" fill-rule="evenodd"><path d="M0 0h12v12H0z"/><g fill-rule="nonzero"><use fill="#FFF" fill-rule="evenodd" xlink:href="#a"/><path stroke="#838D94" d="M11.42 5.83c.106.103.106.237 0 .34l-5.25 5.25c-.065.068-.092.08-.17.08-.078 0-.105-.012-.17-.08L.58 6.17C.51 6.106.5 6.08.5 6V2.25c0-.078.012-.105.08-.17l1.5-1.5C2.144.51 2.17.5 2.25.5H6c.078 0 .105.012.17.08l5.25 5.25z"/></g><path d="M3 4c-.6 0-1-.4-1-1s.4-1 1-1 1 .4 1 1-.4 1-1 1z" fill="#838D94"/></g></svg>
