<svg width="12" height="12" viewBox="0 0 12 12" xmlns="http://www.w3.org/2000/svg"><g fill="none" fill-rule="evenodd"><path d="M0 0h12v12H0z"/><path d="M6 0C2.7 0 0 2.7 0 6s2.7 6 6 6 6-2.7 6-6-2.7-6-6-6z" fill="#838D94" fill-rule="nonzero"/><path d="M5.847 11c-1.25 0-2.333-.417-3.25-1.167.5-.666.583-1.5.083-2.166C2.264 7.083 1.597 6.5 1.597 6c0-.667 1.583-.917 2.083-1.583.584-.667 0-1.917-.583-2.584.667-.416 1.417-.75 2.333-.833.167.417.75.917 1 1.25.417.667.5 1.083 1.084 1.083.166 0 1.666 0 2.5-.25.5.834.986 1.834.986 2.917 0 2.75-2.403 5-5.153 5zM7.65 5.025c-.9 0-1.725.6-1.65 1.425.225 1.875-.375 2.55.45 2.925.975.375 2.925-1.425 2.85-2.925 0-.825-.675-1.425-1.65-1.425z" fill="#FFF"/></g></svg>
