<svg width="12" height="10" viewBox="0 0 12 10" xmlns="http://www.w3.org/2000/svg"><title>Global/Icons/12/twitter</title><g fill="none" fill-rule="evenodd"><path d="M0-1h12v12H0z"/><path d="M7.92 1.282c.59 0 1.12.237 1.496.617.466-.09.905-.25 1.3-.474-.152.455-.477.838-.9 1.08.414-.048.81-.153 1.177-.31-.275.393-.622.737-1.022 1.013.004.082.006.167.006.25 0 2.583-1.696 5.57-5.467 5.57-1.504 0-2.602-.335-3.508-.89.16.02.323.03.49.03.96 0 1.843-.313 2.545-.838-.898-.015-1.655-.58-1.915-1.356.125.023.254.035.386.035.186 0 .368-.023.54-.067-.938-.18-1.56-.962-1.56-1.91V4.01c.276.145.59.233.928.243-.55-.35-.912-.947-.912-1.626 0-.357.1-.693.278-.98 1.01 1.18 2.437 1.952 4.14 2.033-.035-.142-.053-.293-.053-.444 0-1.08.917-1.954 2.05-1.954zm3.073.915h.003-.003zM7.92.313c-1.44 0-2.65.958-2.97 2.244-.925-.245-1.74-.763-2.397-1.53-.19-.222-.475-.35-.77-.35-.027 0-.054 0-.08.003-.325.025-.617.2-.784.472C.645 1.598.5 2.108.5 2.627c0 .3.047.59.137.867-.1.152-.154.33-.154.515v.024c0 .697.235 1.336.64 1.836-.015.134-.002.272.043.404.113.34.288.65.51.92-.062.004-.126.005-.19.005-.13 0-.252-.007-.366-.02-.04-.006-.082-.008-.123-.008-.417 0-.798.254-.942.643-.157.427.013.903.408 1.145C1.61 9.66 2.933 10 4.51 10c2.565 0 4.094-1.183 4.925-2.176.937-1.12 1.492-2.622 1.54-4.15.31-.265.585-.566.823-.898.125-.16.198-.362.198-.58 0-.26-.108-.5-.283-.674.033-.322-.102-.644-.37-.85-.18-.143-.404-.216-.627-.216-.174 0-.348.045-.506.133-.174.098-.36.18-.55.244C9.15.5 8.543.314 7.92.314z" fill="#838D94"/><path d="M7.92 1.282c.59 0 1.12.237 1.496.617.466-.09.905-.25 1.3-.474-.152.455-.477.838-.9 1.08.414-.048.81-.153 1.177-.31-.275.393-.622.737-1.022 1.013.004.082.006.167.006.25 0 2.583-1.696 5.57-5.467 5.57-1.504 0-2.602-.335-3.508-.89.16.02.323.03.49.03.96 0 1.843-.313 2.545-.838-.898-.015-1.655-.58-1.915-1.356.125.023.254.035.386.035.186 0 .368-.023.54-.067-.938-.18-1.56-.962-1.56-1.91V4.01c.276.145.59.233.928.243-.55-.35-.912-.947-.912-1.626 0-.357.1-.693.278-.98 1.01 1.18 2.437 1.952 4.14 2.033-.035-.142-.053-.293-.053-.444 0-1.08.917-1.954 2.05-1.954z" fill="#FFF"/></g></svg>
