<svg width="12" height="12" viewBox="0 0 12 12" xmlns="http://www.w3.org/2000/svg"><g fill="none" fill-rule="evenodd"><path d="M0 0h12v12H0z"/><path d="M3.375 3.375L4.95 4.95l-4.8.525.525-4.8 1.65 1.65C4.425.3 7.725.3 9.75 2.325c.75.75 1.275 1.725 1.425 2.85l-1.5.225c-.15-.75-.525-1.5-1.05-2.025C7.2 1.95 4.8 1.95 3.375 3.375zm8.475 3.15l-.6 4.8-1.65-1.65c-.975.975-2.325 1.5-3.675 1.5-1.35 0-2.625-.45-3.675-1.5C1.5 8.925.975 7.95.825 6.825l1.5-.225c.15.75.525 1.5 1.05 2.025 1.425 1.425 3.825 1.425 5.25 0L7.05 7.05l4.8-.525z" fill="#838D94" fill-rule="nonzero"/></g></svg>
