<?xml version="1.0" encoding="UTF-8" standalone="no"?>
<svg width="14px" height="13px" viewBox="0 0 14 13" version="1.1" xmlns="http://www.w3.org/2000/svg" xmlns:xlink="http://www.w3.org/1999/xlink" xmlns:sketch="http://www.bohemiancoding.com/sketch/ns">
    <!-- Generator: Sketch 3.3.1 (12002) - http://www.bohemiancoding.com/sketch -->
    <title>icon-attach</title>
    <desc>Created with Sketch.</desc>
    <defs></defs>
    <g id="✴️-Cases" stroke="none" stroke-width="1" fill="none" fill-rule="evenodd" sketch:type="MSPage">
        <g id="-[SCN]-Case-New" sketch:type="MSArtboardGroup" transform="translate(-589.000000, -258.000000)" fill="#5F6C73">
            <g id="case-text-area-header" sketch:type="MSLayerGroup" transform="translate(41.000000, 239.000000)">
                <path d="M552.404433,31.6427031 C551.276198,31.6427031 550.147139,31.2185781 549.288198,30.3719531 C548.457257,29.5505156 547.998551,28.4593281 547.998551,27.2974531 C547.998551,26.1363906 548.457257,25.0452031 549.288198,24.2237656 L553.655374,19.9150781 C554.892316,18.6947031 556.903374,18.6955156 558.140316,19.9142656 C559.37561,21.1346406 559.37561,23.1187656 558.140316,24.3391406 L553.773139,28.6470156 C553.017963,29.3937031 551.79008,29.3920781 551.035727,28.6470156 C550.280551,27.9035781 550.280551,26.6921406 551.035727,25.9478906 L555.40208,21.6392031 C555.676316,21.3694531 556.119374,21.3694531 556.392786,21.6392031 C556.666198,21.9081406 556.666198,22.3460781 556.392786,22.6150156 L552.02561,26.9237031 C551.817257,27.1300781 551.817257,27.4648281 552.02561,27.6712031 C552.233963,27.8751406 552.573257,27.8767656 552.782433,27.6712031 L557.14961,23.3625156 C557.840551,22.6808281 557.840551,21.5725781 557.14961,20.8908906 C556.460316,20.2108281 555.336198,20.2100156 554.64608,20.8908906 L550.278904,25.2003906 C549.710668,25.7610156 549.397727,26.5060781 549.397727,27.2974531 C549.397727,28.0904531 549.710668,28.8347031 550.278904,29.3953281 C551.449139,30.5507031 553.353963,30.5507031 554.525845,29.3985781 L554.529139,29.3953281 L554.529139,29.3945156 L560.644668,23.3625156 C560.91808,23.0927656 561.360316,23.0927656 561.633727,23.3625156 C561.907139,23.6314531 561.907139,24.0693906 561.633727,24.3391406 L555.228316,30.6587656 L555.214316,30.6457656 C554.402316,31.3103906 553.403374,31.6427031 552.404433,31.6427031" id="icon-attach" sketch:type="MSShapeGroup"></path>
            </g>
        </g>
    </g>
</svg>