<?xml version="1.0" encoding="UTF-8" standalone="no"?>
<svg width="16px" height="16px" viewBox="0 0 16 16" version="1.1" xmlns="http://www.w3.org/2000/svg" xmlns:xlink="http://www.w3.org/1999/xlink" xmlns:sketch="http://www.bohemiancoding.com/sketch/ns">
    <!-- Generator: Sketch 3.3.2 (12043) - http://www.bohemiancoding.com/sketch -->
    <title>Imported Layers</title>
    <desc>Created with Sketch.</desc>
    <defs></defs>
    <g id="✴️-Organization" stroke="none" stroke-width="1" fill="none" fill-rule="evenodd" sketch:type="MSPage">
        <g id="Organization" sketch:type="MSArtboardGroup" transform="translate(-724.000000, -673.000000)" fill="#838D94">
            <g id="comp-contact-info" sketch:type="MSLayerGroup" transform="translate(724.000000, 613.000000)">
                <path d="M15,60 L1.001,60 C0.451,60 0,60.45 0,61 L0,75 C0,75.55 0.451,76 1.001,76 L15,76 C15.55,76 16,75.55 16,75 L16,61 C16,60.45 15.55,60 15,60 L15,60 Z M11.993,65.992 C11.998,66.078 12.001,66.166 12.001,66.254 C12.001,68.923 9.972,72 6.256,72 C5.116,72 4.058,71.664 3.164,71.093 C3.322,71.112 3.49,71.121 3.653,71.121 C4.599,71.121 5.484,70.797 6.175,70.256 C5.291,70.24 4.573,69.656 4.317,68.854 C4.44,68.877 4.622,68.891 4.753,68.891 C4.937,68.891 5.227,68.865 5.397,68.819 C4.473,68.633 4,67.817 4,66.84 L4,66.813 C4,66.965 4.36,67.056 4.691,67.066 C4.149,66.703 3.569,66.086 3.569,65.385 C3.569,65.016 3.669,64.668 3.843,64.37 C4.839,65.592 6.327,66.397 8.005,66.481 C7.97,66.332 7.953,66.178 7.953,66.02 C7.953,64.904 8.856,64 9.972,64 C10.553,64 11.077,64.245 11.446,64.639 C11.906,64.548 12.338,64.38 12.729,64.148 C12.577,64.62 12.257,65.016 11.841,65.266 C12.249,65.216 12.638,65.108 13,64.948 C12.73,65.352 12.389,65.707 11.993,65.992 L11.993,65.992 Z" id="Imported-Layers" sketch:type="MSShapeGroup"></path>
            </g>
        </g>
    </g>
</svg>