<?xml version="1.0" encoding="UTF-8" standalone="no"?>
<svg width="16px" height="16px" viewBox="0 0 16 16" version="1.1" xmlns="http://www.w3.org/2000/svg" xmlns:xlink="http://www.w3.org/1999/xlink" xmlns:sketch="http://www.bohemiancoding.com/sketch/ns">
    <!-- Generator: Sketch 3.3.2 (12043) - http://www.bohemiancoding.com/sketch -->
    <title>Imported Layers</title>
    <desc>Created with Sketch.</desc>
    <defs></defs>
    <g id="✴️-Organization" stroke="none" stroke-width="1" fill="none" fill-rule="evenodd" sketch:type="MSPage">
        <g id="Organization" sketch:type="MSArtboardGroup" transform="translate(-724.000000, -720.000000)" fill="#838D94">
            <g id="comp-contact-info" sketch:type="MSLayerGroup" transform="translate(724.000000, 613.000000)">
                <path d="M15,107 L1,107 C0.45,107 0,107.45 0,108 L0,122 C0,122.55 0.45,123 1,123 L15,123 C15.55,123 16,122.55 16,122 L16,108 C16,107.45 15.55,107 15,107 L15,107 Z M11,112 L10,112 C9.151,112 9,112 9,114 L11,114 L11,116 L9,116 L9,120 L7,120 L7,116 L5,116 L5,114 L7,114 C7,112.469 7,110 10,110 L11,110 L11,112 L11,112 Z" id="Imported-Layers" sketch:type="MSShapeGroup"></path>
            </g>
        </g>
    </g>
</svg>