<?xml version="1.0" encoding="UTF-8" standalone="no"?>
<svg width="16px" height="16px" viewBox="0 0 16 16" version="1.1" xmlns="http://www.w3.org/2000/svg" xmlns:xlink="http://www.w3.org/1999/xlink" xmlns:sketch="http://www.bohemiancoding.com/sketch/ns">
    <!-- Generator: Sketch 3.3.2 (12043) - http://www.bohemiancoding.com/sketch -->
    <title>Imported Layers</title>
    <desc>Created with Sketch.</desc>
    <defs></defs>
    <g id="✴️-Organization" stroke="none" stroke-width="1" fill="none" fill-rule="evenodd" sketch:type="MSPage">
        <g id="Organization" sketch:type="MSArtboardGroup" transform="translate(-724.000000, -751.000000)" fill="#838D94">
            <g id="comp-contact-info" sketch:type="MSLayerGroup" transform="translate(724.000000, 613.000000)">
                <path d="M16,139 C16,138.448 15.552,138 15,138 L1,138 C0.448,138 0,138.448 0,139 L0,153 C0,153.552 0.448,154 1,154 L15,154 C15.552,154 16,153.552 16,153 L16,139 L16,139 Z M13,149.333 C13,149.703 12.721,150 12.374,150 L3.625,150 C3.278,150 3,149.703 3,149.333 L3,143.864 L8,147.864 L13,143.864 L13,149.333 L13,149.333 Z M8,146.666 L3,142.666 C3,142.296 3.653,142 4,142 L12,142 C12.347,142 13,142.296 13,142.666 L8,146.666 L8,146.666 Z" id="Imported-Layers" sketch:type="MSShapeGroup"></path>
            </g>
        </g>
    </g>
</svg>