<?xml version="1.0" encoding="UTF-8" standalone="no"?>
<svg width="16px" height="13px" viewBox="0 0 16 13" version="1.1" xmlns="http://www.w3.org/2000/svg" xmlns:xlink="http://www.w3.org/1999/xlink" xmlns:sketch="http://www.bohemiancoding.com/sketch/ns">
    <!-- Generator: Sketch 3.3.1 (12002) - http://www.bohemiancoding.com/sketch -->
    <title>icon-cc</title>
    <desc>Created with Sketch.</desc>
    <defs></defs>
    <g id="✴️-Cases" stroke="none" stroke-width="1" fill="none" fill-rule="evenodd" sketch:type="MSPage">
        <g id="-[SCN]-Case-New" sketch:type="MSArtboardGroup" transform="translate(-623.000000, -258.000000)" fill="#5F6C73">
            <g id="case-text-area-header" sketch:type="MSLayerGroup" transform="translate(41.000000, 239.000000)">
                <path d="M590.702409,32 C590.645984,30.8472727 590.41273,30.3036364 589.832168,30.1818182 C587.931682,29.8636364 587.738615,29.1454545 588.091686,28.3636364 C587.738615,27.5727273 588.192018,27.7636364 588.091686,26.5454545 C588.489918,26.2363636 588.890905,26.6718182 588.961927,25.6363636 C588.969529,25.2454545 588.743265,25.1454545 588.961927,24.7272727 C588.743265,25.1454545 588.829752,24.5363636 588.961927,23.8181818 C588.925849,23.5 588.969529,22 586.351204,22 C584.202248,22 583.801262,23.5 583.740482,23.8181818 C583.906095,24.5363636 584.019664,25.1454545 583.740482,24.7272727 C584.019664,25.1454545 583.792526,25.2454545 583.740482,25.6363636 C583.87115,26.6718182 584.290482,26.2363636 584.610723,26.5454545 C584.587509,27.7636364 585.058384,27.5727273 585.480963,28.3636364 C585.058384,29.1454545 584.797175,29.8636364 582.870241,30.1818182 C582.315254,30.3036364 582.063654,30.8472727 582,32 C581.979788,31.7963636 582.180718,32 582,32 L590.702409,32 C590.520184,32 590.721114,31.7963636 590.702409,32 Z M598,29 C597.943565,27.8472727 597.711165,27.3036364 597.129759,27.1818182 C595.229032,26.8636364 595.036822,26.1454545 595.389277,25.3636364 C595.036822,24.5727273 595.490263,24.7636364 595.389277,23.5454545 C595.787316,23.2363636 596.18921,23.6718182 596.259518,22.6363636 C596.267841,22.2454545 596.040684,22.1454545 596.259518,21.7272727 C596.040684,22.1454545 596.127178,21.5363636 596.259518,20.8181818 C596.224157,20.5 596.267841,19 593.648796,19 C591.500154,19 591.098259,20.5 591.038073,20.8181818 C591.203101,21.5363636 591.31668,22.1454545 591.038073,21.7272727 C591.31668,22.1454545 591.089523,22.2454545 591.038073,22.6363636 C591.168154,23.6718182 591.587522,23.2363636 591.908314,23.5454545 C591.884574,24.7636364 592.355489,24.5727273 592.778555,25.3636364 C592.355489,26.1454545 592.094258,26.8636364 590.167832,27.1818182 C589.612999,27.3036364 589.360504,27.8472727 589.297591,29 C589.276631,28.7954545 589.477578,29 589.297591,29 L598,29 C597.818628,29 598.018702,28.7954545 598,29 Z" id="icon-cc" sketch:type="MSShapeGroup"></path>
            </g>
        </g>
    </g>
</svg>