<?xml version="1.0" encoding="UTF-8" standalone="no"?>
<svg width="9px" height="9px" viewBox="0 0 9 9" version="1.1" xmlns="http://www.w3.org/2000/svg" xmlns:xlink="http://www.w3.org/1999/xlink" xmlns:sketch="http://www.bohemiancoding.com/sketch/ns">
    <!-- Generator: Sketch 3.3.2 (12043) - http://www.bohemiancoding.com/sketch -->
    <title>Fill 804</title>
    <desc>Created with Sketch.</desc>
    <defs></defs>
    <g id="âœ´ï¸-Cases" stroke="none" stroke-width="1" fill="none" fill-rule="evenodd" sketch:type="MSPage">
        <g id="ðŸ”’popover--cc" sketch:type="MSArtboardGroup" transform="translate(-291.000000, -1139.000000)" fill="#838D94">
            <g id="Group" sketch:type="MSLayerGroup" transform="translate(12.000000, 1013.000000)">
                <g transform="translate(11.000000, 116.000000)" id="Fill-804" sketch:type="MSShapeGroup">
                    <path d="M275.925,16.51025 L273.45,14.03525 L275.925,11.56025 C276.121,11.36525 276.121,11.04925 275.925,10.85325 L275.218,10.14625 C275.022,9.95125 274.706,9.95125 274.511,10.14625 L272.036,12.62125 L269.561,10.14625 C269.366,9.95125 269.05,9.95125 268.854,10.14625 L268.147,10.85325 C267.951,11.04925 267.951,11.36525 268.147,11.56025 L270.622,14.03525 L268.147,16.51025 C267.951,16.70525 267.951,17.02125 268.147,17.21725 L268.854,17.92425 C269.05,18.11925 269.366,18.11925 269.561,17.92425 L272.036,15.44925 L274.511,17.92425 C274.706,18.11925 275.022,18.11925 275.218,17.92425 L275.925,17.21725 C276.121,17.02125 276.121,16.70525 275.925,16.51025"></path>
                </g>
            </g>
        </g>
    </g>
</svg>