<?xml version="1.0" encoding="UTF-8" standalone="no"?>
<svg width="13px" height="13px" viewBox="0 0 13 13" version="1.1" xmlns="http://www.w3.org/2000/svg" xmlns:xlink="http://www.w3.org/1999/xlink" xmlns:sketch="http://www.bohemiancoding.com/sketch/ns">
    <!-- Generator: Sketch 3.3.1 (12002) - http://www.bohemiancoding.com/sketch -->
    <title>icon-link</title>
    <desc>Created with Sketch.</desc>
    <defs></defs>
    <g id="✴️-Cases" stroke="none" stroke-width="1" fill="none" fill-rule="evenodd" sketch:type="MSPage">
        <g id="-[SCN]-Case-New" sketch:type="MSArtboardGroup" transform="translate(-496.000000, -259.000000)" fill="#5F6C73">
            <g id="case-text-area-header" sketch:type="MSLayerGroup" transform="translate(41.000000, 239.000000)">
                <g id="wysiwyg-icons" transform="translate(281.000000, 19.000000)" sketch:type="MSShapeGroup">
                    <path d="M180.185355,10.7973311 C179.955404,10.7331396 179.783143,10.6543221 179.650697,10.7867679 C179.58163,10.8558347 178.669136,11.7699544 178.669136,11.7699544 C177.998781,12.4403088 176.900213,12.4403088 176.229046,11.7699544 C175.558691,11.0987874 175.558691,10.0002188 176.229046,9.32986437 L178.669136,6.88977436 C179.33949,6.21941996 180.438871,6.21941996 181.109226,6.88977436 C181.443997,7.22535783 181.993281,7.22535783 182.328864,6.88977436 C182.663635,6.55500344 182.663635,6.00571911 182.328864,5.67013563 C182.115164,5.45724733 181.890087,5.28092381 181.639009,5.14035252 C181.503313,5.05909744 181.364367,4.98921808 181.220545,4.92827677 C181.21567,4.92665167 181.209982,4.92502656 181.205107,4.92258891 C180.800456,4.75520345 180.37468,4.66663541 179.94484,4.66013501 C179.929402,4.65850991 179.914776,4.66176011 179.90015,4.66257266 C179.341115,4.66013501 178.783705,4.79014313 178.279111,5.06072255 C177.974405,5.2183574 177.700575,5.42068254 177.449497,5.67013563 L175.009407,8.11022564 C173.662198,9.45743484 173.662198,11.6407588 175.009407,12.9895931 C176.358241,14.3368023 178.541565,14.3368023 179.888774,12.9895931 L181.660948,11.2166073 C181.829146,11.0475967 181.773892,10.94034 181.536627,10.9509032 C181.082411,10.971217 180.624133,10.9184012 180.185355,10.7973311 Z M179.298862,3.82239515 C179.129852,3.99059316 179.18348,4.09622476 179.421558,4.0840365 C179.875774,4.06209763 180.334052,4.11247578 180.775267,4.2359835 C181.003594,4.30261266 181.191293,4.36924183 181.310738,4.24898431 C181.38143,4.17747984 182.328864,3.23004563 182.328864,3.23004563 C182.999219,2.55969123 184.097787,2.55969123 184.768954,3.23004563 C185.439309,3.90121258 185.439309,4.99978124 184.768954,5.67013563 L182.328864,8.11022564 C181.65851,8.78058004 180.559129,8.78058004 179.888774,8.11022564 C179.554003,7.77464217 179.004719,7.77464217 178.669136,8.11022564 C178.334365,8.44499656 178.334365,8.99428089 178.669136,9.32986437 C179.090849,9.75076567 179.596256,10.0367835 180.121164,10.195231 C180.224358,10.2252953 180.334865,10.2504844 180.431558,10.2748609 C180.553441,10.2984249 180.663948,10.3114257 180.773642,10.323614 C180.895525,10.3358022 181.023095,10.3423026 181.152291,10.3358022 C181.285549,10.3358022 181.413932,10.3301144 181.541503,10.3114257 C181.621133,10.3049253 181.694262,10.292737 181.77308,10.2756735 C182.42637,10.1464779 183.047972,9.8295831 183.548503,9.32986437 L185.988593,6.88977436 C187.335802,5.54256516 187.335802,3.3592412 185.988593,2.0104069 C184.639759,0.6631977 182.456435,0.6631977 181.109226,2.0104069 L179.298862,3.82239515 Z" id="icon-link"></path>
                </g>
            </g>
        </g>
    </g>
</svg>