<?xml version="1.0" encoding="UTF-8" standalone="no"?>
<svg width="14px" height="10px" viewBox="0 0 14 10" version="1.1" xmlns="http://www.w3.org/2000/svg" xmlns:xlink="http://www.w3.org/1999/xlink" xmlns:sketch="http://www.bohemiancoding.com/sketch/ns">
    <!-- Generator: Sketch 3.3.1 (12002) - http://www.bohemiancoding.com/sketch -->
    <title>icon-list-bullet</title>
    <desc>Created with Sketch.</desc>
    <defs></defs>
    <g id="✴️-Cases" stroke="none" stroke-width="1" fill="none" fill-rule="evenodd" sketch:type="MSPage">
        <g id="-[SCN]-Case-New" sketch:type="MSArtboardGroup" transform="translate(-386.000000, -260.000000)" fill="#5F6C73">
            <g id="case-text-area-header" sketch:type="MSLayerGroup" transform="translate(41.000000, 239.000000)">
                <g id="wysiwyg-icons" transform="translate(281.000000, 19.000000)" sketch:type="MSShapeGroup">
                    <path d="M65.5,2 L64.5,2 C64.224,2 64,2.224 64,2.5 L64,3.5 C64,3.776 64.224,4 64.5,4 L65.5,4 C65.776,4 66,3.776 66,3.5 L66,2.5 C66,2.224 65.776,2 65.5,2 Z M77.5769231,2 L67.4230769,2 C67.1895385,2 67,2.224 67,2.5 L67,3.5 C67,3.776 67.1895385,4 67.4230769,4 L77.5769231,4 C77.8104615,4 78,3.776 78,3.5 L78,2.5 C78,2.224 77.8104615,2 77.5769231,2 Z M65.5,6 L64.5,6 C64.224,6 64,6.224 64,6.5 L64,7.5 C64,7.776 64.224,8 64.5,8 L65.5,8 C65.776,8 66,7.776 66,7.5 L66,6.5 C66,6.224 65.776,6 65.5,6 Z M67.5,8 L75.5,8 C75.776,8 76,7.776 76,7.5 L76,6.5 C76,6.224 75.776,6 75.5,6 L67.5,6 C67.224,6 67,6.224 67,6.5 L67,7.5 C67,7.776 67.224,8 67.5,8 Z M65.5,10 L64.5,10 C64.224,10 64,10.224 64,10.5 L64,11.5 C64,11.776 64.224,12 64.5,12 L65.5,12 C65.776,12 66,11.776 66,11.5 L66,10.5 C66,10.224 65.776,10 65.5,10 Z M77.5,10 L67.5,10 C67.224,10 67,10.224 67,10.5 L67,11.5 C67,11.776 67.224,12 67.5,12 L77.5,12 C77.776,12 78,11.776 78,11.5 L78,10.5 C78,10.224 77.776,10 77.5,10 Z" id="icon-list-bullet"></path>
                </g>
            </g>
        </g>
    </g>
</svg>