<?xml version="1.0" encoding="UTF-8" standalone="no"?>
<svg width="75px" height="75px" viewBox="0 0 75 75" version="1.1" xmlns="http://www.w3.org/2000/svg" xmlns:xlink="http://www.w3.org/1999/xlink" xmlns:sketch="http://www.bohemiancoding.com/sketch/ns">
    <!-- Generator: Sketch 3.3.1 (12002) - http://www.bohemiancoding.com/sketch -->
    <title>Rectangle 542 Copy 2 + Fill 786</title>
    <desc>Created with Sketch.</desc>
    <defs></defs>
    <g id="-✴️-View-Patterns" stroke="none" stroke-width="1" fill="none" fill-rule="evenodd" sketch:type="MSPage">
        <g id="Page-Header--agent:dropdown-Copy" sketch:type="MSArtboardGroup" transform="translate(-895.000000, -78.000000)">
            <g id="Rectangle-542-Copy-2-+-Fill-786" sketch:type="MSLayerGroup" transform="translate(895.000000, 78.000000)">
                <rect id="Rectangle-542-Copy-2" fill="#EBEEF0" sketch:type="MSShapeGroup" x="0" y="0" width="75" height="75" rx="2"></rect>
                <path d="M51,27 L39,27 L39,23 C39,21.894 38.106,21 37,21 L23,21 C21.894,21 21,21.894 21,23 L21,51 C21,52.106 21.894,53 23,53 L51,53 C52.106,53 53,52.106 53,51 L53,29 C53,27.894 52.106,27 51,27 L51,27 Z M25,37 L29,37 L29,41 L25,41 L25,37 Z M25,31 L29,31 L29,35 L25,35 L25,31 Z M25,25 L29,25 L29,29 L25,29 L25,25 Z M31,37 L35,37 L35,41 L31,41 L31,37 Z M31,31 L35,31 L35,35 L31,35 L31,31 Z M31,25 L35,25 L35,29 L31,29 L31,25 Z M39,37 L43,37 L43,41 L39,41 L39,37 Z M39,31 L43,31 L43,35 L39,35 L39,31 Z M45,37 L49,37 L49,41 L45,41 L45,37 Z M45,31 L49,31 L49,35 L45,35 L45,31 Z" id="Fill-786" fill="#BEC4C7" sketch:type="MSShapeGroup"></path>
            </g>
        </g>
    </g>
</svg>