<?xml version="1.0" encoding="UTF-8" standalone="no"?>
<svg width="14px" height="12px" viewBox="0 0 14 12" version="1.1" xmlns="http://www.w3.org/2000/svg" xmlns:xlink="http://www.w3.org/1999/xlink" xmlns:sketch="http://www.bohemiancoding.com/sketch/ns">
    <!-- Generator: Sketch 3.3.1 (12002) - http://www.bohemiancoding.com/sketch -->
    <title>Path Copy</title>
    <desc>Created with Sketch.</desc>
    <defs></defs>
    <g id="✴️-Cases" stroke="none" stroke-width="1" fill="none" fill-rule="evenodd" sketch:type="MSPage">
        <g id="-[SCN]-Case-New" sketch:type="MSArtboardGroup" transform="translate(-530.000000, -260.000000)" fill="#5F6C73">
            <g id="case-text-area-header" sketch:type="MSLayerGroup" transform="translate(41.000000, 239.000000)">
                <g id="wysiwyg-icons" transform="translate(281.000000, 19.000000)" sketch:type="MSShapeGroup">
                    <path d="M210.91523,7.75609677 L210.645116,7.75609677 C209.972829,7.75609677 209.363578,7.4679782 208.817345,6.8917324 C208.271112,6.31548661 207.998,5.6347669 207.998,4.84955286 C207.998,4.03900932 208.271112,3.36145575 208.817345,2.81687182 C209.363578,2.27228788 210.038856,2 210.843199,2 C211.395435,2 211.911647,2.16780532 212.391852,2.503421 C212.872057,2.83903669 213.24421,3.32662197 213.508323,3.96619147 C213.772435,4.60576098 213.90449,5.38779711 213.90449,6.31232332 C213.90449,7.56613285 213.652386,8.74077011 213.148171,9.83627035 C212.643956,10.9317706 212.028703,11.7992925 211.302393,12.438862 C210.576083,13.0784315 209.918813,13.3982114 209.330562,13.3982114 C208.958403,13.3982114 208.655278,13.274732 208.421178,13.0277696 C208.187079,12.7808071 208.07003,12.4800239 208.07003,12.1254111 C208.07003,11.5554977 208.316132,11.1375675 208.808342,10.8716079 C209.444613,10.4790009 209.942818,10.0484061 210.302972,9.5798106 C210.663125,9.11121512 210.867209,8.50331659 210.91523,7.75609677 Z M219.01074,7.75609677 L218.740626,7.75609677 C218.068339,7.75609677 217.459089,7.4679782 216.912856,6.8917324 C216.366623,6.31548661 216.09351,5.6347669 216.09351,4.84955286 C216.09351,4.03900932 216.366623,3.36145575 216.912856,2.81687182 C217.459089,2.27228788 218.134366,2 218.93871,2 C219.490945,2 220.007158,2.16780532 220.487362,2.503421 C220.967567,2.83903669 221.33972,3.32662197 221.603833,3.96619147 C221.867946,4.60576098 222,5.38779711 222,6.31232332 C222,7.56613285 221.747896,8.74077011 221.243681,9.83627035 C220.739466,10.9317706 220.124213,11.7992925 219.397903,12.438862 C218.671593,13.0784315 218.014323,13.3982114 217.426072,13.3982114 C217.053913,13.3982114 216.750788,13.274732 216.516689,13.0277696 C216.282589,12.7808071 216.165541,12.4800239 216.165541,12.1254111 C216.165541,11.5554977 216.411642,11.1375675 216.903852,10.8716079 C217.540123,10.4790009 218.038328,10.0484061 218.398482,9.5798106 C218.758635,9.11121512 218.962719,8.50331659 219.01074,7.75609677 Z" id="Path-Copy"></path>
                </g>
            </g>
        </g>
    </g>
</svg>