<svg width="54" height="58" xmlns="http://www.w3.org/2000/svg" xmlns:xlink="http://www.w3.org/1999/xlink"><defs><path d="M54 26.5V39a2 2 0 0 1-2 2H2a2 2 0 0 1-2-2V26.5C0 18.492 6.492 12 14.5 12h25C47.508 12 54 18.492 54 26.5z" id="a"/><path d="M14 12h2c7.732 0 14 6.268 14 14v15H2a2 2 0 0 1-2-2V26c0-7.732 6.268-14 14-14z" id="b"/></defs><g transform="translate(0 2)" fill="none" fill-rule="evenodd"><path d="M25 43h2v12a1 1 0 0 1-2 0V43zm7 0h2v12a1 1 0 0 1-2 0V43z" fill="#A1AAAF"/><use fill="#FFF" xlink:href="#a"/><path stroke="#A1AAAF" d="M53.5 26.5c0-7.732-6.268-14-14-14h-25c-7.732 0-14 6.268-14 14V39A1.5 1.5 0 0 0 2 40.5h50a1.5 1.5 0 0 0 1.5-1.5V26.5z"/><use fill="#FFF" xlink:href="#b"/><path stroke="#A1AAAF" d="M29.5 40.5V26c0-7.456-6.044-13.5-13.5-13.5h-2C6.544 12.5.5 18.544.5 26v13A1.5 1.5 0 0 0 2 40.5h27.5z"/><rect fill="#A1AAAF" x="11" y="28" width="9" height="2" rx="1"/><path d="M35 0a2.648 2.648 0 0 1 2.628 2.977l-1.504 12.03a1.133 1.133 0 0 1-2.248 0l-1.504-12.03A2.648 2.648 0 0 1 35 0zm0 22a2 2 0 1 1 0-4 2 2 0 0 1 0 4z" stroke="#FFF" stroke-width="4" fill="#FFF"/><path d="M35 0a2.648 2.648 0 0 1 2.628 2.977l-1.504 12.03a1.133 1.133 0 0 1-2.248 0l-1.504-12.03A2.648 2.648 0 0 1 35 0zm0 22a2 2 0 1 1 0-4 2 2 0 0 1 0 4z" stroke="#A1AAAF" fill="#FFF"/></g></svg>
