<svg width="47px" height="44px" viewBox="-1 -1 47 44" version="1.1" xmlns="http://www.w3.org/2000/svg" xmlns:xlink="http://www.w3.org/1999/xlink">
    <g id="bad-normal" stroke="none" stroke-width="1" fill="none" fill-rule="evenodd">
        <path d="M15.780004,24.233043 C15.780004,25.1383548 15.2594297,25.8725914 14.6172515,25.8725914 C13.9750733,25.8725914 13.454499,25.1383548 13.454499,24.233043 C13.454499,23.3277312 13.9750733,22.5934946 14.6172515,22.5934946 C15.2594297,22.5934946 15.780004,23.3277312 15.780004,24.233043" id="Fill-3" fill="#A1AAAF"></path>
        <path d="M34.0465129,24.233043 C34.0465129,25.1383548 33.5259386,25.8725914 32.8837604,25.8725914 C32.2415822,25.8725914 31.7210079,25.1383548 31.7210079,24.233043 C31.7210079,23.3277312 32.2415822,22.5934946 32.8837604,22.5934946 C33.5259386,22.5934946 34.0465129,23.3277312 34.0465129,24.233043" id="Fill-5" fill="#A1AAAF"></path>
        <path d="M13.810202,35.6747882 C13.810202,35.6747882 16.1552911,29.4647559 23.6992911,29.4647559 C31.2437465,29.4647559 33.6904,35.6747882 33.6904,35.6747882" id="Stroke-7" stroke="#A1AAAF" stroke-linecap="round" stroke-linejoin="round"></path>
        <path d="M38.6382238,38.3789333 C38.6291149,38.3881806 38.6154515,38.3928043 38.6063426,38.4020516 C38.410501,38.5453849 38.210105,38.6840946 38.0051545,38.813557 C33.9471347,41.4444172 28.0217881,42.2119441 22.3833723,42.0316215 C16.6994119,42.2119441 10.7285208,41.4351699 6.66594653,38.7488258 C6.48376832,38.6332344 6.3015901,38.5083957 6.12852079,38.3789333 C6.10119406,38.3604387 6.07386733,38.3373204 6.04654059,38.3142022 C-3.1944495,31.4018366 -1.27702376,11.2242022 10.7194119,3.61828817 C14.850303,1.00129892 18.8764416,0.178288172 22.3833723,0.233772043 C25.890303,0.178288172 29.9164416,1.00129892 34.0473327,3.61828817 C46.080204,11.2473204 47.9748574,31.5220516 38.6382238,38.3789333 L38.6382238,38.3789333 Z" id="Stroke-1-Copy" stroke="#A1AAAF"></path>
    </g>
</svg>
