<svg width="33px" height="33px" viewBox="0 0 33 33" version="1.1" xmlns="http://www.w3.org/2000/svg" xmlns:xlink="http://www.w3.org/1999/xlink">
  <g>
    <path d="M0,16 C0,7.163444 7.16150109,0 16,0 L16,0 C24.836556,0 32,7.16150109 32,16 L32,16 C32,24.836556 24.8384989,32 16,32 L16,32 C7.163444,32 0,24.8384989 0,16 L0,16 Z" fill="#EBEEF0"></path>
    <path d="M22,14 L21,14 L21,12 C21,9.238 18.762,7 16,7 C13.238,7 11,9.238 11,12 L11,14 L10,14 C9.447,14 9,14.547 9,15.1 L9,22 C9,22.553 9.447,23 10,23 L22,23 C22.553,23 23,22.553 23,22 L23,15.1 C23,14.547 22.553,14 22,14 L22,14 Z M16,9 C17.654,9 19,10.346 19,12 L19,14 L13,14 L13,12 C13,10.346 14.346,9 16,9 L16,9 Z" fill="#838D94"></path>
  </g>
</svg>
