<svg width="32" height="32" xmlns="http://www.w3.org/2000/svg" xmlns:xlink="http://www.w3.org/1999/xlink"><defs><path d="M0 1.111V15.09c0 .562.45.952 1 .952h14c.55 0 1-.39 1-.952V1.111c0-.562-.45-1.07-1-1.07H1c-.55 0-1 .508-1 1.07z" id="a"/></defs><g fill="none" fill-rule="evenodd"><path d="M0 16C0 7.163 7.162 0 16 0c8.837 0 16 7.162 16 16 0 8.837-7.162 16-16 16-8.837 0-16-7.162-16-16z" fill="#EBEEF0"/><g transform="translate(8 9)"><use fill="#FFF" xlink:href="#a"/><path stroke="#838D94" d="M.5 1.111V15.09c0 .264.204.452.5.452h14c.296 0 .5-.188.5-.452V1.111c0-.304-.244-.57-.5-.57H1c-.256 0-.5.266-.5.57z"/><rect fill="#838D94" x="6" y="4" width="7" height="2" rx="1"/><rect fill="#838D94" x="6" y="7" width="6" height="2" rx="1"/><rect fill="#838D94" x="6" y="10" width="7" height="2" rx="1"/><rect fill="#D1D5D7" x="3" y="4" width="2" height="2" rx="1"/><rect fill="#D1D5D7" x="3" y="7" width="2" height="2" rx="1"/><rect fill="#D1D5D7" x="3" y="10" width="2" height="2" rx="1"/></g></g></svg>