<svg width="33px" height="33px" viewBox="184 59 33 33" version="1.1" xmlns="http://www.w3.org/2000/svg" xmlns:xlink="http://www.w3.org/1999/xlink">
  <g id="icon--merge" stroke="none" stroke-width="1" fill="none" fill-rule="evenodd" transform="translate(184.000000, 59.000000)">
    <path d="M0,16 C0,7.163444 7.16150109,0 16,0 L16,0 C24.836556,0 32,7.16150109 32,16 L32,16 C32,24.836556 24.8384989,32 16,32 L16,32 C7.163444,32 0,24.8384989 0,16 L0,16 Z" id="Rectangle-185" fill="#EBEEF0"></path>
    <g transform="translate(8.000000, 11.000000)" id="Shape" fill="#838D94">
      <path d="M0,1 C0,1.55228475 0.443864822,2 1,2 L2,2 C3.958,2 5,5 5,5 C5,5 3.661,8 2,8 L1,8 C0.44771525,8 0,8.44386482 0,9 L0,9 C0,9.55228475 0.443864822,10 1,10 L2,10 C4.989,10 7,6 7,6 L12,6 L12,7 C12,7.55228475 12.3549733,7.73377001 12.799846,7.4001155 L15.200154,5.5998845 C15.6418968,5.26857744 15.6450267,4.73377001 15.200154,4.4001155 L12.799846,2.5998845 C12.3581032,2.26857744 12,2.44386482 12,3 L12,4 L7,4 C7,4 5.546,0 2,0 L1,0 C0.44771525,0 0,0.443864822 0,1 L0,1 Z"></path>
    </g>
  </g>
</svg>
