<svg width="32" height="32" xmlns="http://www.w3.org/2000/svg"><g fill="none" fill-rule="evenodd"><path d="M0 16C0 7.163 7.162 0 16 0c8.837 0 16 7.162 16 16 0 8.837-7.162 16-16 16-8.837 0-16-7.162-16-16z" fill="#EBEEF0"/><path d="M19.925 18.51l-2.475-2.475 2.475-2.475a.499.499 0 0 0 0-.707l-.707-.707a.5.5 0 0 0-.707 0l-2.475 2.475-2.475-2.475a.5.5 0 0 0-.707 0l-.707.707a.499.499 0 0 0 0 .707l2.475 2.475-2.475 2.475a.499.499 0 0 0 0 .707l.707.707a.5.5 0 0 0 .707 0l2.475-2.475 2.475 2.475a.5.5 0 0 0 .707 0l.707-.707a.499.499 0 0 0 0-.707" fill="#DB3F24"/></g></svg>