<svg width="12px" height="10px" viewBox="0 0 12 10" version="1.1" xmlns="http://www.w3.org/2000/svg" xmlns:xlink="http://www.w3.org/1999/xlink">
  <g>
    <g transform="translate(-94.000000, -135.000000)" fill="#838D94">
      <g transform="translate(63.000000, 133.000000)">
        <path d="M33.559375,7.05 L33.3223958,7.05 C32.7325781,7.05 32.1980637,6.79722475 31.7188368,6.29166667 C31.2396099,5.78610858 31,5.18889233 31,4.5 C31,3.78888533 31.2396099,3.19444683 31.7188368,2.71666667 C32.1980637,2.2388865 32.7905057,2 33.4961806,2 C33.9806737,2 34.4335627,2.14722075 34.8548611,2.44166667 C35.2761595,2.73611258 35.6026609,3.16388608 35.834375,3.725 C36.0660891,4.28611392 36.1819444,4.97221817 36.1819444,5.78333333 C36.1819444,6.88333883 35.9607661,7.91388408 35.5184028,8.875 C35.0760395,9.83611592 34.536259,10.5972194 33.8990451,11.1583333 C33.2618313,11.7194472 32.6851878,12 32.1690972,12 C31.842591,12 31.5766503,11.8916677 31.3712674,11.675 C31.1658844,11.4583322 31.0631944,11.194446 31.0631944,10.8833333 C31.0631944,10.3833308 31.2791066,10.0166678 31.7109375,9.78333333 C32.2691579,9.43888717 32.7062484,9.06111317 33.0222222,8.65 C33.338196,8.23888683 33.5172452,7.70555883 33.559375,7.05 Z M40.3793747,7.05 L40.1423955,7.05 C39.5525778,7.05 39.0180634,6.79722475 38.5388365,6.29166667 C38.0596096,5.78610858 37.8199997,5.18889233 37.8199997,4.5 C37.8199997,3.78888533 38.0596096,3.19444683 38.5388365,2.71666667 C39.0180634,2.2388865 39.6105054,2 40.3161803,2 C40.8006734,2 41.2535624,2.14722075 41.6748608,2.44166667 C42.0961592,2.73611258 42.4226606,3.16388608 42.6543747,3.725 C42.8860888,4.28611392 43.0019441,4.97221817 43.0019441,5.78333333 C43.0019441,6.88333883 42.7807658,7.91388408 42.3384025,8.875 C41.8960391,9.83611592 41.3562587,10.5972194 40.7190448,11.1583333 C40.081831,11.7194472 39.5051875,12 38.9890969,12 C38.6625907,12 38.39665,11.8916677 38.1912671,11.675 C37.9858841,11.4583322 37.8831941,11.194446 37.8831941,10.8833333 C37.8831941,10.3833308 38.0991063,10.0166678 38.5309372,9.78333333 C39.0891576,9.43888717 39.5262481,9.06111317 39.8422219,8.65 C40.1581957,8.23888683 40.3372449,7.70555883 40.3793747,7.05 Z"></path>
      </g>
    </g>
  </g>
</svg>
