<?xml version="1.0" encoding="UTF-8"?>
<svg width="16px" height="16px" viewBox="0 0 16 16" version="1.1" xmlns="http://www.w3.org/2000/svg" xmlns:xlink="http://www.w3.org/1999/xlink">
    <!-- Generator: Sketch 42 (36781) - http://www.bohemiancoding.com/sketch -->
    <title>Delivered</title>
    <desc>Created with Sketch.</desc>
    <defs></defs>
    <g id="✴️-Icons" stroke="none" stroke-width="1" fill="none" fill-rule="evenodd">
        <g id="Delivered" fill="#A1AAAF">
            <g id="Group" transform="translate(1.000000, 5.000000)">
                <path d="M4.22857143,6.51428571 L8.8,1.94285714 C9.25714286,1.48571429 9.25714286,0.8 8.8,0.342857143 C8.34285714,-0.114285714 7.65714286,-0.114285714 7.2,0.342857143 L3.42857143,4.11428571 L1.94285714,2.62857143 C1.48571429,2.17142857 0.8,2.17142857 0.342857143,2.62857143 C-0.114285714,3.08571429 -0.114285714,3.77142857 0.342857143,4.22857143 L2.62857143,6.51428571 C3.2,7.08571429 3.77142857,6.97142857 4.22857143,6.51428571 Z" id="Shape"></path>
                <path d="M14.5142857,1.94285714 C14.9714286,1.48571429 14.9714286,0.8 14.5142857,0.342857143 C14.2909163,0.11948775 14.0129755,0.00526123172 13.7337927,0.000177588944 C13.4293103,-0.000295302952 13.1431526,0.11399022 12.9142857,0.342857143 L9.14285714,4.11428571 L9.12083696,4.18034627 L8.34285714,4.95832608 C7.88571429,5.41546894 7.88571429,6.10118323 8.34285714,6.55832608 C8.8,7.01546894 9.48571429,7.01546894 9.94285714,6.55832608 L13.7142857,2.78689751 L13.7363059,2.72083696 L14.5142857,1.94285714 Z" id="Combined-Shape"></path>
            </g>
        </g>
    </g>
</svg>