<?xml version="1.0" encoding="UTF-8"?>
<svg width="16px" height="16px" viewBox="0 0 16 16" version="1.1" xmlns="http://www.w3.org/2000/svg" xmlns:xlink="http://www.w3.org/1999/xlink">
    <!-- Generator: Sketch 42 (36781) - http://www.bohemiancoding.com/sketch -->
    <title>Failed</title>
    <desc>Created with Sketch.</desc>
    <defs></defs>
    <g id="✴️-Icons" stroke="none" stroke-width="1" fill="none" fill-rule="evenodd">
        <g id="Failed" fill="#E86048">
            <path d="M13.9219335,12.8032232 L8.58866005,3.30999652 C8.35666266,2.89666783 7.64333734,2.89666783 7.41133995,3.30999652 L2.07806651,12.8032232 C1.96806775,12.9998877 1.97473434,13.2018854 2.09539965,13.3932166 C2.2153983,13.5832145 2.43206254,13.6665469 2.66672657,13.6665469 L13.3332734,13.6665469 C13.5679375,13.6665469 13.7846017,13.5832145 13.9046003,13.3932166 C14.0252657,13.2018854 14.0319323,12.9998877 13.9219335,12.8032232 L13.9219335,12.8032232 Z M8.66665918,12.0398985 C8.66665918,12.2238964 8.51732752,12.3732281 8.33332959,12.3732281 L7.66667041,12.3732281 C7.48267248,12.3732281 7.33334082,12.2238964 7.33334082,12.0398985 L7.33334082,11.3732393 C7.33334082,11.1885747 7.48267248,11.0399097 7.66667041,11.0399097 L8.33332959,11.0399097 C8.51732752,11.0399097 8.66665918,11.1885747 8.66665918,11.3732393 L8.66665918,12.0398985 L8.66665918,12.0398985 Z M8.33332959,10.333251 L7.66667041,10.333251 C7.48267248,10.333251 7.33334082,10.1839193 7.33334082,9.99992138 L7.33334082,5.99996631 C7.33334082,5.81596837 7.48267248,5.66663672 7.66667041,5.66663672 L8.33332959,5.66663672 C8.51732752,5.66663672 8.66665918,5.81596837 8.66665918,5.99996631 L8.66665918,9.99992138 C8.66665918,10.1839193 8.51732752,10.333251 8.33332959,10.333251 Z" id="Fill-690-Copy-4"></path>
        </g>
    </g>
</svg>