<?xml version="1.0" encoding="UTF-8"?>
<svg width="16px" height="16px" viewBox="0 0 16 16" version="1.1" xmlns="http://www.w3.org/2000/svg" xmlns:xlink="http://www.w3.org/1999/xlink">
    <!-- Generator: Sketch 42 (36781) - http://www.bohemiancoding.com/sketch -->
    <title>Not Sent</title>
    <desc>Created with Sketch.</desc>
    <defs></defs>
    <g id="✴️-Icons" stroke="none" stroke-width="1" fill="none" fill-rule="evenodd">
        <g id="Not-Sent" fill="#A1AAAF">
            <path d="M8,8 L9.50461102,8 C9.7782068,8 10,8.23193359 10,8.5 C10,8.77614237 9.7842474,9 9.50461102,9 L7.49538898,9 C7.35937355,9 7.23616103,8.94267801 7.14663773,8.85209155 C7.05534315,8.76689729 7,8.64365098 7,8.50461102 L7,6.49538898 C7,6.2217932 7.23193359,6 7.5,6 C7.77614237,6 8,6.2157526 8,6.49538898 L8,8 Z M3,8 C3,5.23857625 5.24419519,3 8,3 C10.7614237,3 13,5.24419519 13,8 C13,10.7614237 10.7558048,13 8,13 C5.23857625,13 3,10.7558048 3,8 Z M8,12 C10.209139,12 12,10.209139 12,8 C12,5.790861 10.209139,4 8,4 C5.790861,4 4,5.790861 4,8 C4,10.209139 5.790861,12 8,12 Z" id="Combined-Shape"></path>
        </g>
    </g>
</svg>