<?xml version="1.0" encoding="UTF-8"?>
<svg width="16px" height="16px" viewBox="0 0 16 16" version="1.1" xmlns="http://www.w3.org/2000/svg" xmlns:xlink="http://www.w3.org/1999/xlink">
    <!-- Generator: Sketch 42 (36781) - http://www.bohemiancoding.com/sketch -->
    <title>Rejected</title>
    <desc>Created with Sketch.</desc>
    <defs></defs>
    <g id="✴️-Icons" stroke="none" stroke-width="1" fill="none" fill-rule="evenodd">
        <g id="Rejected" fill="#E86048">
            <path d="M8.37951768,6.75732137 L6.18669661,4.5645003 C5.95782969,4.33563338 5.67167207,4.22134785 5.36718965,4.22182074 C5.08800684,4.22690439 4.810066,4.34113091 4.58669661,4.5645003 C4.12955375,5.02164316 4.12955375,5.70735744 4.58669661,6.1645003 L5.36467643,6.94248011 L5.38669661,7.00854067 L6.75749749,8.37934155 L4.56458836,10.5722507 C4.33572144,10.8011176 4.22143592,11.0872752 4.22190881,11.3917576 C4.22699245,11.6709405 4.34121897,11.9488813 4.56458836,12.1722507 C5.02173122,12.6293935 5.70744551,12.6293935 6.16458836,12.1722507 L6.94256818,11.3942709 L7.00862873,11.3722507 L8.37951768,10.0013617 L10.5723387,12.1941828 C11.0294816,12.6513257 11.7151959,12.6513257 12.1723387,12.1941828 C12.6294816,11.7370399 12.6294816,11.0513257 12.1723387,10.5941828 L11.3943589,9.81620299 L11.3723387,9.75014243 L10.0015379,8.37934155 L12.1942709,6.18660855 C12.6514137,5.72946569 12.6514137,5.04375141 12.1942709,4.58660855 C11.737128,4.12946569 11.0514137,4.12946569 10.5942709,4.58660855 L9.81629105,5.36458836 L9.7502305,5.38660855 L8.37951768,6.75732137 L8.37951768,6.75732137 Z" id="Combined-Shape"></path>
        </g>
    </g>
</svg>