<?xml version="1.0" encoding="UTF-8" standalone="no"?>
<svg xmlns="http://www.w3.org/2000/svg" height="32px" width="32px" version="1.1" xmlns:xlink="http://www.w3.org/1999/xlink" viewBox="0 0 32 32"><!-- Generator: Sketch 41.2 (35397) - http://www.bohemiancoding.com/sketch -->
 <title>1</title>
 <desc>Created with Sketch.</desc>
 <defs>
  <path id="path-1" d="m0 16c0-8.8366 7.1615-16 16-16 8.837 0 16 7.1615 16 16 0 8.837-7.162 16-16 16-8.8366 0-16-7.162-16-16z"/>
  <mask id="mask-2" maskContentUnits="userSpaceOnUse" height="32" width="32" y="0" x="0" maskUnits="objectBoundingBox" fill="white">
   <use xlink:href="#path-1"/>
  </mask>
 </defs>
 <g id="Symbols" fill-rule="evenodd" fill="none">
  <g id="Step-1" transform="translate(-9 -9)">
   <g id="1">
    <g transform="translate(9 9)">
     <use id="Rectangle-13" xlink:href="#path-1" stroke="#EBEEF0" stroke-width="2" mask="url(#mask-2)"/>
     <path d="m16.78 20.628c0-0.4-0.048-3.632-0.048-5.664 0-1.136 0.016-2.544 0.064-3.696-0.016-1.104-0.592-1.472-1.072-1.472-0.768 0-0.992 0.672-0.992 1.536 0 0.176 0.048 0.352 0.064 10.08 0 0.56 0.416 1.184 1.136 1.184 0.848 0 0.848-1.104 0.848-1.968z" fill="#A1AAAF"/>
    </g>
   </g>
  </g>
 </g>
</svg>
