<?xml version="1.0" encoding="UTF-8" standalone="no"?>
<svg xmlns="http://www.w3.org/2000/svg" height="32px" width="32px" version="1.1" xmlns:xlink="http://www.w3.org/1999/xlink" viewBox="0 0 32 32"><!-- Generator: Sketch 41.2 (35397) - http://www.bohemiancoding.com/sketch -->
 <title>2</title>
 <desc>Created with Sketch.</desc>
 <defs>
  <path id="path-1" d="m0 16c0-8.8366 7.1615-16 16-16 8.837 0 16 7.1615 16 16 0 8.837-7.162 16-16 16-8.8366 0-16-7.162-16-16z"/>
  <mask id="mask-2" maskContentUnits="userSpaceOnUse" height="32" width="32" y="0" x="0" maskUnits="objectBoundingBox" fill="white">
   <use xlink:href="#path-1"/>
  </mask>
 </defs>
 <g id="Symbols" fill-rule="evenodd" fill="none">
  <g id="Step-2" transform="translate(-9 -9)">
   <g id="2">
    <g transform="translate(9 9)">
     <use id="Rectangle-13" xlink:href="#path-1" stroke="#EBEEF0" stroke-width="2" mask="url(#mask-2)"/>
     <path fill="#838D94" d="m20.473 20.66c0-0.546-0.308-0.924-0.728-0.924-0.938-0.014-4.032-0.084-5.796-0.084 1.162-1.288 6.342-4.634 6.342-7.42 0-1.232-1.568-1.554-3.43-1.554-2.296 0-3.416 0.462-4.34 0.91-0.518 0.238-0.784 0.784-0.784 1.288 0 0.546 0.154 0.882 0.504 0.882 0.252 0 2.464-1.33 4.522-1.33 0.616 0 1.428 0.21 1.428 0.756 0 1.092-5.824 5.754-6.16 6.188-0.168 0.21-0.322 0.504-0.322 0.84 0 0.672 0.518 1.33 0.966 1.33 0.532 0 1.834-0.084 3.85-0.084 0.938 0 2.016 0.07 3.234 0.07 0.392 0 0.714-0.504 0.714-0.868z" fill-opacity=".7"/>
    </g>
   </g>
  </g>
 </g>
</svg>
