<?xml version="1.0" encoding="UTF-8" standalone="no"?>
<svg xmlns="http://www.w3.org/2000/svg" height="120px" width="175px" version="1.1" xmlns:xlink="http://www.w3.org/1999/xlink" viewBox="0 0 175 120"><!-- Generator: Sketch 41.2 (35397) - http://www.bohemiancoding.com/sketch -->
 <title>i1</title>
 <desc>Created with Sketch.</desc>
 <defs>
  <circle id="path-1" cy="2.5" cx="2.5" r="2.5"/>
  <mask id="mask-2" maskContentUnits="userSpaceOnUse" height="5" width="5" y="0" x="0" maskUnits="objectBoundingBox" fill="white">
   <use xlink:href="#path-1"/>
  </mask>
  <circle id="path-3" cy="28" cx="72" r="3"/>
  <mask id="mask-4" maskContentUnits="userSpaceOnUse" height="6" width="6" y="0" x="0" maskUnits="objectBoundingBox" fill="white">
   <use xlink:href="#path-3"/>
  </mask>
  <circle id="path-5" cy="85" cx="33" r="4"/>
  <mask id="mask-6" maskContentUnits="userSpaceOnUse" height="8" width="8" y="0" x="0" maskUnits="objectBoundingBox" fill="white">
   <use xlink:href="#path-5"/>
  </mask>
  <circle id="path-7" cy="60" cx="60" r="60"/>
  <rect id="path-9" rx="2" height="5" width="19" y="56" x="15"/>
  <mask id="mask-10" maskContentUnits="userSpaceOnUse" height="5" width="19" y="0" x="0" maskUnits="objectBoundingBox" fill="white">
   <use xlink:href="#path-9"/>
  </mask>
  <rect id="path-11" y="18" x="0" height="40" width="59"/>
  <mask id="mask-12" maskContentUnits="userSpaceOnUse" height="40" width="59" y="0" x="0" maskUnits="objectBoundingBox" fill="white">
   <use xlink:href="#path-11"/>
  </mask>
  <rect id="path-13" y="18" x="36" height="40" width="23"/>
  <mask id="mask-14" maskContentUnits="userSpaceOnUse" height="40" width="23" y="0" x="0" maskUnits="objectBoundingBox" fill="white">
   <use xlink:href="#path-13"/>
  </mask>
  <rect id="path-15" rx="2" height="24" width="37" y="40" x="94"/>
  <rect id="path-17" rx="2" height="24" width="37" y="43" x="97"/>
 </defs>
 <g id="Symbols" fill-rule="evenodd" fill="none">
  <g id="Step-1" transform="translate(-67 -54)">
   <g id="i1">
    <g transform="translate(67 54)">
     <g id="bg-thingy" transform="translate(100)">
      <use id="Oval-5" xlink:href="#path-1" stroke="#FAC5C5" stroke-width="3" mask="url(#mask-2)"/>
      <use id="Oval-6" xlink:href="#path-3" stroke="#FAC5C5" stroke-width="3" mask="url(#mask-4)"/>
      <use id="Oval-7" xlink:href="#path-5" stroke="#FAC5C5" stroke-width="3" mask="url(#mask-6)"/>
      <g id="Group" stroke-linejoin="round" transform="translate(33 22)" stroke="#FCE9BF" stroke-linecap="round" stroke-width="1.5">
       <path id="Combined-Shape" d="m8.3019 4.3595h-7.6897c-0.27618 0-0.50004 0.2239-0.50004 0.5 0 0.2762 0.22386 0.5 0.5 0.5h7.6897c0.2761 0 0.5-0.2238 0.5-0.5"/>
       <path id="Path-5" d="m3.957 1.0146v7.6898c0 0.2761 0.2239 0.5 0.5 0.5 0.2762 0 0.5-0.2239 0.5-0.5v-7.6898c0-0.27609-0.2238-0.49995-0.5-0.49995"/>
      </g>
      <g id="Group-Copy" stroke-linejoin="round" transform="translate(63.854 62.646) rotate(45) translate(-6.5 -6.5)" stroke="#FCE9BF" stroke-linecap="round" stroke-width="1.7">
       <path id="Combined-Shape" d="m11.821 6.0811h-10.766c-0.38649 0-0.69989 0.3234-0.69989 0.7222 0 0.3989 0.3134 0.7223 0.69999 0.7223h10.766c0.386 0 0.7-0.3234 0.7-0.7223"/>
       <path id="Path-5" d="m5.7157 1.4205v10.766c0 0.387 0.3234 0.7 0.7222 0.7 0.3989 0 0.7223-0.313 0.7223-0.7v-10.766c0-0.3861-0.3234-0.69949-0.7223-0.69949"/>
      </g>
     </g>
     <mask id="mask-8" fill="white">
      <use xlink:href="#path-7"/>
     </mask>
     <use id="Mask" xlink:href="#path-7" fill="#CFE3E6" fill-opacity=".9"/>
     <path id="Path-7" d="m-29.143 84.469s27.948-17.421 33.288-17.421c5.3396 0 21.049 12.421 33.149 12.421s31.972-24.446 36.976-24.446 18.663 28.302 38.4 33.698c19.74 5.396 3.94 28.719 3.94 28.719l-46.288 39.89-63.521-5.73-31.838-26.35-6.762-23.89 2.656-16.891z" fill-opacity=".5" mask="url(#mask-8)" transform="translate(45.397 106.18) scale(-1 1) translate(-45.397 -106.18)" fill="#fff"/>
     <g id="mailbox" mask="url(#mask-8)">
      <g transform="translate(52 8)">
       <rect id="Rectangle-7" fill-rule="evenodd" height="37" width="7" stroke="#B3AFB8" y="59" x="21" stroke-width="2" fill="#fff"/>
       <use id="Rectangle" fill-rule="evenodd" xlink:href="#path-9" mask="url(#mask-10)" stroke="#B3AFB8" stroke-width="4" fill="#B3AFB8"/>
       <use id="Rectangle-3" fill-rule="evenodd" xlink:href="#path-11" mask="url(#mask-12)" stroke="#B3AFB8" stroke-width="4" fill="#FFFFFF"/>
       <use id="Rectangle-3-Copy" fill-rule="evenodd" xlink:href="#path-13" mask="url(#mask-14)" stroke="#B3AFB8" stroke-width="4" fill="#EBEEF0"/>
       <path id="Path-4" stroke-linejoin="round" d="m21 1v28" stroke="#B3AFB8" stroke-linecap="round" stroke-width="2" fill="none"/>
       <polygon id="Path-5" stroke-linejoin="round" fill-rule="evenodd" points="20.977 0.16602 3.4716 0.16602 9.0068 5.0752 3.6133 10.308 20.977 10.308" stroke="#B3AFB8" stroke-linecap="round" stroke-width="2" fill="#fff"/>
       <polygon id="Path-5-Copy-2" style="mix-blend-mode:multiply" fill-rule="evenodd" points="22.977 2.166 5.4716 2.166 11.007 7.0752 5.6133 12.308 22.977 12.308" fill="#FAC5C5"/>
      </g>
     </g>
     <circle id="Oval-3" r="53" mask="url(#mask-8)" cy="149" stroke="#B3AFB8" cx="36" stroke-width="1.5" fill="#F4F5EF"/>
     <circle id="Oval-3-Copy" r="53" mask="url(#mask-8)" cy="152" stroke="#B3AFB8" cx="67" stroke-width="1.5" fill="#F4F5EF"/>
     <path id="Path-2" stroke-linejoin="round" d="m38.75 106.75v-5.75" mask="url(#mask-8)" stroke="#B3AFB8" stroke-linecap="round" stroke-width="1.5"/>
     <path id="Oval-2" d="m39 100.83c5 0 5-3.541 5-7.913 0-4.373-2.595-7.917-5-7.917s-5 3.544-5 7.917c0 4.372 0 7.913 5 7.913z" mask="url(#mask-8)" stroke="#B3AFB8" stroke-width="1.5" fill="#EAECE0"/>
     <polygon id="Path-8" stroke-linejoin="round" points="90.03 65.798 101.36 78.959 120.8 78.959 110.51 65.605" stroke="#B3AFB8" stroke-linecap="round" stroke-width="2" fill="#fff"/>
     <mask id="mask-16" fill="white">
      <use xlink:href="#path-15"/>
     </mask>
     <use id="Rectangle-5" xlink:href="#path-15" stroke="#B3AFB8" stroke-width="2" fill="#FFFFFF"/>
     <polyline id="Path-6" stroke-linejoin="round" mask="url(#mask-16)" stroke="#B3AFB8" stroke-linecap="round" stroke-width="2" points="95.518 41.55 112.33 53.54 129.81 41.024"/>
     <mask id="mask-18" fill="white">
      <use xlink:href="#path-17"/>
     </mask>
     <use id="Rectangle-5-Copy" style="mix-blend-mode:multiply" xlink:href="#path-17" fill="#D6D9C0"/>
    </g>
   </g>
  </g>
 </g>
</svg>
