<?xml version="1.0" encoding="UTF-8" standalone="no"?>
<svg xmlns="http://www.w3.org/2000/svg" height="60px" width="60px" version="1.1" xmlns:xlink="http://www.w3.org/1999/xlink" viewBox="0 0 60 60"><!-- Generator: Sketch 41.2 (35397) - http://www.bohemiancoding.com/sketch -->
 <title>Group 5</title>
 <desc>Created with Sketch.</desc>
 <g id="🚧-Onboarding" fill-rule="evenodd" fill="none">
  <g id="Onboarding---3.3" transform="translate(-762 -529)">
   <g id="Group-5" transform="translate(762 529)">
    <path id="Rectangle-14" fill="#BEC4C7" d="m0 2.9959c0-1.6546 1.3373-2.9959 2.9959-2.9959h54.008c1.655 0 2.996 1.3373 2.996 2.9959v54.008c0 1.655-1.337 2.996-2.996 2.996h-54.008c-1.6547 0-2.996-1.337-2.996-2.996v-54.008z"/>
    <path id="Shape" fill="#fff" d="m40.943 41.648c-1.265 1.927-3.05 4.327-5.262 4.347-1.965 0.018-2.47-1.278-5.137-1.263s-3.223 1.287-5.188 1.268c-2.212-0.02-3.902-2.187-5.168-4.115-3.54-5.388-3.91-11.712-1.727-15.073 1.552-2.39 4-3.787 6.302-3.787 2.343 0 3.817 1.285 5.755 1.285 1.88 0 3.025-1.287 5.735-1.287 2.048 0 4.218 1.115 5.765 3.042-5.066 2.777-4.243 10.01 0.875 11.945-0.705 1.562-1.042 2.258-1.95 3.638z"/>
    <path id="Shape" fill="#fff" d="m35.944 14.781c-1.608 0.11-3.488 1.133-4.587 2.467-0.997 1.21-1.82 3.005-1.5 4.75 1.755 0.055 3.572-0.993 4.627-2.347 0.985-1.263 1.732-3.047 1.46-4.87z"/>
   </g>
  </g>
 </g>
</svg>
