<?xml version="1.0" encoding="UTF-8" standalone="no"?>
<svg xmlns="http://www.w3.org/2000/svg" height="151px" width="146px" version="1.1" xmlns:xlink="http://www.w3.org/1999/xlink" viewBox="0 0 146 151"><!-- Generator: Sketch 41.2 (35397) - http://www.bohemiancoding.com/sketch -->
 <title>i3</title>
 <desc>Created with Sketch.</desc>
 <defs>
  <circle id="path-1" cy="2.5" cx="112.5" r="2.5"/>
  <mask id="mask-2" maskContentUnits="userSpaceOnUse" height="5" width="5" y="0" x="0" maskUnits="objectBoundingBox" fill="white">
   <use xlink:href="#path-1"/>
  </mask>
  <circle id="path-3" cy="32" cx="3" r="3"/>
  <mask id="mask-4" maskContentUnits="userSpaceOnUse" height="6" width="6" y="0" x="0" maskUnits="objectBoundingBox" fill="white">
   <use xlink:href="#path-3"/>
  </mask>
  <circle id="path-5" cy="28" cx="90" r="4"/>
  <mask id="mask-6" maskContentUnits="userSpaceOnUse" height="8" width="8" y="0" x="0" maskUnits="objectBoundingBox" fill="white">
   <use xlink:href="#path-5"/>
  </mask>
  <circle id="path-7" cy="91" cx="64" r="60"/>
  <path id="path-9" d="m0 8.0049c0-4.421 3.5813-8.0049 7.9959-8.0049h75.008c4.416 0 7.996 3.5734 7.996 7.9948v1.5833c4.454 0.9139 5.578-0.445 5.578-0.445 0.964-0.5214 1.689-0.0479 1.536 1.0439 0 0 0.209 6.755-7.114 8.032v1.785c0 4.422-3.581 8.006-7.996 8.006h-75.008c-4.4161 0-7.996-3.575-7.996-8.005v-11.99z"/>
  <mask id="mask-10" maskContentUnits="userSpaceOnUse" height="28" width="98.3227539" y="0" x="0" maskUnits="objectBoundingBox" fill="white">
   <use xlink:href="#path-9"/>
  </mask>
  <circle id="path-11" cy="14" cx="115" r="10"/>
  <mask id="mask-12" maskContentUnits="userSpaceOnUse" height="20" width="20" y="0" x="0" maskUnits="objectBoundingBox" fill="white">
   <use xlink:href="#path-11"/>
  </mask>
  <path id="path-13" d="m3 8.0047c0-4.4209 3.5813-8.0047 7.996-8.0047h75.008c4.416 0 7.996 3.5889 7.996 6.5781v0c4.454 0.9141 5.578-0.445 5.578-0.445 0.962-0.5214 1.692-0.0479 1.532 1.0435 0 0 0.21 6.7554-7.11 8.0324v0c0 3.751-3.581 6.791-7.996 6.791h-75.008c-4.4161 0-7.996-3.584-7.996-8.005v-5.9903z"/>
  <mask id="mask-14" maskContentUnits="userSpaceOnUse" height="22" width="98.1340494" y="0" x="0" maskUnits="objectBoundingBox" fill="white">
   <use xlink:href="#path-13"/>
  </mask>
  <circle id="path-15" cy="11" cx="118" r="10"/>
  <mask id="mask-16" maskContentUnits="userSpaceOnUse" height="20" width="20" y="0" x="0" maskUnits="objectBoundingBox" fill="white">
   <use xlink:href="#path-15"/>
  </mask>
 </defs>
 <g id="Symbols" fill-rule="evenodd" fill="none">
  <g id="Step-3" transform="translate(-62 -23)">
   <g id="i3">
    <g transform="translate(62 23)">
     <g id="bg-thingy" transform="translate(24)">
      <use id="Oval-5" xlink:href="#path-1" stroke="#FAC5C5" stroke-width="3" mask="url(#mask-2)"/>
      <use id="Oval-6" xlink:href="#path-3" stroke="#FAC5C5" stroke-width="3" mask="url(#mask-4)"/>
      <use id="Oval-7" xlink:href="#path-5" stroke="#FAC5C5" stroke-width="3" mask="url(#mask-6)"/>
      <g id="Group" stroke-linejoin="round" transform="translate(112 60)" stroke="#FCE9BF" stroke-linecap="round" stroke-width="1.5">
       <path id="Combined-Shape" d="m8.3019 4.3595h-7.6897c-0.27618 0-0.50004 0.2239-0.50004 0.5 0 0.2762 0.22386 0.5 0.5 0.5h7.6897c0.2761 0 0.5-0.2238 0.5-0.5"/>
       <path id="Path-5" d="m3.957 1.0146v7.6898c0 0.2761 0.2239 0.5 0.5 0.5 0.2762 0 0.5-0.2239 0.5-0.5v-7.6898c0-0.27609-0.2238-0.49995-0.5-0.49995"/>
      </g>
      <g id="Group-Copy" stroke-linejoin="round" transform="translate(49.192 9.1924) rotate(45) translate(-6.5 -6.5)" stroke="#FCE9BF" stroke-linecap="round" stroke-width="1.7">
       <path id="Combined-Shape" d="m11.821 6.0811h-10.766c-0.38649 0-0.69989 0.3234-0.69989 0.7222 0 0.3989 0.3134 0.7223 0.69999 0.7223h10.766c0.386 0 0.7-0.3234 0.7-0.7223"/>
       <path id="Path-5" d="m5.7157 1.4205v10.766c0 0.387 0.3234 0.7 0.7222 0.7 0.3989 0 0.7223-0.313 0.7223-0.7v-10.766c0-0.3861-0.3234-0.69949-0.7223-0.69949"/>
      </g>
     </g>
     <mask id="mask-8" fill="white">
      <use xlink:href="#path-7"/>
     </mask>
     <use id="Mask" xlink:href="#path-7" fill="#CFE3E6" fill-opacity=".9"/>
     <path id="Path-7" mask="url(#mask-8)" fill-opacity=".5" fill="#fff" d="m-1.1435 105.47s27.948-17.422 33.288-17.422c5.341 0 21.05 12.422 33.15 12.422s31.972-24.447 36.976-24.447c5 0 18.66 28.297 38.4 33.697s3.94 28.72 3.94 28.72l-46.288 39.89-63.521-5.73-31.838-26.35-6.7624-23.89 2.6559-16.89z"/>
     <circle id="Oval-3" r="53" mask="url(#mask-8)" cy="180" stroke="#B3AFB8" cx="29" stroke-width="1.5" fill="#F4F5EF"/>
     <circle id="Oval-3-Copy" r="53" mask="url(#mask-8)" cy="172" stroke="#B3AFB8" cx="87" stroke-width="1.5" fill="#F4F5EF"/>
     <path id="Path-2" stroke-linejoin="round" d="m31.75 137.75v-5.75" mask="url(#mask-8)" stroke="#B3AFB8" stroke-linecap="round" stroke-width="1.5"/>
     <path id="Oval-2" d="m32 131.83c5 0 5-3.54 5-7.91 0-4.38-2.595-7.92-5-7.92s-5 3.54-5 7.92c0 4.37 0 7.91 5 7.91z" mask="url(#mask-8)" stroke="#B3AFB8" stroke-width="1.5" fill="#EAECE0"/>
     <g id="1" transform="translate(0 42)">
      <use id="Rectangle-10" xlink:href="#path-9" mask="url(#mask-10)" stroke="#B3AFB8" stroke-width="4" fill="#FFFFFF"/>
      <path id="Rectangle-10-Copy" style="mix-blend-mode:multiply" fill="#FAC5C5" d="m3 11.005c0-4.4211 3.5813-8.005 7.996-8.005h75.008c4.416 0 7.996 3.5734 7.996 7.995v1.583c4.454 0.914 5.578-0.445 5.578-0.445 0.962-0.521 1.692-0.048 1.532 1.044 0 0 0.21 6.755-7.11 8.032v1.785c0 4.422-3.581 8.006-7.996 8.006h-75.008c-4.4161 0-7.996-3.575-7.996-8.005v-11.99z"/>
      <rect id="Rectangle-5-Copy-2" rx="2" height="4" width="70" y="7" x="9" fill="#fff"/>
      <rect id="Rectangle-5-Copy-3" rx="2" height="4" width="50" y="17" x="9" fill="#fff"/>
      <use id="Oval-4" xlink:href="#path-11" mask="url(#mask-12)" stroke="#B3AFB8" stroke-width="4" fill="#FFFFFF"/>
     </g>
     <g id="2" transform="translate(64 95.5) scale(-1 1) translate(-64 -12.5)">
      <use id="Rectangle-10" xlink:href="#path-13" mask="url(#mask-14)" stroke="#B3AFB8" stroke-width="4" fill="#FFFFFF"/>
      <path id="Rectangle-10-Copy-2" style="mix-blend-mode:multiply" fill="#D6D9C0" d="m0 11.005c0-4.4212 3.5813-8.005 7.9959-8.005h75.008c4.416 0 7.996 3.5889 7.996 6.5781v0c4.454 0.9139 5.578-0.445 5.578-0.445 0.964-0.5214 1.689-0.0479 1.536 1.0439 0 0 0.209 6.755-7.114 8.032v0c0 3.751-3.581 6.791-7.996 6.791h-75.008c-4.4161 0-7.996-3.584-7.996-8.005v-5.99z"/>
      <rect id="Rectangle-5-Copy-2" rx="2" height="4" width="70" y="9" x="12" fill="#fff"/>
      <use id="Oval-4" xlink:href="#path-15" mask="url(#mask-16)" stroke="#B3AFB8" stroke-width="4" fill="#FFFFFF"/>
     </g>
    </g>
   </g>
  </g>
 </g>
</svg>
