<?xml version="1.0" encoding="UTF-8" standalone="no"?>
<svg xmlns="http://www.w3.org/2000/svg" height="156px" width="135px" version="1.1" xmlns:xlink="http://www.w3.org/1999/xlink" viewBox="0 0 135 156"><!-- Generator: Sketch 41.2 (35397) - http://www.bohemiancoding.com/sketch -->
 <title>i2</title>
 <desc>Created with Sketch.</desc>
 <defs>
  <circle id="path-1" cy="2.5" cx="67.5" r="2.5"/>
  <mask id="mask-2" maskContentUnits="userSpaceOnUse" height="5" width="5" y="0" x="0" maskUnits="objectBoundingBox" fill="white">
   <use xlink:href="#path-1"/>
  </mask>
  <circle id="path-3" cy="46" cx="3" r="3"/>
  <mask id="mask-4" maskContentUnits="userSpaceOnUse" height="6" width="6" y="0" x="0" maskUnits="objectBoundingBox" fill="white">
   <use xlink:href="#path-3"/>
  </mask>
  <circle id="path-5" cy="51" cx="104" r="4"/>
  <mask id="mask-6" maskContentUnits="userSpaceOnUse" height="8" width="8" y="0" x="0" maskUnits="objectBoundingBox" fill="white">
   <use xlink:href="#path-5"/>
  </mask>
  <circle id="path-7" cy="96" cx="67" r="60"/>
  <rect id="path-9" rx="6" height="51" width="51" y="0" x="0"/>
  <mask id="mask-10" maskContentUnits="userSpaceOnUse" height="51" width="51" y="0" x="0" maskUnits="objectBoundingBox" fill="white">
   <use xlink:href="#path-9"/>
  </mask>
  <rect id="path-11" rx="6" height="51" width="51" y="0" x="0"/>
  <mask id="mask-12" maskContentUnits="userSpaceOnUse" height="51" width="51" y="0" x="0" maskUnits="objectBoundingBox" fill="white">
   <use xlink:href="#path-11"/>
  </mask>
 </defs>
 <g id="Symbols" fill-rule="evenodd" fill="none">
  <g id="Step-2" transform="translate(-60 -18)">
   <g id="i2">
    <g transform="translate(60 18)">
     <g id="bg-thingy" transform="translate(13)">
      <use id="Oval-5" xlink:href="#path-1" stroke="#FAC5C5" stroke-width="3" mask="url(#mask-2)"/>
      <use id="Oval-6" xlink:href="#path-3" stroke="#FAC5C5" stroke-width="3" mask="url(#mask-4)"/>
      <use id="Oval-7" xlink:href="#path-5" stroke="#FAC5C5" stroke-width="3" mask="url(#mask-6)"/>
      <g id="Group" stroke-linejoin="round" transform="translate(30 13)" stroke="#FCE9BF" stroke-linecap="round" stroke-width="1.5">
       <path id="Combined-Shape" d="m8.3019 4.3595h-7.6897c-0.27618 0-0.50004 0.2239-0.50004 0.5 0 0.2762 0.22386 0.5 0.5 0.5h7.6897c0.2761 0 0.5-0.2238 0.5-0.5"/>
       <path id="Path-5" d="m3.957 1.0146v7.6898c0 0.2761 0.2239 0.5 0.5 0.5 0.2762 0 0.5-0.2239 0.5-0.5v-7.6898c0-0.27609-0.2238-0.49995-0.5-0.49995"/>
      </g>
      <g id="Group-Copy" stroke-linejoin="round" transform="translate(77.854 32.646) rotate(45) translate(-6.5 -6.5)" stroke="#FCE9BF" stroke-linecap="round" stroke-width="1.7">
       <path id="Combined-Shape" d="m11.821 6.0811h-10.766c-0.38649 0-0.69989 0.3234-0.69989 0.7222 0 0.3989 0.3134 0.7223 0.69999 0.7223h10.766c0.386 0 0.7-0.3234 0.7-0.7223"/>
       <path id="Path-5" d="m5.7157 1.4205v10.766c0 0.387 0.3234 0.7 0.7222 0.7 0.3989 0 0.7223-0.313 0.7223-0.7v-10.766c0-0.3861-0.3234-0.69949-0.7223-0.69949"/>
      </g>
     </g>
     <mask id="mask-8" fill="white">
      <use xlink:href="#path-7"/>
     </mask>
     <use id="Mask" xlink:href="#path-7" fill="#CFE3E6" fill-opacity=".9"/>
     <path id="Path-7" d="m14.857 111.47s27.948-17.422 33.288-17.422 21.049 12.422 33.149 12.422 31.976-24.447 36.976-24.447 18.66 28.297 38.4 33.697 3.94 28.72 3.94 28.72l-46.29 39.89-63.519-5.73-31.838-26.35-6.762-23.89 2.656-16.89z" fill-opacity=".5" mask="url(#mask-8)" transform="translate(89.397 133.18) scale(-1 1) translate(-89.397 -133.18)" fill="#fff"/>
     <circle id="Oval-3" r="53" mask="url(#mask-8)" cy="186" stroke="#B3AFB8" cx="41" stroke-width="1.5" fill="#F4F5EF"/>
     <circle id="Oval-3-Copy" r="53" mask="url(#mask-8)" cy="189" stroke="#B3AFB8" cx="72" stroke-width="1.5" fill="#F4F5EF"/>
     <path id="Path-2" stroke-linejoin="round" d="m43.75 143.75v-5.75" mask="url(#mask-8)" stroke="#B3AFB8" stroke-linecap="round" stroke-width="1.5"/>
     <path id="Oval-2" d="m44 137.83c5 0 5-3.54 5-7.91 0-4.38-2.595-7.92-5-7.92s-5 3.54-5 7.92c0 4.37 0 7.91 5 7.91z" mask="url(#mask-8)" stroke="#B3AFB8" stroke-width="1.5" fill="#EAECE0"/>
     <g id="fb" transform="translate(80 63)">
      <use id="Rectangle-8" xlink:href="#path-9" mask="url(#mask-10)" stroke="#B3AFB8" stroke-width="4" fill="#FFFFFF"/>
      <rect id="Rectangle-8-Copy" style="mix-blend-mode:multiply" rx="6" height="51" width="51" y="4" x="4" fill="#C0CBE2"/>
      <path id="icon-facebook-copy" fill="#fff" d="m30.444 16.438c-0.533 0-1.777 0.855-1.777 1.812v3.625h5.333v5.437h-5.333v12.688h-5.334v-12.688h-5.333v-5.437h5.333v-3.625c0-3.998 3.487-7.25 7.222-7.25h3.445v5.438h-3.556z"/>
     </g>
     <g id="t" transform="translate(0 63)">
      <use id="Rectangle-8" xlink:href="#path-11" mask="url(#mask-12)" stroke="#B3AFB8" stroke-width="4" fill="#FFFFFF"/>
      <rect id="Rectangle-8-Copy" style="mix-blend-mode:multiply" rx="6" height="51" width="51" y="4" x="4" fill="#C5DEEE"/>
      <path id="icon-twitter" fill="#fff" d="m39 17.485c-0.957 0.423-1.985 0.708-3.064 0.837 1.102-0.657 1.946-1.694 2.347-2.934-1.032 0.608-2.175 1.051-3.389 1.287-0.974-1.031-2.362-1.675-3.895-1.675-2.947 0-5.336 2.375-5.336 5.302 0 0.416 0.047 0.82 0.138 1.208-4.435-0.22-8.368-2.331-11-5.538-0.457 0.782-0.72 1.693-0.72 2.665 0 1.839 1.232 3.46 2.664 4.412-0.874-0.028-2.128-0.267-2.128-0.666v0.07c0 2.567 1.549 4.709 3.989 5.198-0.447 0.12-1.063 0.186-1.549 0.186-0.344 0-0.751-0.034-1.077-0.097 0.679 2.107 2.613 3.64 4.948 3.683-1.826 1.42-4.145 2.268-6.645 2.268-0.431 0-0.865-0.025-1.283-0.073 2.362 1.502 5.163 2.382 8.175 2.382 9.816 0 15.18-8.078 15.18-15.083 0-0.229-0.006-0.46-0.018-0.688 1.044-0.748 1.949-1.681 2.663-2.744"/>
     </g>
    </g>
   </g>
  </g>
 </g>
</svg>
