<?xml version="1.0" encoding="UTF-8" standalone="no"?>
<svg xmlns="http://www.w3.org/2000/svg" height="64px" width="64px" version="1.1" xmlns:xlink="http://www.w3.org/1999/xlink" viewBox="0 0 64 64"><!-- Generator: Sketch 41.2 (35397) - http://www.bohemiancoding.com/sketch -->
 <title>Group 4</title>
 <desc>Created with Sketch.</desc>
 <g id="🚧-Onboarding" fill-rule="evenodd" fill="none">
  <g id="Onboarding---3.11" fill="#98A162" transform="translate(-718 -246)">
   <g id="Group-4" transform="translate(718 246)">
    <path id="Rectangle-13" fill-opacity="0.18" d="m0 32c0-17.673 14.323-32 32-32 17.673 0 32 14.323 32 32 0 17.673-14.323 32-32 32-17.673 0-32-14.323-32-32z"/>
    <g id="check" transform="translate(15 16)">
     <path id="7" transform="translate(19 16) scale(-1 1) rotate(120) translate(-19 -16)" d="m10.536 2.8185c0 1.2532 0.744 2.0364 1.88 2.0364 2.311 0 4.356-0.1508 9.683-0.1508-1.489 6.1879-6.188 19.816-6.227 23.693 0 2.741 1.449 3.603 2.624 3.603 1.879 0 2.428-1.645 2.428-3.76 0-4.856 6.54-23.379 6.54-24.907 0-1.3703-1.018-2.6626-2.781-2.8976-1.919-0.27412-6.931-0.43076-9.36-0.43076-2.741-0.0000031-1.615-0.084117-3.573 0.46415-0.665 0.19581-1.214 1.449-1.214 2.3497z"/>
    </g>
   </g>
  </g>
 </g>
</svg>
