<?xml version="1.0" encoding="UTF-8" standalone="no"?>
<svg xmlns="http://www.w3.org/2000/svg" height="160px" width="203px" version="1.1" xmlns:xlink="http://www.w3.org/1999/xlink" viewBox="0 0 203 160">
 <defs>
  <circle id="path-1" cy="68" cx="14" r="1"/>
  <mask id="mask-2" maskContentUnits="userSpaceOnUse" height="2" width="2" y="0" x="0" maskUnits="objectBoundingBox" fill="white">
   <use xlink:href="#path-1"/>
  </mask>
  <circle id="path-3" cy="2.5" cx="33" r="2.5"/>
  <mask id="mask-4" maskContentUnits="userSpaceOnUse" height="5" width="5" y="0" x="0" maskUnits="objectBoundingBox" fill="white">
   <use xlink:href="#path-3"/>
  </mask>
  <circle id="path-5" cy="4.25" cx="153.75" r="1.25"/>
  <mask id="mask-6" maskContentUnits="userSpaceOnUse" height="2.5" width="2.5" y="0" x="0" maskUnits="objectBoundingBox" fill="white">
   <use xlink:href="#path-5"/>
  </mask>
  <circle id="path-7" cy="84.5" cx="170" r="2"/>
  <mask id="mask-8" maskContentUnits="userSpaceOnUse" height="4" width="4" y="0" x="0" maskUnits="objectBoundingBox" fill="white">
   <use xlink:href="#path-7"/>
  </mask>
 </defs>
 <g id="🚧-Onboarding" fill-rule="evenodd" fill="none">
  <g id="Onboarding---2.2" transform="translate(-423 -261)">
   <g id="twitter" transform="translate(422 261.5)">
    <g id="bg-thingy">
     <use id="Oval-3" xlink:href="#path-1" stroke="#FCE2D9" stroke-width="1.5" mask="url(#mask-2)"/>
     <use id="Oval-4" xlink:href="#path-3" stroke="#FCE2D9" stroke-width="1.5" mask="url(#mask-4)"/>
     <use id="Oval-5" xlink:href="#path-5" stroke="#FCE2D9" stroke-width="1.5" mask="url(#mask-6)"/>
     <use id="Oval-7" xlink:href="#path-7" stroke="#FCE2D9" stroke-width="1.5" mask="url(#mask-8)"/>
     <g id="Group" stroke-linejoin="round" transform="translate(180.5 30)" stroke="#FEF4DF" stroke-linecap="round" stroke-width=".75">
      <path id="Combined-Shape" d="m4.151 2.1798h-3.8449c-0.13809 0-0.25002 0.1119-0.25002 0.25-0.000001 0.138 0.11193 0.25 0.25 0.25h3.8449c0.138 0 0.25-0.112 0.25-0.25"/>
      <path id="Path-5" d="m1.9785 0.50732v3.8449c0 0.1381 0.1119 0.25 0.25 0.25s0.25-0.1119 0.25-0.25v-3.8449c0-0.13805-0.1119-0.24998-0.25-0.24998"/>
     </g>
     <g id="Group-Copy" stroke-linejoin="round" transform="translate(200.93 58.323) rotate(45) translate(-3.25 -3.25)" stroke="#FEF4DF" stroke-linecap="round" stroke-width=".85">
      <path id="Combined-Shape" d="m5.9104 3.0406h-5.3828c-0.19334 0-0.35004 0.1616-0.35004 0.3611 0 0.1994 0.1567 0.3611 0.35 0.3611h5.3828c0.1933 0 0.35-0.1617 0.35-0.3611"/>
      <path id="Path-5" d="m2.8579 0.71025v5.3828c0 0.1934 0.1616 0.3501 0.3611 0.3501 0.1994 0 0.3611-0.1567 0.3611-0.35v-5.3828c0-0.19335-0.1617-0.35005-0.3611-0.35005"/>
     </g>
     <g id="Group-Copy-3" stroke-linejoin="round" transform="translate(68.5 10.5)" stroke="#FEF4DF" stroke-linecap="round" stroke-width=".75">
      <path id="Combined-Shape" d="m5.0307 2.6102h-4.6139c-0.16567 0-0.29998 0.1368-0.29998 0.3055 0 0.1688 0.13431 0.3056 0.3 0.3056h4.6139c0.1657 0 0.3-0.1368 0.3-0.3056"/>
      <path id="Path-5" d="m2.4182 0.60879v4.6138c0 0.1657 0.1368 0.3 0.3055 0.3 0.1688 0 0.3056-0.1343 0.3056-0.3v-4.6138c0-0.1657-0.1368-0.30001-0.3056-0.30001"/>
     </g>
     <g id="Group-Copy-2" stroke-linejoin="round" transform="translate(4 37.25) rotate(45) translate(-2.5 -2.75)" stroke="#FEF4DF" stroke-linecap="round" stroke-width=".75">
      <path id="Combined-Shape" d="m4.5908 2.395h-4.2294c-0.15183 0-0.27495 0.1243-0.27495 0.2777-0.000002 0.1534 0.12312 0.2778 0.275 0.2778h4.2294c0.1519 0 0.275-0.1244 0.275-0.2778"/>
      <path id="Path-5" d="m2.1984 0.55806v4.2293c0 0.1519 0.1243 0.275 0.2777 0.275s0.2778-0.1231 0.2778-0.275v-4.2293c0-0.15192-0.1244-0.27504-0.2778-0.27504"/>
     </g>
    </g>
    <path id="Path-7" stroke-linejoin="round" stroke="#5AA8DF" stroke-linecap="round" d="m134.89 37.565s-23.26-22.01-54.592-6.687c-31.334 15.323-19.495 54.011-19.495 54.011s3.787 29.771-29.081 30.911c0 0 0 7.87 7.724 11.8-4.03 6.38-12.353 6.38-12.353 6.38s43.444 21.39 82.907-7.12c39.47-28.505 32.86-66.858 32.86-66.858l9.1-11.363-15.63 1.282 16.57-13.091-18.01 0.735z"/>
    <path id="Path-8" stroke-linejoin="round" d="m95.315 79.871s-26.405 3.929-48.131-14.283c-6.657 20.99 11.647 44.482 26.596 48.302" stroke="#5AA8DF" stroke-linecap="round" fill="#fff"/>
    <path id="Path-9" stroke-linejoin="round" d="m105.37 47.467s3.41-7.121 10.2-2.919" stroke="#5AA8DF" stroke-linecap="round" stroke-width="2"/>
    <path id="Path-10" stroke-linejoin="round" stroke="#5AA8DF" stroke-linecap="round" d="m74.679 141.45s2.526 3.57 4.455 3.57c1.928 0 4.151-5.43 4.151-5.43"/>
    <path id="Path-11" stroke-linejoin="round" stroke="#5AA8DF" stroke-linecap="round" d="m90.335 137.44s1.779 4.28 3.89 4.28c2.11 0 5.545-8.47 5.545-8.47"/>
    <path id="Path-12" stroke-linejoin="round" stroke="#5AA8DF" stroke-linecap="round" d="m74.5 158.36s3.857-6.17 9.222 0.19"/>
    <path id="Path-12-Copy" stroke-linejoin="round" stroke="#5AA8DF" stroke-linecap="round" d="m90 158.69s3.857-6.17 9.222 0.19"/>
    <path id="Path-13" stroke-linejoin="round" stroke="#5AA8DF" stroke-linecap="round" d="m79 145.18v10.49"/>
    <path id="Path-14" stroke-linejoin="round" stroke="#5AA8DF" stroke-linecap="round" d="m94 141.65v13.85"/>
    <path id="Combined-Shape" style="mix-blend-mode:multiply" fill-opacity=".18" fill="#5AA8DF" d="m62.303 75.229c-0.987-12.666 1.183-32.418 21.495-42.351 31.332-15.323 54.592 6.687 54.592 6.687l18.01-0.735-16.57 13.091 15.63-1.282-9.1 11.363s6.61 38.358-32.86 66.858c-39.463 28.51-82.907 7.12-82.907 7.12s8.323 0 12.353-6.38c-7.724-3.93-7.724-11.8-7.724-11.8 14.427-0.5 21.792-6.52 25.514-13.11-8.536-9.668-14.245-23.882-10.052-37.102 3.785 3.173 7.713 5.674 11.619 7.641z"/>
    <path id="Path-15" stroke-linejoin="round" stroke="#D9D7DB" stroke-linecap="round" d="m102.25 158.5h56.03"/>
    <path id="Path-15-Copy-2" stroke-linejoin="round" stroke="#D9D7DB" stroke-linecap="round" d="m16.25 158.5h56.03"/>
    <path id="Path-15-Copy" stroke-linejoin="round" stroke="#D9D7DB" stroke-linecap="round" d="m85.75 158.5h2.53"/>
   </g>
  </g>
 </g>
</svg>
