<?xml version="1.0" encoding="UTF-8" standalone="no"?>
<svg xmlns="http://www.w3.org/2000/svg" height="60px" width="60px" version="1.1" xmlns:xlink="http://www.w3.org/1999/xlink" viewBox="0 0 60 60"><!-- Generator: Sketch 41.2 (35397) - http://www.bohemiancoding.com/sketch -->
 <title>Group 6</title>
 <desc>Created with Sketch.</desc>
 <g id="🚧-Onboarding" fill-rule="evenodd" fill="none">
  <g id="Onboarding---3.3" transform="translate(-477 -529)">
   <g id="Group-6" transform="translate(477 529)">
    <path id="Rectangle-14" fill="#BEC4C7" d="m0 2.9959c0-1.6546 1.3373-2.9959 2.9959-2.9959h54.008c1.655 0 2.996 1.3373 2.996 2.9959v54.008c0 1.655-1.337 2.996-2.996 2.996h-54.008c-1.6547 0-2.996-1.337-2.996-2.996v-54.008z"/>
    <path id="Shape" fill="#fff" d="m14 18.51l12.977-1.768 0.006 12.518-12.971 0.074-0.012-10.824zm12.971 12.192l0.01 12.529-12.971-1.784-0.001-10.829 12.962 0.084zm1.573-14.191l17.207-2.511v15.101l-17.207 0.136v-12.726zm17.211 14.309l-0.004 15.033-17.207-2.429-0.024-12.632 17.235 0.028z"/>
   </g>
  </g>
 </g>
</svg>
