<?xml version="1.0" encoding="UTF-8" standalone="no"?>
<svg xmlns="http://www.w3.org/2000/svg" height="8px" width="12px" version="1.1" xmlns:xlink="http://www.w3.org/1999/xlink" viewBox="0 0 12 8">
 <g id="Symbols" fill-rule="evenodd" fill="none">
  <g id="Global/Icons/12/Eye" transform="translate(0 -2)">
   <g id="Group-2">
    <g id="Global/Icons/12/Eye">
     <rect id="Box" y="0" x="0" height="12" width="12"/>
     <path id="Fill-469" fill="#838D94" d="m6.0013 4.6667c-0.7373 0-1.3346 0.596-1.3346 1.3333 0 0.7367 0.5973 1.3333 1.3346 1.3333 0.7347 0 1.332-0.5966 1.332-1.3333 0-0.7373-0.5973-1.3333-1.332-1.3333"/>
     <path id="Fill-470" fill="#838D94" d="m5.9321 2c-2.3146 0-4.5366 1.406-5.7986 3.6707-0.00004 0-0.042704 0.0766-0.09537 0.172-0.052667 0.094-0.050667 0.2466 0.005333 0.3393l0.102 0.168c1.34 2.2173 3.612 3.65 5.7866 3.65 2.1654 0 4.3249-1.3387 5.7759-3.5807 0 0 0.052-0.0806 0.117-0.1806 0.065-0.0994 0.066-0.2614 0.004-0.362l-0.114-0.1827c-1.467-2.3473-3.5742-3.694-5.7829-3.694zm0.0107 6.6667c-1.4733 0-2.6673-1.194-2.6673-2.6667s1.194-2.6667 2.6673-2.6667c1.472 0 2.666 1.194 2.666 2.6667s-1.194 2.6667-2.666 2.6667z"/>
    </g>
   </g>
  </g>
 </g>
</svg>
