<?xml version="1.0" encoding="UTF-8" standalone="no"?>
<svg xmlns="http://www.w3.org/2000/svg" height="16px" width="14px" version="1.1" xmlns:xlink="http://www.w3.org/1999/xlink" viewBox="0 0 14 16">
 <g id="Symbols" fill-rule="evenodd" fill="none">
  <g id="icon_timer--active" fill="#838D94" transform="translate(-7 -6)">
   <g id="Group-2" transform="translate(7 6)">
    <g id="icon_timer--active">
     <path id="Fill-534" d="m8 2.079v-1.079h0.5c0.276 0 0.5-0.224 0.5-0.5s-0.224-0.5-0.5-0.5h-3c-0.276 0-0.5 0.224-0.5 0.5s0.224 0.5 0.5 0.5h0.5v1.079c-3.391 0.486-6 3.396-6 6.921 0 3.866 3.134 7 7 7s7-3.134 7-7c0-3.525-2.609-6.435-6-6.921zm-1 11.921c-2.757 0-5-2.243-5-5s2.243-5 5-5 5 2.243 5 5-2.243 5-5 5z"/>
     <path id="Fill-535" d="m9 9h-2v-2c0-0.553-0.447-1-1-1s-1 0.447-1 1v3c0 0.553 0.447 1 1 1h3c0.553 0 1-0.447 1-1s-0.447-1-1-1"/>
    </g>
   </g>
  </g>
 </g>
</svg>
