<?xml version="1.0" encoding="UTF-8"?>
<svg width="11px" height="12px" viewBox="0 0 11 12" version="1.1" xmlns="http://www.w3.org/2000/svg" xmlns:xlink="http://www.w3.org/1999/xlink">
    <!-- Generator: Sketch 45.2 (43514) - http://www.bohemiancoding.com/sketch -->
    <title>Group</title>
    <desc>Created with Sketch.</desc>
    <defs></defs>
    <g id="✏️-Time-tracking" stroke="none" stroke-width="1" fill="none" fill-rule="evenodd">
        <g id="Artboard" transform="translate(-147.000000, -72.000000)" fill="#838D94">
            <g id="Group" transform="translate(147.000000, 72.000000)">
                <path d="M6.75,6.75 L5.25,6.75 L5.25,5.25 C5.25,4.83525 4.91475,4.5 4.5,4.5 C4.08525,4.5 3.75,4.83525 3.75,5.25 L3.75,7.5 C3.75,7.91475 4.08525,8.25 4.5,8.25 L6.75,8.25 C7.16475,8.25 7.5,7.91475 7.5,7.5 C7.5,7.08525 7.16475,6.75 6.75,6.75" id="Fill-535"></path>
                <path d="M6.28571429,1.55925 L6.28571429,0.75 L6.67857143,0.75 C6.89542857,0.75 7.07142857,0.582 7.07142857,0.375 C7.07142857,0.168 6.89542857,0 6.67857143,0 L4.32142857,0 C4.10457143,0 3.92857143,0.168 3.92857143,0.375 C3.92857143,0.582 4.10457143,0.75 4.32142857,0.75 L4.71428571,0.75 L4.71428571,1.55925 C2.04992857,1.92375 0,4.10625 0,6.75 C0,9.6495 2.46242857,12 5.5,12 C8.53757143,12 11,9.6495 11,6.75 C11,4.10625 8.95007143,1.92375 6.28571429,1.55925 L6.28571429,1.55925 Z M5.5,10.5 C3.33378571,10.5 1.57142857,8.81775 1.57142857,6.75 C1.57142857,4.68225 3.33378571,3 5.5,3 C7.66621429,3 9.42857143,4.68225 9.42857143,6.75 C9.42857143,8.81775 7.66621429,10.5 5.5,10.5 L5.5,10.5 Z" id="Fill-534"></path>
            </g>
        </g>
    </g>
</svg>