<?xml version="1.0" encoding="UTF-8"?>
<svg width="14px" height="11px" viewBox="0 0 14 11" version="1.1" xmlns="http://www.w3.org/2000/svg" xmlns:xlink="http://www.w3.org/1999/xlink">
    <!-- Generator: Sketch 47.1 (45422) - http://www.bohemiancoding.com/sketch -->
    <title>Icon</title>
    <desc>Created with Sketch.</desc>
    <defs></defs>
    <g id="Symbols" stroke="none" stroke-width="1" fill="none" fill-rule="evenodd">
        <g id="Icons/Minor/Arrow-Right" transform="translate(-2.000000, -4.000000)" fill="#838D94">
            <path d="M11.3684786,4.25633974 C11.026359,3.91422009 10.4733676,3.91422009 10.1312479,4.25633974 C9.78912829,4.5984594 9.78912829,5.15145075 10.1312479,5.49357041 L13.0125779,8.37490039 L2.87498633,8.37490039 C2.39111889,8.37490039 2,8.76689426 2,9.24988672 C2,9.73287917 2.39111889,10.124873 2.87498633,10.124873 L13.0125779,10.124873 L10.1312479,13.006203 C9.78912829,13.3483227 9.78912829,13.901314 10.1312479,14.2434337 C10.3018703,14.414056 10.5258668,14.4998047 10.7498633,14.4998047 C10.9738598,14.4998047 11.1978563,14.414056 11.3684786,14.2434337 L15.7434103,9.86850205 C16.0855299,9.5263824 16.0855299,8.97339104 15.7434103,8.63127138 L11.3684786,4.25633974 Z" id="Icon" transform="translate(9.000000, 9.249777) scale(-1, 1) translate(-9.000000, -9.249777) "></path>
        </g>
    </g>
</svg>