<svg width="16" height="16" viewBox="0 0 16 16" xmlns="http://www.w3.org/2000/svg" xmlns:xlink="http://www.w3.org/1999/xlink"><title>icon--sidebar_sun</title><defs><path d="M8 4C5.8 4 4 5.8 4 8s1.8 4 4 4 4-1.8 4-4-1.8-4-4-4z" id="a"/><mask id="b" x="0" y="0" width="8" height="8" fill="#fff"><use xlink:href="#a"/></mask></defs><g fill="none" fill-rule="evenodd"><path d="M7 1c0-.553.444-1 1-1 .552 0 1 .443 1 1v1c0 .553-.444 1-1 1-.552 0-1-.443-1-1V1zm5.243 1.342c.39-.39 1.02-.392 1.414 0 .39.392.394 1.02 0 1.415l-.708.708c-.39.39-1.02.393-1.414 0-.39-.39-.395-1.02 0-1.414l.707-.708zm1.415 9.9c.39.39.392 1.022 0 1.415-.392.39-1.02.394-1.415 0l-.708-.708c-.39-.39-.393-1.02 0-1.414.39-.39 1.02-.395 1.414 0l.708.707zm-9.193-9.19c.39.39.393 1.02 0 1.412-.39.39-1.02.395-1.414 0l-.708-.707c-.39-.39-.392-1.02 0-1.414.392-.39 1.02-.394 1.415 0l.708.708zM3.05 11.534c.39-.39 1.02-.393 1.414 0 .39.39.395 1.02 0 1.414l-.707.708c-.39.39-1.02.392-1.414 0-.39-.392-.394-1.02 0-1.415l.708-.708zM15 7c.553 0 1 .444 1 1 0 .552-.443 1-1 1h-1c-.553 0-1-.444-1-1 0-.552.443-1 1-1h1zM2 7c.553 0 1 .444 1 1 0 .552-.443 1-1 1H1c-.553 0-1-.444-1-1 0-.552.443-1 1-1h1zm5 7c0-.553.444-1 1-1 .552 0 1 .443 1 1v1c0 .553-.444 1-1 1-.552 0-1-.443-1-1v-1z" fill="#838D94"/><use stroke="#838D94" mask="url(#b)" stroke-width="2" fill="#FFF" xlink:href="#a"/></g></svg>