<?xml version="1.0" encoding="UTF-8" standalone="no"?>
<svg xmlns="http://www.w3.org/2000/svg" height="16px" width="16px" version="1.1" xmlns:xlink="http://www.w3.org/1999/xlink" viewBox="0 0 16 16">
 <g id="Page-1" fill-rule="evenodd" fill="none">
  <g id="6.-Entry-saved" fill-rule="nonzero" fill="#BEC4C7" transform="translate(-206 -174)">
   <path id="Combined-Shape" d="m222 182c0 1.16-0.69 2.16-1.67 2.62 0.37 1.03 0.15 2.22-0.67 3.04s-2.01 1.04-3.04 0.67c-0.46 0.98-1.46 1.67-2.62 1.67s-2.16-0.69-2.62-1.67c-1.03 0.37-2.22 0.15-3.04-0.67s-1.04-2.01-0.67-3.04c-0.98-0.46-1.67-1.46-1.67-2.62s0.69-2.16 1.67-2.62c-0.37-1.03-0.15-2.22 0.67-3.04s2.01-1.04 3.04-0.67c0.46-0.98 1.46-1.67 2.62-1.67s2.16 0.69 2.62 1.67c1.03-0.37 2.22-0.15 3.04 0.67s1.04 2.01 0.67 3.04c0.98 0.46 1.67 1.46 1.67 2.62zm-7.58 5.09v-0.78c1.72-0.14 2.71-1.04 2.71-2.46 0-1.22-0.71-1.95-2.16-2.32l-0.55-0.12v-2.62c0.78 0.1 1.31 0.62 1.34 1.29h1.22c-0.03-1.3-1.03-2.23-2.56-2.35v-0.82h-0.8v0.82c-1.59 0.14-2.56 1.03-2.56 2.37 0 1.14 0.73 1.92 2.04 2.25l0.52 0.13v2.77c-0.89-0.09-1.45-0.59-1.51-1.31h-1.24c0.01 1.35 1.08 2.26 2.75 2.38v0.77h0.8zm1.47-3.12c0 0.77-0.54 1.25-1.47 1.3v-2.63c1.01 0.21 1.47 0.63 1.47 1.33zm-3.57-3.96c0-0.67 0.55-1.18 1.3-1.22v2.45c-0.84-0.17-1.3-0.6-1.3-1.23z"/>
  </g>
 </g>
</svg>
