<svg width="16" height="12" viewBox="0 0 16 12" xmlns="http://www.w3.org/2000/svg" xmlns:xlink="http://www.w3.org/1999/xlink"><title>icon--sidebar_mail</title><defs><path d="M0 1.002C0 .45.445 0 1 0h14c.552 0 1 .456 1 1.002v8.99C16 11.1 15.105 12 14.006 12H1.994C.894 12 0 11.098 0 9.99V1.003z" id="a"/><mask id="b" x="0" y="0" width="16" height="12" fill="#fff"><use xlink:href="#a"/></mask></defs><g fill="none" fill-rule="evenodd"><use stroke="#838D94" mask="url(#b)" stroke-width="2" stroke-linecap="round" stroke-linejoin="round" fill="#FFF" xlink:href="#a"/><path fill="#DADDDF" d="M1 3V1h14v2L9 7H7"/><path d="M14.752 2.566l-6.128 3.5c-.326.188-.924.187-1.248 0l-6.128-3.5c-.24-.137-.545-.054-.682.186s-.054.545.186.682L6.88 6.936c.63.36 1.607.362 2.24 0l6.128-3.502c.24-.137.323-.442.186-.682-.137-.24-.442-.323-.682-.186z" fill="#838D94" fill-rule="nonzero"/></g></svg>