<svg width="16" height="16" viewBox="0 0 16 16" xmlns="http://www.w3.org/2000/svg"><title>icon--sidebar_facebook</title><g fill-rule="nonzero" fill="none"><path d="M14.3 0c1 0 1.7.7 1.7 1.7v12.6c0 1-.7 1.7-1.7 1.7H1.7c-1 0-1.7-.7-1.7-1.6V1.7C0 .7.7 0 1.7 0h12.6z" fill="#DADDDF"/><path d="M14.3 1H1.7c-.4 0-.7.3-.7.7v12.7c0 .3.3.6.7.6h12.6c.4 0 .7-.3.7-.7V1.7c0-.4-.3-.7-.7-.7zm0-1c1 0 1.7.7 1.7 1.7v12.6c0 1-.7 1.7-1.7 1.7H1.7c-1 0-1.7-.7-1.7-1.6V1.7C0 .7.7 0 1.7 0h12.6z" fill="#838D94"/><path d="M10 15v-4h2l.5-2H10V7.5c0-1 .6-1.5 1.5-1.5h.5V4h-1.5C9 4 8 4.8 8 6.5V9H6v2h2v4h2zm1 1H7v-4H5V8h2V6.5C7 4.2 8.3 3 10.5 3H13v4h-1.5c-.3 0-.5.2-.5.5V8h2.7l-.8 4h-2v4z" fill="#838D94"/><path d="M10 16v-5h2l.5-2H10V7.5c0-1 .6-1.5 1.5-1.5h.5V4h-1.5C9 4 8 4.8 8 6.5V9H6v2h2v5h2z" fill="#FFF"/></g></svg>