<?xml version="1.0" encoding="UTF-8"?><svg width="16px" height="16px" viewBox="0 0 16 16" xmlns="http://www.w3.org/2000/svg" xmlns:xlink="http://www.w3.org/1999/xlink"><path d="M8 5.107C6.4 5.107 5.106 6.402 5.106 8c0 1.596 1.295 2.894 2.892 2.894 1.596 0 2.882-1.298 2.882-2.894 0-1.598-1.286-2.893-2.883-2.893zm5.797 4.555l-.52 1.255.928 1.826.123.24-1.29 1.29-2.114-.998-1.255.515-.64 1.95-.08.26H7.128l-.79-2.202-1.254-.518-1.83.928-.24.12-1.288-1.288.997-2.116-.517-1.254-1.948-.637L0 8.95V7.13l2.204-.79.517-1.254-.926-1.83-.122-.24L2.96 1.73l2.116.997 1.254-.52.637-1.95L7.05 0h1.82l.79 2.205 1.252.518 1.83-.928.242-.122 1.288 1.287-.997 2.114.515 1.256 1.953.637.257.082v1.82l-2.203.792z" fill="#A1AAAF" fill-rule="evenodd"/></svg>
