<?xml version="1.0" encoding="UTF-8" standalone="no"?>
<svg id="svg4518" xmlns:rdf="http://www.w3.org/1999/02/22-rdf-syntax-ns#" xmlns="http://www.w3.org/2000/svg" height="16" width="16" version="1.1" xmlns:cc="http://creativecommons.org/ns#" xmlns:dc="http://purl.org/dc/elements/1.1/">
 <g id="g4488" transform="translate(0 -96.196)">
  <rect id="canvas_background" height="402" width="582" y="-1" x="-1" fill="none"/>
 </g>
 <path id="svg_4" d="m0.005388 8.0114c-0.09595 3.7342 2.9029 7.2618 6.6719 7.8491 2.9389 0.54395 6.2767-0.50981 7.9588-3.0193 1.2022-1.7345 1.4753-3.9148 1.3272-5.9628-2.6023-0.0228-5.2047-0.0152-7.8071-0.0114l0.0045 2.7799 4.6766-0.005c-0.405 1.4531-1.509 2.7551-3.0241 3.1681-2.593 0.88-5.7581-0.696-6.4764-3.309-0.9325-2.5934 0.8111-5.7237 3.5342-6.3821 1.6101-0.4834 3.2983 0.1508 4.6693 0.9741 0.724-0.6635 1.402-1.3731 2.069-2.0912-1.687-1.4065-3.9358-2.1977-6.1575-1.9598-4.0866 0.21197-7.609 3.9589-7.4461 7.9694z" fill="#fff"/>
</svg>
