<svg width="32" height="32" viewBox="0 0 32 32" xmlns="http://www.w3.org/2000/svg" xmlns:xlink="http://www.w3.org/1999/xlink"><title>icon--search--32--focused</title><defs><path d="M13 0C5.8 0 0 5.8 0 13s5.8 13 13 13 13-5.8 13-13S20.2 0 13 0z" id="a"/><mask id="b" x="0" y="0" width="26" height="26" fill="#fff"><use xlink:href="#a"/></mask></defs><g fill="none" fill-rule="evenodd"><use stroke="#838D94" mask="url(#b)" stroke-width="2" fill="#FFF" xlink:href="#a"/><path d="M8 13H6c0-4 3-7 7-7v2c-2.8 0-5 2.2-5 5z" fill="#85B8C1" fill-rule="nonzero"/><path d="M31.4 28.6c.8.8.8 2 0 2.8-.8.8-2 .8-2.8 0l-7-6.8.6-.4 2-2 .4-.5 6.8 7z" fill="#C4DDE1" fill-rule="nonzero"/><path d="M31.4 28.6c.8.8.8 2 0 2.8-.8.8-2 .8-2.8 0l-7-6.8.6-.4 2-2 .4-.5 6.8 7zm-6.8-5.4l-1.4 1.4 6 6c.5.5 1 .5 1.5 0 .4-.3.4-1 0-1.3l-6-6z" fill="#838D94" fill-rule="nonzero"/></g></svg>