<svg width="12" height="11" viewBox="0 0 12 11" xmlns="http://www.w3.org/2000/svg"><path d="M6.59.32c-.233-.427-.947-.427-1.18 0L.08 10.11c-.11.203-.103.41.017.608.12.196.337.282.572.282h10.666c.235 0 .452-.086.572-.282.12-.197.127-.405.017-.608L6.59.32zm-.257 9.053h-.666c-.184 0-.334-.15-.334-.333v-.667c0-.184.15-.333.334-.333h.666c.184 0 .334.15.334.333v.667c0 .184-.15.333-.334.333zm0-2.04h-.666c-.184 0-.334-.15-.334-.333V3c0-.184.15-.333.334-.333h.666c.184 0 .334.15.334.333v4c0 .184-.15.333-.334.333z" fill="#E86048" fill-rule="evenodd"/></svg>
