<svg width="32" height="28" viewBox="0 0 32 28" xmlns="http://www.w3.org/2000/svg" xmlns:xlink="http://www.w3.org/1999/xlink"><title>icon--convo--32</title><defs><path d="M0 10c0-3.3 2.7-6 6-6h7c3.3 0 6 2.7 6 6v1c0 3.3-2.7 6-5.8 6l-3.4 2.8c-.5.4-1 .2-1.2-.3l-1-2.5H6c-3.3 0-6-2.7-6-6v-1z" id="a"/><mask id="c" x="0" y="0" width="19" height="16" fill="#fff"><use xlink:href="#a"/></mask><path d="M13 18c0-3.3 2.7-6 6-6h7c3.3 0 6 2.7 6 6v1c0 3.3-2.7 6-5.8 6L23 27.8c-.5.4-1 .2-1.2-.3l-1-2.5H19c-3.3 0-6-2.7-6-6v-1z" id="b"/><mask id="d" x="0" y="0" width="19" height="16" fill="#fff"><use xlink:href="#b"/></mask></defs><g fill="none" fill-rule="evenodd"><use stroke="#838D94" mask="url(#c)" stroke-width="2" fill="#DADDDF" transform="matrix(-1 0 0 1 19 0)" xlink:href="#a"/><use stroke="#838D94" mask="url(#d)" stroke-width="2" fill="#FFF" xlink:href="#b"/><rect fill="#838D94" x="3" y="9" width="3" height="3" rx="1.5"/><rect fill="#838D94" x="8" y="9" width="3" height="3" rx="1.5"/><rect fill="#838D94" x="13" y="9" width="3" height="3" rx="1.5"/><rect fill="#838D94" transform="rotate(-20 20.795 2.69)" x="19.8" y=".2" width="2" height="5" rx="1"/><rect fill="#838D94" transform="rotate(70 28.69 6.795)" x="27.7" y="4.3" width="2" height="5" rx="1"/><rect fill="#838D94" transform="rotate(30 26.116 2.665)" x="25.1" y=".2" width="2" height="5" rx="1"/></g></svg>