<svg width="16" height="16" viewBox="0 0 16 16" xmlns="http://www.w3.org/2000/svg" xmlns:xlink="http://www.w3.org/1999/xlink"><title>icon--search</title><defs><path d="M7 14c-3.8 0-7-3-7-7 0-3.8 3.2-7 7-7s7 3.2 7 7c0 4-3.2 7-7 7z" id="a"/><mask id="b" x="0" y="0" width="14" height="14" fill="#fff"><use xlink:href="#a"/></mask></defs><g fill="none" fill-rule="evenodd"><path d="M12.5 11L11 12.4l3.2 3.2c.2.2.5.3.7.3.2 0 .5 0 .7-.3.4-.4.4-1 0-1.5L12.5 11z" fill="#838D94" fill-rule="nonzero"/><use stroke="#838D94" mask="url(#b)" stroke-width="2" fill="#FFF" xlink:href="#a"/><path d="M3 6s0-3 3-3" stroke="#838D94" stroke-linecap="round" stroke-linejoin="round"/></g></svg>