<svg width="54" height="54" viewBox="0 0 54 54" xmlns="http://www.w3.org/2000/svg" xmlns:xlink="http://www.w3.org/1999/xlink"><defs><path d="M0 20.992C0 9.417 9.416 0 20.992 0c11.574 0 20.99 9.417 20.99 20.992 0 11.575-9.416 20.99-20.99 20.99C9.416 41.983 0 32.568 0 20.993z" id="b"/><filter x="-31%" y="-23.8%" width="161.9%" height="161.9%" filterUnits="objectBoundingBox" id="a"><feOffset dy="1" in="SourceAlpha" result="shadowOffsetOuter1"/><feGaussianBlur stdDeviation="1.5" in="shadowOffsetOuter1" result="shadowBlurOuter1"/><feColorMatrix values="0 0 0 0 0.176470588 0 0 0 0 0.192156863 0 0 0 0 0.219607843 0 0 0 0.09 0" in="shadowBlurOuter1" result="shadowMatrixOuter1"/><feOffset dy="2" in="SourceAlpha" result="shadowOffsetOuter2"/><feGaussianBlur stdDeviation="3" in="shadowOffsetOuter2" result="shadowBlurOuter2"/><feColorMatrix values="0 0 0 0 0 0 0 0 0 0 0 0 0 0 0 0 0 0 0.06 0" in="shadowBlurOuter2" result="shadowMatrixOuter2"/><feMerge><feMergeNode in="shadowMatrixOuter1"/><feMergeNode in="shadowMatrixOuter2"/></feMerge></filter></defs><g fill="none" fill-rule="evenodd"><g transform="translate(6 4)"><use fill="#000" filter="url(#a)" xlink:href="#b"/><use fill="#FFF" xlink:href="#b"/></g><g fill="#E86048"><path d="M26.992 45.99C15.416 45.99 6 36.572 6 24.997 6 13.423 15.416 4.006 26.992 4.006c11.574 0 20.99 9.417 20.99 20.992 0 11.575-9.416 20.99-20.99 20.99zM26.99 5.994c-10.478 0-19 8.523-19 19 0 10.478 8.522 19 19 19 10.476 0 19-8.522 19-19 0-10.477-8.524-19-19-19z"/><path d="M22.635 19.743c0 1.375-1.114 2.49-2.488 2.49-1.375 0-2.49-1.115-2.49-2.49 0-1.374 1.115-2.49 2.49-2.49 1.374 0 2.488 1.116 2.488 2.49M36.325 19.743c0 1.375-1.114 2.49-2.49 2.49-1.374 0-2.488-1.115-2.488-2.49 0-1.374 1.114-2.49 2.49-2.49 1.374 0 2.488 1.116 2.488 2.49M16.145 35.187c.348.446.99.527 1.44.18l.757-.59c.118-.087.255-.215.393-.298l.447-.28c.158-.102.325-.21.502-.32l.61-.322c.41-.245.895-.43 1.398-.64.245-.118.52-.183.792-.27.275-.073.542-.192.833-.248.578-.128 1.17-.272 1.79-.32.596-.1 1.216-.064 1.827-.09l.03.004.027.002.03-.002.03-.003c.61.026 1.23-.01 1.828.09.618.048 1.21.192 1.788.32.292.056.558.175.834.248.27.087.546.152.792.27.502.21.987.395 1.4.64.21.112.414.22.608.32l.5.32c.16.1.31.195.448.28.138.084.275.212.394.3l.758.59c.447.346 1.09.265 1.438-.18.32-.412.277-.987-.077-1.348l-.67-.686c-.195-.216-.51-.48-.884-.782-.185-.15-.383-.31-.59-.48-.216-.142-.442-.29-.678-.447-.466-.33-1.017-.606-1.597-.908-.284-.163-.602-.274-.918-.408-.322-.124-.642-.276-.988-.368-.688-.2-1.4-.41-2.15-.514-.74-.163-1.59-.206-2.28-.206-.688 0-1.547.1-2.306.206-.748.105-1.46.315-2.15.514-.344.092-.666.244-.986.367-.317.133-.635.244-.92.407-.58.302-1.13.578-1.596.908l-.678.448-.59.48c-.374.3-.69.565-.885.78l-.67.687c-.355.36-.397.936-.078 1.347"/></g></g></svg>
