<svg width="54" height="54" viewBox="0 0 54 54" xmlns="http://www.w3.org/2000/svg" xmlns:xlink="http://www.w3.org/1999/xlink"><defs><path d="M20.992 41.983C9.416 41.983 0 32.567 0 20.993 0 9.416 9.416 0 20.992 0c11.574 0 20.99 9.417 20.99 20.992 0 11.575-9.416 20.99-20.99 20.99z" id="b"/><filter x="-31%" y="-23.8%" width="161.9%" height="161.9%" filterUnits="objectBoundingBox" id="a"><feOffset dy="1" in="SourceAlpha" result="shadowOffsetOuter1"/><feGaussianBlur stdDeviation="1.5" in="shadowOffsetOuter1" result="shadowBlurOuter1"/><feColorMatrix values="0 0 0 0 0.176470588 0 0 0 0 0.192156863 0 0 0 0 0.219607843 0 0 0 0.09 0" in="shadowBlurOuter1" result="shadowMatrixOuter1"/><feOffset dy="2" in="SourceAlpha" result="shadowOffsetOuter2"/><feGaussianBlur stdDeviation="3" in="shadowOffsetOuter2" result="shadowBlurOuter2"/><feColorMatrix values="0 0 0 0 0 0 0 0 0 0 0 0 0 0 0 0 0 0 0.06 0" in="shadowBlurOuter2" result="shadowMatrixOuter2"/><feMerge><feMergeNode in="shadowMatrixOuter1"/><feMergeNode in="shadowMatrixOuter2"/></feMerge></filter></defs><g fill="none" fill-rule="evenodd"><g transform="translate(6 4)"><use fill="#000" filter="url(#a)" xlink:href="#b"/><use fill="#FFF" xlink:href="#b"/></g><path d="M26.992 45.99C15.416 45.99 6 36.572 6 24.997 6 13.423 15.416 4.006 26.992 4.006c11.574 0 20.99 9.417 20.99 20.992 0 11.575-9.416 20.99-20.99 20.99zM26.99 5.994c-10.478 0-19 8.523-19 19 0 10.478 8.522 19 19 19 10.476 0 19-8.522 19-19 0-10.477-8.524-19-19-19z" fill="#4EAC5E"/><path d="M37.838 29.437c-.348-.446-.99-.527-1.44-.18l-.757.59c-.117.087-.254.215-.392.298-.14.086-.288.18-.447.28l-.5.32c-.195.102-.397.21-.61.32-.41.246-.896.43-1.4.64-.244.12-.52.184-.79.27-.276.074-.543.193-.834.25-.578.127-1.17.27-1.79.318-.596.102-1.216.065-1.827.09l-.03-.003-.028-.002-.03.002-.03.003c-.61-.025-1.23.012-1.827-.09-.618-.047-1.21-.19-1.788-.32-.292-.055-.558-.174-.834-.247-.27-.087-.546-.152-.792-.27-.5-.21-.986-.395-1.398-.64-.212-.112-.415-.22-.61-.32l-.5-.32-.447-.28c-.138-.084-.275-.212-.394-.3l-.757-.59c-.447-.346-1.09-.265-1.438.18-.32.412-.277.987.077 1.348l.67.686c.196.216.512.48.885.782.185.15.383.31.59.48.216.142.442.29.678.447.466.33 1.017.605 1.597.907.285.163.603.274.92.408.32.123.64.275.987.367.687.2 1.4.41 2.148.514.74.163 1.59.206 2.28.206.69 0 1.548-.1 2.307-.206.748-.105 1.46-.315 2.15-.514.344-.092.666-.244.986-.367.318-.134.636-.245.92-.408.58-.302 1.13-.578 1.597-.908.236-.157.463-.306.678-.45.208-.167.405-.328.59-.478.374-.302.69-.566.885-.782l.67-.686c.355-.36.397-.936.078-1.347M36.325 19.743c0 1.375-1.114 2.49-2.49 2.49-1.374 0-2.488-1.115-2.488-2.49 0-1.374 1.114-2.49 2.49-2.49 1.374 0 2.488 1.116 2.488 2.49M22.635 19.743c0 1.375-1.114 2.49-2.488 2.49-1.375 0-2.49-1.115-2.49-2.49 0-1.374 1.115-2.49 2.49-2.49 1.374 0 2.488 1.116 2.488 2.49" fill="#4EAC5E"/></g></svg>
