<svg width="14" height="16" viewBox="0 0 14 16" xmlns="http://www.w3.org/2000/svg" xmlns:xlink="http://www.w3.org/1999/xlink"><title>icon--org</title><defs><path d="M12 1c0-.6-.4-1-1-1H3c-.6 0-1 .4-1 1v15h10V1z" id="a"/><path d="M6 9c0-.6-.4-1-1-1H1c-.6 0-1 .4-1 1v7h6V9z" id="b"/><path d="M14 7c0-.6-.4-1-1-1H9c-.6 0-1 .4-1 1v9h6V7z" id="c"/></defs><g fill="none" fill-rule="evenodd"><g fill-rule="nonzero"><use fill="#DADDDF" fill-rule="evenodd" xlink:href="#a"/><path stroke="#838D94" d="M11.5 15.5h-9V1c0-.3.2-.5.5-.5h8c.3 0 .5.2.5.5v14.5z"/></g><g fill-rule="nonzero"><use fill="#FFF" fill-rule="evenodd" xlink:href="#b"/><path stroke="#838D94" d="M5.5 15.5h-5V9c0-.3.2-.5.5-.5h4c.3 0 .5.2.5.5v6.5z"/></g><g fill-rule="nonzero"><use fill="#FFF" fill-rule="evenodd" xlink:href="#c"/><path stroke="#838D94" d="M13.5 15.5h-5V7c0-.3.2-.5.5-.5h4c.3 0 .5.2.5.5v8.5z"/></g><path d="M2.5 10.5h1-1zm0 2h1-1zm8-4h1-1zm0 2h1-1zm0 2h1-1z" stroke="#838D94"/></g></svg>
