<svg width="14" height="14" viewBox="0 0 14 14" xmlns="http://www.w3.org/2000/svg" xmlns:xlink="http://www.w3.org/1999/xlink"><title>icon--org</title><defs><path d="M12 1c0-.6-.4-1-1-1H3c-.6 0-1 .4-1 1v13h10V1z" id="a"/><mask id="i" x="0" y="0" width="10" height="14" fill="#fff"><use xlink:href="#a"/></mask><path d="M6 7c0-.6-.4-1-1-1H1c-.6 0-1 .4-1 1v7h6V7z" id="b"/><mask id="j" x="0" y="0" width="6" height="8" fill="#fff"><use xlink:href="#b"/></mask><path d="M14 5c0-.6-.4-1-1-1H9c-.6 0-1 .4-1 1v9h6V5z" id="c"/><mask id="k" x="0" y="0" width="6" height="10" fill="#fff"><use xlink:href="#c"/></mask><path id="d" d="M2 8h2v1H2z"/><mask id="l" x="0" y="0" width="2" height="1" fill="#fff"><use xlink:href="#d"/></mask><path id="e" d="M2 10h2v1H2z"/><mask id="m" x="0" y="0" width="2" height="1" fill="#fff"><use xlink:href="#e"/></mask><path id="f" d="M10 6h2v1h-2z"/><mask id="n" x="0" y="0" width="2" height="1" fill="#fff"><use xlink:href="#f"/></mask><path id="g" d="M10 8h2v1h-2z"/><mask id="o" x="0" y="0" width="2" height="1" fill="#fff"><use xlink:href="#g"/></mask><path id="h" d="M10 10h2v1h-2z"/><mask id="p" x="0" y="0" width="2" height="1" fill="#fff"><use xlink:href="#h"/></mask></defs><g stroke="#838D94" stroke-width="2" fill="none" fill-rule="evenodd"><use mask="url(#i)" fill="#DADDDF" fill-rule="nonzero" xlink:href="#a"/><use mask="url(#j)" fill="#FFF" fill-rule="nonzero" xlink:href="#b"/><use mask="url(#k)" fill="#FFF" fill-rule="nonzero" xlink:href="#c"/><use mask="url(#l)" xlink:href="#d"/><use mask="url(#m)" xlink:href="#e"/><use mask="url(#n)" xlink:href="#f"/><use mask="url(#o)" xlink:href="#g"/><use mask="url(#p)" xlink:href="#h"/></g></svg>