<svg width="28" height="32" viewBox="0 0 28 32" xmlns="http://www.w3.org/2000/svg" xmlns:xlink="http://www.w3.org/1999/xlink"><title>icon--org--32--focused</title><defs><path d="M5 4c0-1 1-2 2-2h14c1 0 2 1 2 2v28H5V4z" id="a"/><mask id="e" x="0" y="0" width="18" height="30" fill="#fff"><use xlink:href="#a"/></mask><path d="M11 1c0-.6.5-1 1-1h4c.6 0 1 .4 1 1v2h-6V1z" id="b"/><mask id="f" x="0" y="0" width="6" height="3" fill="#fff"><use xlink:href="#b"/></mask><path d="M0 18c0-1 1-2 2-2h9c1 0 2 1 2 2v14H0V18z" id="c"/><mask id="g" x="0" y="0" width="13" height="16" fill="#fff"><use xlink:href="#c"/></mask><path d="M15 13c0-1 1-2 2-2h9c1 0 2 1 2 2v19H15V13z" id="d"/><mask id="h" x="0" y="0" width="13" height="21" fill="#fff"><use xlink:href="#d"/></mask></defs><g fill="none" fill-rule="evenodd"><use stroke="#838D94" mask="url(#e)" stroke-width="2" fill="#FCE5AF" xlink:href="#a"/><use stroke="#838D94" mask="url(#f)" stroke-width="2" fill="#FFF" xlink:href="#b"/><use stroke="#838D94" mask="url(#g)" stroke-width="2" fill="#FFF" xlink:href="#c"/><use stroke="#838D94" mask="url(#h)" stroke-width="2" fill="#FFF" xlink:href="#d"/><path fill="#F9CA56" d="M4 20h5v2H4zM4 24h5v2H4zM19 16h5v2h-5zM19 20h5v2h-5zM19 24h5v2h-5z"/></g></svg>