<svg width="21" height="15" viewBox="0 0 21 15" xmlns="http://www.w3.org/2000/svg"><title>Combined Shape</title><path d="M10.007 10H9v3.625C9 14.315 8.234 15 7.543 15h-6.5C.35 15 0 14.316 0 13.625v-6.75c0-.345.016-.877.164-1.19L2.38.785C2.574.312 3.03 0 3.544 0h2.074C5.962 0 6 .28 6 .625v.75C6 1.72 5.962 2 5.617 2H3.99L3 6h4.75C8.434 6 9 6.56 9 7.25V8h2.013v-.75c0-.69.666-1.25 1.35-1.25h4.65l-.99-4h-1.627c-.345 0-.383-.28-.383-.625v-.75c0-.345.038-.625.383-.625h2.075c.514 0 .97.31 1.164.786l2.217 4.9c.148.312.164.844.164 1.19v6.75c0 .69-.35 1.374-1.042 1.374h-6.5c-.69 0-1.456-.684-1.456-1.375V10H10.01zm-3.632 0h-3.75C2.28 10 2 9.72 2 9.375v-.75C2 8.28 2.28 8 2.625 8h3.75C6.72 8 7 8.28 7 8.625v.75c0 .345-.28.625-.625.625zm11 0h-3.75C13.28 10 13 9.72 13 9.375v-.75c0-.345.28-.625.625-.625h3.75c.345 0 .625.28.625.625v.75c0 .345-.28.625-.625.625z" fill="#FFF" fill-rule="evenodd"/></svg>