<svg width="16" height="16" viewBox="0 0 16 16" xmlns="http://www.w3.org/2000/svg" xmlns:xlink="http://www.w3.org/1999/xlink"><title>icon--sidebar_moon</title><defs><path d="M0 8.9C0 12.8 3.2 16 7.1 16c3.3 0 6-2.2 6.9-5.2C8.7 12.2 3.8 7.3 5.2 2 2.2 2.8 0 5.6 0 8.9z" id="a"/><mask id="b" x="0" y="0" width="14" height="14" fill="#fff"><use xlink:href="#a"/></mask></defs><g fill="none" fill-rule="evenodd"><path d="M0 8.9C0 12.8 3.2 16 7.1 16c3.3 0 6-2.2 6.9-5.2C8.7 12.2 3.8 7.3 5.2 2 2.2 2.8 0 5.6 0 8.9z" fill="#FFF"/><use stroke="#838D94" mask="url(#b)" stroke-width="2" stroke-linejoin="round" xlink:href="#a"/><ellipse fill="#838D94" cx="11" cy="1" rx="1" ry="1"/><circle fill="#838D94" cx="15" cy="7" r="1"/><ellipse fill="#838D94" cx="10" cy="6" rx="1" ry="1"/></g></svg>
