<svg width="20" height="20" viewBox="0 0 20 20" xmlns="http://www.w3.org/2000/svg"><g fill="none" fill-rule="evenodd"><path d="M0 10.625C0 10.28.28 10 .625 10h7.75c.345 0 .625.28.625.625V20H0v-9.375zM11 7.625c0-.345.28-.625.625-.625h7.75c.345 0 .625.28.625.625V20h-9V7.625z" fill="#FFF"/><path d="M2 14.375v-.75c0-.345.28-.625.625-.625h3.75c.345 0 .625.28.625.625v.75c0 .345-.28.625-.625.625h-3.75C2.28 15 2 14.72 2 14.375zM13 15.375v-.75c0-.345.28-.625.625-.625h3.75c.345 0 .625.28.625.625v.75c0 .345-.28.625-.625.625h-3.75c-.345 0-.625-.28-.625-.625zM13 11.375v-.75c0-.345.28-.625.625-.625h3.75c.345 0 .625.28.625.625v.75c0 .345-.28.625-.625.625h-3.75c-.345 0-.625-.28-.625-.625z" fill="#40364D"/><path d="M4 8V.997C4 .447 4.456 0 5.002 0h9.996C15.55 0 16 .444 16 1v4h-2V2H6v6H4z" fill="#FFF"/></g></svg>
