<svg width="20" height="20" viewBox="0 0 20 20" xmlns="http://www.w3.org/2000/svg"><g fill="none" fill-rule="evenodd"><g fill="#FFF"><path d="M19 20h-7c-.553 0-1-.447-1-1V7c0-.553.447-1 1-1h7c.553 0 1 .447 1 1v12c0 .553-.447 1-1 1zm-4.5-10c.276 0 .5-.224.5-.5v-1c0-.276-.224-.5-.5-.5h-1c-.276 0-.5.224-.5.5v1c0 .276.224.5.5.5h1zm3 0c.276 0 .5-.224.5-.5v-1c0-.276-.224-.5-.5-.5h-1c-.276 0-.5.224-.5.5v1c0 .276.224.5.5.5h1zm-3 3c.276 0 .5-.224.5-.5v-1c0-.276-.224-.5-.5-.5h-1c-.276 0-.5.224-.5.5v1c0 .276.224.5.5.5h1zm3 0c.276 0 .5-.224.5-.5v-1c0-.276-.224-.5-.5-.5h-1c-.276 0-.5.224-.5.5v1c0 .276.224.5.5.5h1zm-3 3c.276 0 .5-.224.5-.5v-1c0-.276-.224-.5-.5-.5h-1c-.276 0-.5.224-.5.5v1c0 .276.224.5.5.5h1zm3 0c.276 0 .5-.224.5-.5v-1c0-.276-.224-.5-.5-.5h-1c-.276 0-.5.224-.5.5v1c0 .276.224.5.5.5h1zM8 20H1c-.553 0-1-.447-1-1v-8c0-.553.447-1 1-1h7c.553 0 1 .447 1 1v8c0 .553-.447 1-1 1zm-4.5-3c.276 0 .5-.224.5-.5v-1c0-.276-.224-.5-.5-.5h-1c-.276 0-.5.224-.5.5v1c0 .276.224.5.5.5h1zm0-3c.276 0 .5-.224.5-.5v-1c0-.276-.224-.5-.5-.5h-1c-.276 0-.5.224-.5.5v1c0 .276.224.5.5.5h1zm3 3c.276 0 .5-.224.5-.5v-1c0-.276-.224-.5-.5-.5h-1c-.276 0-.5.224-.5.5v1c0 .276.224.5.5.5h1zm0-3c.276 0 .5-.224.5-.5v-1c0-.276-.224-.5-.5-.5h-1c-.276 0-.5.224-.5.5v1c0 .276.224.5.5.5h1z"/><path d="M11.005 4H15V1c0-.553-.447-1-1-1H5c-.553 0-1 .447-1 1v7h5V6.005C9 4.898 9.894 4 11.005 4z"/></g><path d="M-2-2h24v24H-2z"/></g></svg>
