<?xml version="1.0" encoding="UTF-8"?>
<svg width="6px" height="8px" viewBox="0 0 6 8" version="1.1" xmlns="http://www.w3.org/2000/svg" xmlns:xlink="http://www.w3.org/1999/xlink">
    <!-- Generator: Sketch 45.1 (43504) - http://www.bohemiancoding.com/sketch -->
    <title>Fill 27 Copy 2</title>
    <desc>Created with Sketch.</desc>
    <defs></defs>
    <g id="Page-1" stroke="none" stroke-width="1" fill="none" fill-rule="evenodd">
        <g id="Artboard" transform="translate(-303.000000, -155.000000)" fill="#FFFFFF">
            <g id="Group-9" transform="translate(64.000000, 49.000000)">
                <g id="Group-2" transform="translate(232.000000, 100.000000)">
                    <path d="M11.5,14 C11.224,14 11,13.776 11,13.5 L11,6.5 C11,6.224 11.224,6 11.5,6 L12.5,6 C12.776,6 13,6.224 13,6.5 L13,13.5 C13,13.776 12.776,14 12.5,14 L11.5,14 Z M7.5,14 C7.224,14 7,13.776 7,13.5 L7,6.5 C7,6.224 7.224,6 7.5,6 L8.5,6 C8.776,6 9,6.224 9,6.5 L9,13.5 C9,13.776 8.776,14 8.5,14 L7.5,14 Z" id="Fill-27-Copy-2"></path>
                </g>
            </g>
        </g>
    </g>
</svg>