<svg xmlns="http://www.w3.org/2000/svg" width="16" height="16" viewBox="0 0 16 16"><g fill="none"><g fill="#E0AF2A"><path d="M12.9 5C12.6 4.9 12.3 4.9 12.1 5.1L9.5 7.7C9.3 7.9 9.2 8.2 9.3 8.5 9.3 8.5 9.6 9.3 9.7 10.3 9.7 11.3 9.5 12.2 9 12.9L6.1 9.9C6.1 9.9 6.1 9.9 6.1 9.9 6.1 9.9 6.1 9.9 6.1 9.9L3.1 7C5 5.7 7.4 6.6 7.5 6.7 7.8 6.8 8.1 6.7 8.3 6.5L10.9 3.9C11.1 3.7 11.1 3.4 11 3.1 10.8 2.6 10.9 2.1 11 1.8L14.2 5C13.9 5.1 13.4 5.2 12.9 5M15.8 4.6L11.4 0.2C11.1-0.1 10.7-0.1 10.4 0.2 10.4 0.3 9.1 1.6 9.6 3.3L7.6 5.2C6.5 4.9 3.7 4.3 1.6 6.4 1.3 6.7 1.3 7.1 1.6 7.4L4.6 10.4 0.2 14.8C-0.1 15.1-0.1 15.5 0.2 15.8 0.3 15.9 0.5 16 0.7 16 0.9 16 1.1 15.9 1.2 15.8L5.6 11.4 8.6 14.4C8.7 14.5 8.9 14.6 9.1 14.6 9.3 14.6 9.4 14.5 9.6 14.4 11.7 12.3 11.1 9.5 10.8 8.4L12.7 6.4C14.4 6.9 15.7 5.6 15.8 5.6 16.1 5.3 16.1 4.9 15.8 4.6"/></g></g></svg>
