<svg width="19" height="14" viewBox="0 0 19 14" xmlns="http://www.w3.org/2000/svg" xmlns:xlink="http://www.w3.org/1999/xlink"><title>icon--sidebar_twitter</title><defs><path d="M17 3l-1.8.4c.6-.4 1-1 1.3-1.6-.6.4-1.2.5-2 .7-.4-.5-1.2-1-2-1-1.5 0-2.8 1.5-2.8 3V5C7.5 5 5.4 4 4 2.3c-.4.4-.5.8-.5 1.5 0 1 .5 1.8 1.3 2.3l-1.3-.3c0 1.4 1 2.5 2.3 2.8H4.5c.3 1 1.4 2 2.7 2-1 .8-2.2 1.2-3.6 1.2H3C4 12.5 5.6 13 7.2 13c5.2 0 8-4.4 8-8v-.5C16 4 16.6 3.5 17 3zm2-2l-1.4 2.3c-.4.6-.8 1.2-1.4 1.6 0 4.6-3.7 8.8-9 8.8-1.6 0-3.2-.5-4.7-1.4L0 11h3.6l1.6-.3c-.7-.5-1.2-1.2-1.5-2L3.5 8c-.5-.7-.8-1.5-.8-2.3V4.5v-.8c0-.8 0-1.4.5-2l.6-1 .7 1C5.5 3 7.2 4 9 4.2 9 2.4 10.6.8 12.4.8c.8 0 1.7.3 2.3.8.6 0 1-.3 1.2-.5l1.7-1-.4 2L19 1z" id="a"/></defs><g fill-rule="nonzero" fill="none"><path d="M17 3l-1.8.4c.6-.4 1-1 1.3-1.6-.6.4-1.2.5-2 .7-.4-.5-1.2-1-2-1-1.5 0-2.8 1.5-2.8 3V5C7.5 5 5.4 4 4 2.3c-.4.4-.5.8-.5 1.5 0 1 .5 1.8 1.3 2.3l-1.3-.3c0 1.4 1 2.5 2.3 2.8H4.5c.3 1 1.4 2 2.7 2-1 .8-2.2 1.2-3.6 1.2H3C4 12.5 5.6 13 7.2 13c5.2 0 8-4.4 8-8v-.5C16 4 16.6 3.5 17 3z" fill="#FFF"/><g fill-rule="evenodd"><use fill="#838D94" xlink:href="#a"/><use fill-opacity=".1" fill="#2D3138" style="mix-blend-mode:multiply" xlink:href="#a"/></g></g></svg>
