<svg width="20" height="16" viewBox="0 0 20 16" xmlns="http://www.w3.org/2000/svg"><g fill="none" fill-rule="evenodd"><path d="M19.01 0h-18C.457 0 0 .547 0 1.1v14c0 .552.457.9 1.01.9h18c.552 0 .99-.248.99-.8v-14c0-.553-.438-1.2-.99-1.2zM6 4c1.105 0 2 .895 2 2s-.895 2-2 2-2-.895-2-2 .895-2 2-2zm4 8H2c0-2.07 1.79-3 4-3s4 .93 4 3zm5.375-6h-3.75C11.28 6 11 5.72 11 5.375v-.75c0-.345.28-.625.625-.625h3.75c.345 0 .625.28.625.625v.75c0 .345-.28.625-.625.625zm2 6h-5.75c-.345 0-.625-.28-.625-.625v-.75c0-.345.28-.625.625-.625h5.75c.345 0 .625.28.625.625v.75c0 .345-.28.625-.625.625zm-1-3h-4.75C11.28 9 11 8.72 11 8.375v-.75c0-.345.28-.625.625-.625h4.75c.345 0 .625.28.625.625v.75c0 .345-.28.625-.625.625z" fill-rule="nonzero" fill="#FFF"/><path d="M-2-4h24v24H-2z"/></g></svg>
