<svg width="20px" height="16px" viewBox="0 0 20 16" version="1.1" xmlns="http://www.w3.org/2000/svg" xmlns:xlink="http://www.w3.org/1999/xlink">
  <g id="✏️-User-and-org-listing" stroke="none" stroke-width="1" fill="none" fill-rule="evenodd">
    <g id="Users-Listing---Default" transform="translate(-20.000000, -127.000000)" fill-rule="nonzero" fill="#FFFFFF">
      <g id="Nav---Left---Inbox_active">
        <g id="icon--new_user" transform="translate(20.000000, 127.000000)">
          <path d="M19.1666667,0 L15.8333333,0 C15.8333333,0.93925 15.0875,1.7 14.1666667,1.7 C13.2458333,1.7 12.5,0.93925 12.5,0 L7.5,0 C7.5,0.93925 6.75416667,1.7 5.83333333,1.7 C4.9125,1.7 4.16666667,0.93925 4.16666667,0 L0.833333333,0 C0.373333333,0 0,0.3808 0,0.85 L0,15.15 C0,15.6192 0.373333333,16 0.833333333,16 L19.1666667,16 C19.6266667,16 20,15.6192 20,15.15 L20,0.85 C20,0.3808 19.6266667,0 19.1666667,0 Z M6,4.95 C7.105,4.95 8,5.845 8,6.95 C8,8.055 7.105,8.95 6,8.95 C4.895,8.95 4,8.055 4,6.95 C4,5.845 4.895,4.95 6,4.95 Z M9,13 L3,13 C3,10.9289322 4.34314575,10 6,10 C7.65685425,10 9,10.9289322 9,13 Z M11,7.375 L11,6.625 C11,6.28 11.28,6 11.625,6 L16.375,6 C16.72,6 17,6.28 17,6.625 L17,7.375 C17,7.72 16.72,8 16.375,8 L11.625,8 C11.28,8 11,7.72 11,7.375 Z M11,11.375 L11,10.625 C11,10.28 11.28,10 11.625,10 L16.375,10 C16.72,10 17,10.28 17,10.625 L17,11.375 C17,11.72 16.72,12 16.375,12 L11.625,12 C11.28,12 11,11.72 11,11.375 Z" id="Shape"></path>
        </g>
      </g>
    </g>
  </g>
</svg>
