<svg width="16px" height="10px" viewBox="0 0 16 10" version="1.1" xmlns="http://www.w3.org/2000/svg" xmlns:xlink="http://www.w3.org/1999/xlink">
  <g>
    <g transform="translate(-122.000000, -135.000000)" fill-rule="nonzero" fill="#838D94">
      <g transform="translate(63.000000, 133.000000)">
        <g transform="translate(59.000000, 2.000000)">
          <path d="M11,0 L10,0 C9.4,0 9,0.4 9,1 C9,1.6 9.4,2 10,2 L11,2 C12.7,2 14,3.3 14,5 C14,6.7 12.7,8 11,8 L10,8 C9.4,8 9,8.4 9,9 C9,9.6 9.4,10 10,10 L11,10 C13.8,10 16,7.8 16,5 C16,2.2 13.8,0 11,0 Z"></path>
          <path d="M6,8 L5,8 C3.3,8 2,6.7 2,5 C2,3.3 3.3,2 5,2 L6,2 C6.6,2 7,1.6 7,1 C7,0.4 6.6,0 6,0 L5,0 C2.2,0 0,2.2 0,5 C0,7.8 2.2,10 5,10 L6,10 C6.6,10 7,9.6 7,9 C7,8.4 6.6,8 6,8 Z"></path>
          <path d="M4,5 C4,5.6 4.4,6 5,6 L11,6 C11.6,6 12,5.6 12,5 C12,4.4 11.6,4 11,4 L5,4 C4.4,4 4,4.4 4,5 Z"></path>
        </g>
      </g>
    </g>
  </g>
</svg>
