<svg width="14" height="14" viewBox="0 0 14 14" xmlns="http://www.w3.org/2000/svg"><path d="M13.822 4.022L9.978.178c-.238-.237-.623-.237-.86 0-.053.052-1.16 1.184-.735 2.673l-1.74 1.74c-.952-.288-3.413-.788-5.225 1.024-.237.238-.237.623 0 .86L4.04 9.1.18 12.96c-.237.24-.237.624 0 .862.12.12.275.178.43.178.156 0 .312-.06.43-.178L4.903 9.96l2.623 2.622c.12.118.275.178.43.178.156 0 .312-.06.43-.178C10.2 10.77 9.7 8.31 9.41 7.357l1.74-1.74c1.488.426 2.62-.682 2.672-.734.237-.238.237-.623 0-.86" fill="#838D94" fill-rule="evenodd"/></svg>
