<svg width="14px" height="14px" viewBox="0 0 14 14" version="1.1" xmlns="http://www.w3.org/2000/svg" xmlns:xlink="http://www.w3.org/1999/xlink">
  <g>
    <g transform="translate(-63.000000, -133.000000)" fill="#838D94">
      <g transform="translate(63.000000, 133.000000)">
        <path d="M6.99842522,0.874442377 C6.99842522,0.00484678964 6.47610775,-0.262613367 5.8445657,0.283509466 L0.23770462,5.10759449 C-0.0801668745,5.38205622 -0.0787665596,5.82175511 0.239104935,6.09481653 L5.84736633,10.9203019 C6.47610775,11.4636241 6.99842522,11.1975642 6.99842522,10.3279686 L6.99842522,8.40113526 L8.39874018,8.40113526 C10.8590936,8.8450351 12.3434274,11.0435296 13.266235,13.3470477 C13.4090671,13.7069286 13.6205146,13.7069286 13.719937,13.3316442 C13.9005776,12.6524915 14,11.9383308 14,11.2017652 C14,7.03862881 10.9697184,3.5924537 6.99842522,2.92590379 L6.99842522,0.874442377 Z"></path>
      </g>
    </g>
  </g>
</svg>
