<svg width="14" height="14" viewBox="0 0 14 14" xmlns="http://www.w3.org/2000/svg"><path d="M4.224 4.325l5.45 5.463c-.088.924-.427 1.932-1.288 2.794-.12.118-.275.178-.43.178-.156 0-.312-.06-.43-.178L4.9 9.96 1.04 13.82c-.12.12-.276.178-.43.178-.157 0-.313-.06-.432-.178-.237-.238-.237-.623 0-.86L4.04 9.097 1.42 6.475c-.237-.238-.237-.623 0-.86.866-.866 1.88-1.204 2.806-1.29zM2.97 2.075c-.243-.243-.24-.64-.006-.872.24-.24.622-.245.87.005l9.024 9.023c.242.243.237.64.005.872-.24.24-.622.244-.87-.005L2.968 2.074zM9.977.177l3.844 3.844c.237.238.237.623 0 .86-.052.053-1.184 1.16-2.673.735l-.955.955-2.78-2.753.968-.97C7.957 1.363 9.065.23 9.117.18c.238-.237.623-.237.86 0z" fill="#838D94" fill-rule="evenodd"/></svg>
