<svg width="16" height="16" viewBox="0 0 16 16" xmlns="http://www.w3.org/2000/svg"><title>icon-user copy</title><path d="M9.96 9.864v-.808c.534-.547.955-1.31 1.205-2.202.33-.233.55-.626.55-1.07 0-.317-.115-.604-.298-.83V3.147C11.417 1.278 10.377 0 8 0 5.685 0 4.582 1.278 4.582 3.146v1.81c-.182.224-.297.51-.297.827 0 .445.218.837.55 1.07.25.894.67 1.656 1.205 2.203v.808c-.24.77-3.1 2.006-5.675 3.002-.22.085-.365.3-.365.538v2.02c0 .318.254.576.567.576h14.866c.313 0 .567-.258.567-.575v-2.02c0-.24-.145-.454-.365-.54-2.576-.995-5.435-2.23-5.675-3z" fill="#BEC4C7" fill-rule="evenodd"/></svg>