<svg width="20" height="20" viewBox="0 0 20 20" xmlns="http://www.w3.org/2000/svg"><g fill="none" fill-rule="evenodd"><path d="M17.75 0H1.25C.56 0 0 .56 0 1.25v17.5C0 19.44.56 20 1.25 20h17.5c.69 0 1.25-.56 1.25-1.25V1.25C20 .56 19.44 0 18.75 0h-1zM6.375 15h-.75C5.28 15 5 14.72 5 14.375v-4.75C5 9.28 5.28 9 5.625 9h.75C6.72 9 7 9.28 7 9.625v4.75c0 .345-.28.625-.625.625zm4 0h-.75C9.28 15 9 14.72 9 14.375v-8.75C9 5.28 9.28 5 9.625 5h.75c.345 0 .625.28.625.625v8.75c0 .345-.28.625-.625.625zm4 0h-.75c-.345 0-.625-.28-.625-.625v-6.75c0-.345.28-.625.625-.625h.75c.345 0 .625.28.625.625v6.75c0 .345-.28.625-.625.625z" fill="#FFF"/><path d="M-2-2h24v24H-2z"/></g></svg>
