<svg width="20" height="20" viewBox="0 0 20 20" xmlns="http://www.w3.org/2000/svg"><g fill="none" fill-rule="evenodd"><path d="M18.92 8.48c-1.63-.408-2.403-2.273-1.54-3.71.404-.67.283-1.25-.116-1.646l-.388-.388c-.397-.397-.975-.52-1.645-.117-1.44.862-3.304.09-3.71-1.54C11.33.323 10.836 0 10.274 0h-.548C9.164 0 8.67.323 8.48 1.08c-.408 1.63-2.273 2.402-3.71 1.54-.67-.404-1.25-.283-1.647.115l-.388.388c-.397.397-.52.976-.116 1.646.862 1.44.09 3.304-1.54 3.71C.326 8.67 0 9.162 0 9.726v.548c0 .562.323 1.056 1.08 1.246 1.63.408 2.402 2.273 1.54 3.71-.404.67-.283 1.25.116 1.646l.388.388c.398.4.977.518 1.645.117 1.44-.863 3.304-.09 3.71 1.54.19.757.684 1.08 1.246 1.08h.548c.562 0 1.056-.323 1.246-1.08.408-1.63 2.273-2.403 3.71-1.54.67.402 1.247.283 1.646-.116l.388-.388c.397-.397.518-.975.117-1.645-.863-1.44-.09-3.304 1.54-3.71.757-.19 1.08-.684 1.08-1.246v-.548c0-.564-.325-1.057-1.08-1.246zM10 14c-2.21 0-4-1.79-4-4s1.79-4 4-4 4 1.79 4 4-1.79 4-4 4z" fill-rule="nonzero" fill="#FFF"/><path d="M-2-2h24v24H-2z"/></g></svg>
