<svg width="20" height="20" viewBox="0 0 20 20" xmlns="http://www.w3.org/2000/svg"><g fill="none" fill-rule="evenodd"><path d="M18.75 0c-.625 0-5.713.062-8.75 2.123C6.963.063 1.875 0 1.25 0 .43 0 0 .55 0 1.234v14.803c0 .682.586 1.234 1.25 1.234 1.5 0 5.55.334 7.5 1.79.125.098.25.21.363.32l.443.437c.247.244.642.244.888 0l.443-.437c.113-.11.238-.222.363-.32 1.95-1.456 6.302-1.79 7.802-1.79.743 0 .948-.55.948-1.233V1.234C20 .55 19.61 0 18.75 0zM3.596 4.005c1 .114 3.08.38 4.83.8.318.077.574.38.574.668v1.152c0 .287-.252.44-.568.35-1.813-.51-3.837-.798-4.836-.905C3.268 6.034 3 5.787 3 5.5V4.46c0-.287.268-.494.596-.455zm7.98.8c1.72-.42 3.82-.686 4.828-.8.328-.037.596.17.596.457v1.04c0 .287-.268.546-.596.584-1.008.117-3.114.4-4.84.888-.313.09-.564-.06-.564-.347V5.475c0-.288.256-.593.575-.67zm-3.144 6.17c-1.813-.51-3.837-.798-4.836-.905C3.268 10.034 3 9.787 3 9.5V8.46c0-.287.268-.494.596-.455 1 .114 3.08.38 4.83.8.318.077.574.38.574.668v1.152c0 .287-.252.44-.568.35zm7.972-.89c-1.008.118-3.114.4-4.84.89-.313.09-.564-.06-.564-.348V9.475c0-.288.256-.593.575-.67 1.722-.42 3.82-.686 4.83-.8.327-.037.595.17.595.457v1.04c0 .287-.268.546-.596.584z" fill="#FFF"/><path d="M-2-2h24v24H-2z"/></g></svg>
