<svg width="44" height="45" xmlns="http://www.w3.org/2000/svg"><g fill="none" fill-rule="evenodd" stroke-linecap="round" stroke-linejoin="round"><path d="M26.914 42.086l15.172-15.172a2 2 0 0 0 0-2.828L18.5.5H.5v18l23.586 23.586a2 2 0 0 0 2.828 0z" stroke="#838D94" fill="#FFF"/><circle stroke="#838D94" fill="#DADDDF" cx="12.5" cy="12.5" r="4"/><path d="M24.5 18.5l7 7M18.5 24.5l7 7" stroke="#F1703F"/><path d="M14.29 16.078c-1-2.2-2.29-3.578-3.79-3.578-3.3 0-6 7.2-6 16s2.7 16 6 16c2.6 0 4.795-4.305 5.595-10.405" stroke="#838D94"/></g></svg>