<?xml version="1.0" encoding="UTF-8"?>
<svg width="45px" height="37px" viewBox="0 0 45 37" version="1.1" xmlns="http://www.w3.org/2000/svg" xmlns:xlink="http://www.w3.org/1999/xlink">
    <!-- Generator: Sketch 47.1 (45422) - http://www.bohemiancoding.com/sketch -->
    <title>icon--email_color--48</title>
    <desc>Created with Sketch.</desc>
    <defs></defs>
    <g id="Admin-home" stroke="none" stroke-width="1" fill="none" fill-rule="evenodd" stroke-linecap="round" stroke-linejoin="round">
        <g id="icon--email_color--48" transform="translate(-6.000000, -10.000000)" stroke="#87B8C0">
            <g transform="translate(6.000000, 10.000000)" id="Shape">
                <path d="M0.5,10.5 L0.5,32.5 L0.5,32.5 C0.5,34.709139 2.290861,36.5 4.5,36.5 L40.5,36.5 L40.5,36.5 C42.709139,36.5 44.5,34.709139 44.5,32.5 L44.5,10.5" fill="#FFFFFF"></path>
                <path d="M44.5,10.5 L44.5,2.5 L44.5,2.5 C44.5,1.3954305 43.6045695,0.5 42.5,0.5 L2.5,0.5 L2.5,0.5 C1.3954305,0.5 0.5,1.3954305 0.5,2.5 L0.5,10.5 L20.5845915,21.4552317 L20.5845915,21.4552317 C21.7785014,22.1064553 23.2214986,22.1064553 24.4154085,21.4552317 L44.5,10.5 Z" fill="#F3F7F8"></path>
            </g>
        </g>
    </g>
</svg>