<?xml version="1.0" encoding="UTF-8"?>
<svg width="46px" height="46px" viewBox="0 0 46 46" version="1.1" xmlns="http://www.w3.org/2000/svg" xmlns:xlink="http://www.w3.org/1999/xlink">
    <!-- Generator: Sketch 47.1 (45422) - http://www.bohemiancoding.com/sketch -->
    <title>icon--facebook_color--48</title>
    <desc>Created with Sketch.</desc>
    <defs>
        <rect id="path-1" x="0" y="0" width="46" height="46" rx="4"></rect>
    </defs>
    <g id="Admin-home" stroke="none" stroke-width="1" fill="none" fill-rule="evenodd">
        <g id="icon--facebook_color--48" transform="translate(-5.000000, -5.000000)">
            <g transform="translate(5.000000, 5.000000)">
                <g id="Rectangle">
                    <use fill="#EBEDF5" fill-rule="evenodd" xlink:href="#path-1"></use>
                    <rect stroke="#37539B" stroke-width="1" x="0.5" y="0.5" width="45" height="45" rx="4"></rect>
                </g>
                <path d="M23.99998,46 L23.95412,32 L17.99998,32 L17.99998,26 L23.99998,26 L23.99998,22 C23.99998,16.6016 28.34302,14 33.15876,14 C35.46554,14 37.44812,14.17174 38.02588,14.2485 L38.02588,19.89014 L34.68592,19.89166 C32.06686,19.89166 30,21.1362 30,22.96248 L30,26 L37.94028,26 L35.94028,32 L29.99998,32 L29.99998,46 L23.99998,46 Z" id="Shape" fill="#37539B" fill-rule="nonzero"></path>
            </g>
        </g>
    </g>
</svg>