<?xml version="1.0" encoding="UTF-8"?>
<svg width="39px" height="45px" viewBox="0 0 39 45" version="1.1" xmlns="http://www.w3.org/2000/svg" xmlns:xlink="http://www.w3.org/1999/xlink">
    <!-- Generator: Sketch 47.1 (45422) - http://www.bohemiancoding.com/sketch -->
    <title>icon--forms_color--48</title>
    <desc>Created with Sketch.</desc>
    <defs></defs>
    <g id="Admin-home" stroke="none" stroke-width="1" fill="none" fill-rule="evenodd" stroke-linecap="round" stroke-linejoin="round">
        <g id="icon--forms_color--48" transform="translate(-9.000000, -6.000000)" stroke="#F26F6F">
            <g transform="translate(9.000000, 6.000000)" id="Shape">
                <path d="M6.99951172,40.5 L6.5,40.5 L6.5,40.5 C5.3954305,40.5 4.5,39.6045695 4.5,38.5 L4.5,2.5 L4.5,2.5 C4.5,1.3954305 5.3954305,0.5 6.5,0.5 L29,0.5 L33,0.5 L36.5,0.5 L36.5,0.5 C37.6045695,0.5 38.5,1.3954305 38.5,2.5 L38.5,3.01920241" transform="translate(21.500000, 20.500000) scale(-1, 1) translate(-21.500000, -20.500000) "></path>
                <path d="M30.5,44.5 L2.5,44.5 L2.5,44.5 C1.3954305,44.5 0.5,43.6045695 0.5,42.5 L0.5,8.5 L0.5,8.5 C0.5,7.3954305 1.3954305,6.5 2.5,6.5 L30.5,6.5 L30.5,6.5 C31.6045695,6.5 32.5,7.3954305 32.5,8.5 L32.5,42.5 L32.5,42.5 C32.5,43.6045695 31.6045695,44.5 30.5,44.5 Z" fill="#FFFFFF"></path>
                <path d="M8.5,16.5 L24.5,16.5"></path>
                <path d="M8.5,24.5 L24.5,24.5"></path>
                <path d="M8.5,32.5 L16.5,32.5"></path>
            </g>
        </g>
    </g>
</svg>