<?xml version="1.0" encoding="UTF-8"?>
<svg width="44px" height="45px" viewBox="0 0 44 45" version="1.1" xmlns="http://www.w3.org/2000/svg" xmlns:xlink="http://www.w3.org/1999/xlink">
    <!-- Generator: Sketch 47.1 (45422) - http://www.bohemiancoding.com/sketch -->
    <title>icon--overview_color--48</title>
    <desc>Created with Sketch.</desc>
    <defs></defs>
    <g id="Admin-home" stroke="none" stroke-width="1" fill="none" fill-rule="evenodd">
        <g id="icon--overview_color--48" transform="translate(-6.000000, -6.000000)">
            <g transform="translate(6.000000, 6.000000)">
                <path d="M25.4524079,44.5 L2.5,44.5 L2.5,44.5 C1.3954305,44.5 0.5,43.6045695 0.5,42.5 L0.5,2.5 L0.5,2.5 C0.5,1.3954305 1.3954305,0.5 2.5,0.5 L34.5,0.5 L34.5,0.5 C35.6045695,0.5 36.5,1.3954305 36.5,2.5 L36.5,18.5 L36,45 L25.5475382,44.5022637 L25.5475382,44.5022637 C25.5158506,44.5007548 25.4841315,44.5 25.4524079,44.5 Z" id="Shape" fill="#FFFFFF"></path>
                <path d="M29.9035429,44.5 L2.5,44.5 L2.5,44.5 C1.3954305,44.5 0.5,43.6045695 0.5,42.5 L0.5,2.5 L0.5,2.5 C0.5,1.3954305 1.3954305,0.5 2.5,0.5 L34.5,0.5 L34.5,0.5 C35.6045695,0.5 36.5,1.3954305 36.5,2.5 L36.5,22.5" id="Shape" stroke="#87B8C0" stroke-linecap="round" stroke-linejoin="round"></path>
                <path d="M10.5,12.5 L26.5,12.5" id="Shape" stroke="#87B8C0" stroke-linecap="round" stroke-linejoin="round"></path>
                <path d="M10.5,20.5 L26.5,20.5" id="Shape" stroke="#87B8C0" stroke-linecap="round" stroke-linejoin="round"></path>
                <path d="M10.5,28.5 L18.5,28.5" id="Shape" stroke="#87B8C0" stroke-linecap="round" stroke-linejoin="round"></path>
                <path d="M37.5,38.5 L43.5,44.5" id="Shape" stroke="#87B8C0" stroke-linecap="round" stroke-linejoin="round"></path>
                <circle id="Oval" stroke="#87B8C0" fill="#F3F7F8" stroke-linecap="round" stroke-linejoin="round" cx="32.5" cy="33.5" r="7"></circle>
            </g>
        </g>
    </g>
</svg>