<?xml version="1.0" encoding="UTF-8"?>
<svg width="46px" height="32px" viewBox="0 0 46 32" version="1.1" xmlns="http://www.w3.org/2000/svg" xmlns:xlink="http://www.w3.org/1999/xlink">
    <!-- Generator: Sketch 47.1 (45422) - http://www.bohemiancoding.com/sketch -->
    <title>icon--salesforce_color--48</title>
    <desc>Created with Sketch.</desc>
    <defs></defs>
    <g id="Admin-home" stroke="none" stroke-width="1" fill="none" fill-rule="evenodd">
        <g id="icon--salesforce_color--48" transform="translate(-5.000000, -12.000000)">
            <g transform="translate(5.000000, 12.000000)">
                <path d="M19.4384557,28.3912772 C20.9043797,29.8958323 22.9452775,30.8289243 25.2024379,30.8289243 C28.2029203,30.8289243 30.8207343,29.1808657 32.2147866,26.7342895 C33.4262459,27.267485 34.7672038,27.564059 36.178091,27.564059 C41.5898371,27.564059 45.9772493,23.2047399 45.9772493,17.8275024 C45.9772493,12.449627 41.5898371,8.09030795 36.178091,8.09030795 C35.5176482,8.09030795 34.8720977,8.1553629 34.2479145,8.27973264 C33.0202678,6.12271479 30.6808758,4.66535649 27.9957225,4.66535649 C26.8716748,4.66535649 25.8084913,4.92111171 24.8618566,5.37585852 C23.6173752,2.4923938 20.7179018,0.470588187 17.338636,0.470588187 C13.8195119,0.470588187 10.8203245,2.66396027 9.66908203,5.74003865 C9.16598001,5.63480271 8.64474819,5.57995247 8.10991901,5.57995247 C3.91999212,5.57995247 0.523244094,8.96025838 0.523244094,13.1307905 C0.523244094,15.9256019 2.04938498,18.3658001 4.3169053,19.6713636 C3.85006288,20.7294631 3.59041821,21.8972631 3.59041821,23.1250157 C3.59041821,27.9212234 7.54336267,31.809213 12.4189846,31.809213 C15.2815509,31.809213 17.8255507,30.4685709 19.4384557,28.3912772" id="path3005" fill="#009DE3" fill-rule="nonzero" transform="translate(23.250247, 16.139901) scale(-1, 1) rotate(-180.000000) translate(-23.250247, -16.139901) "></path>
                <path d="M7.10682269,13.6363693 C7.078333,13.563023 7.11718258,13.547716 7.12624748,13.5349601 C7.21171655,13.4737319 7.2984806,13.4297242 7.38589215,13.3806141 C7.8494971,13.1382525 8.28720234,13.0674574 8.74497986,13.0674574 C9.67736971,13.0674574 10.2562284,13.5560073 10.2562284,14.3424068 L10.2562284,14.3577138 C10.2562284,15.0847985 9.60290802,15.348845 8.98973219,15.5395453 L8.91009056,15.565057 C8.44778059,15.7130251 8.04892493,15.8405839 8.04892493,16.1403468 L8.04892493,16.1562917 C8.04892493,16.4126847 8.2820224,16.6014716 8.64332346,16.6014716 C9.04476909,16.6014716 9.5213239,16.4700861 9.82823556,16.3029842 C9.82823556,16.3029842 9.91823708,16.2455828 9.95125922,16.3316849 C9.96938903,16.377606 10.1247873,16.7896207 10.1409747,16.8342662 C10.158457,16.8827385 10.1273773,16.918455 10.0956502,16.9375888 C9.74535647,17.1474229 9.26103174,17.2909264 8.75987219,17.2909264 L8.66663321,17.2902886 C7.8132375,17.2902886 7.21754398,16.782605 7.21754398,16.0548825 L7.21754398,16.0395754 C7.21754398,15.2723098 7.87474933,15.0235703 8.49051513,14.8500904 L8.58958155,14.8201141 C9.03829416,14.6842641 9.42484745,14.5675479 9.42484745,14.2563046 L9.42484745,14.2409976 C9.42484745,13.9565417 9.17362019,13.7447942 8.7682896,13.7447942 C8.61094881,13.7447942 8.10914178,13.7479832 7.56719018,14.085376 C7.50179339,14.1230058 7.4635913,14.1504309 7.41308685,14.1804072 C7.38653964,14.1969898 7.31984787,14.2256905 7.29071069,14.1389506 L7.10682269,13.6363693 Z" id="path3009" fill="#FFFFFF" fill-rule="nonzero" transform="translate(8.676389, 15.179192) scale(-1, 1) rotate(-180.000000) translate(-8.676389, -15.179192) "></path>
                <path d="M20.7566219,13.6363693 C20.7281322,13.563023 20.7669817,13.547716 20.7760466,13.5349601 C20.8615157,13.4737319 20.9482798,13.4297242 21.0356913,13.3806141 C21.4992963,13.1382525 21.9370015,13.0674574 22.394779,13.0674574 C23.3271689,13.0674574 23.9060276,13.5560073 23.9060276,14.3424068 L23.9060276,14.3577138 C23.9060276,15.0847985 23.2527072,15.348845 22.6395314,15.5395453 L22.5598897,15.565057 C22.0975798,15.7130251 21.6987241,15.8405839 21.6987241,16.1403468 L21.6987241,16.1562917 C21.6987241,16.4126847 21.9318216,16.6014716 22.2931226,16.6014716 C22.6945683,16.6014716 23.1711231,16.4700861 23.4780347,16.3029842 C23.4780347,16.3029842 23.5680363,16.2455828 23.6010584,16.3316849 C23.6191882,16.377606 23.7745865,16.7896207 23.7907738,16.8342662 C23.8082561,16.8827385 23.7771765,16.918455 23.7454493,16.9375888 C23.3951556,17.1474229 22.9108309,17.2909264 22.4096714,17.2909264 L22.3164324,17.2902886 C21.4630367,17.2902886 20.8673432,16.782605 20.8673432,16.0548825 L20.8673432,16.0395754 C20.8673432,15.2723098 21.5245485,15.0235703 22.1403143,14.8500904 L22.2393807,14.8201141 C22.6880933,14.6842641 23.0752941,14.5675479 23.0752941,14.2563046 L23.0752941,14.2409976 C23.0752941,13.9565417 22.8234194,13.7447942 22.4180888,13.7447942 C22.260748,13.7447942 21.7589409,13.7479832 21.2169893,14.085376 C21.1515926,14.1230058 21.112743,14.1491553 21.0635335,14.1804072 C21.0466987,14.1912497 20.9677046,14.221226 20.9405099,14.1389506 L20.7566219,13.6363693 Z" id="path3013" fill="#FFFFFF" fill-rule="nonzero" transform="translate(22.326188, 15.179192) scale(-1, 1) rotate(-180.000000) translate(-22.326188, -15.179192) "></path>
                <path d="M30.0749542,15.1739626 C30.0749542,14.7294205 29.9907802,14.3792718 29.825022,14.1318079 C29.6612062,13.8868952 29.4132164,13.7676278 29.0674552,13.7676278 C28.7210465,13.7676278 28.4743517,13.8862574 28.3131259,14.1318079 C28.1499577,14.378634 28.0670786,14.7294205 28.0670786,15.1739626 C28.0670786,15.6178669 28.1499577,15.9673778 28.3131259,16.2122905 C28.4743517,16.4546521 28.7210465,16.5726439 29.0674552,16.5726439 C29.4132164,16.5726439 29.6612062,16.4546521 29.8256695,16.2122905 C29.9907802,15.9673778 30.0749542,15.6178669 30.0749542,15.1739626 M30.8532408,15.9979919 C30.7768366,16.2524715 30.6576979,16.4769749 30.4990621,16.6638484 C30.3404264,16.8513597 30.1397035,17.001879 29.9014261,17.1115795 C29.6637962,17.2206422 29.3827843,17.2761302 29.0674552,17.2761302 C28.7514787,17.2761302 28.4704667,17.2206422 28.2328368,17.1115795 C27.9945594,17.001879 27.7938366,16.8513597 27.6345533,16.6638484 C27.476565,16.4763371 27.3574263,16.2518337 27.2803747,15.9979919 C27.204618,15.7447879 27.1664159,15.4679854 27.1664159,15.1739626 C27.1664159,14.8799398 27.204618,14.6024996 27.2803747,14.3499333 C27.3574263,14.0960915 27.4759175,13.8715881 27.6352008,13.6840768 C27.7938366,13.4965655 27.9952069,13.346684 28.2328368,13.2401725 C28.4711142,13.133661 28.7514787,13.0794485 29.0674552,13.0794485 C29.3827843,13.0794485 29.6631487,13.133661 29.9014261,13.2401725 C30.139056,13.346684 30.3404264,13.4965655 30.4990621,13.6840768 C30.6576979,13.8709504 30.7768366,14.0954537 30.8532408,14.3499333 C30.9296449,14.6031374 30.967847,14.8805776 30.967847,15.1739626 C30.967847,15.4673477 30.9296449,15.7447879 30.8532408,15.9979919" id="path3017" fill="#FFFFFF" fill-rule="nonzero" transform="translate(29.067131, 15.177789) scale(-1, 1) rotate(-180.000000) translate(-29.067131, -15.177789) "></path>
                <path d="M37.2444524,13.8804522 C37.2185526,13.955074 37.1453859,13.9270111 37.1453859,13.9270111 C37.0320747,13.8842789 36.911641,13.8447357 36.7834374,13.8249641 C36.6532913,13.8051925 36.5101954,13.7949878 36.3567395,13.7949878 C35.9798986,13.7949878 35.6807569,13.9053261 35.4664367,14.1234515 C35.2514691,14.3415769 35.1310354,14.6942767 35.1323304,15.1713463 C35.1336253,15.6056838 35.2398142,15.9322341 35.4308246,16.1809736 C35.62054,16.4284375 35.9093219,16.5553584 36.2945802,16.5553584 C36.6157367,16.5553584 36.860489,16.5190041 37.1168963,16.4392799 C37.1168963,16.4392799 37.1784081,16.4131304 37.2075453,16.4922168 C37.275532,16.6784525 37.3260365,16.8117514 37.3985557,17.0164831 C37.4192755,17.0745223 37.368771,17.0993963 37.3506412,17.106412 C37.2496323,17.1453174 37.0113549,17.208459 36.8313519,17.2352463 C36.6630037,17.2607581 36.4661658,17.2741517 36.2473132,17.2741517 C35.9203293,17.2741517 35.6289574,17.2193015 35.3796727,17.109601 C35.1310354,17.0005383 34.9199527,16.850019 34.7528995,16.6625077 C34.5858463,16.4749964 34.4589377,16.2504931 34.3741161,15.9966512 C34.289942,15.7434472 34.2472075,15.4653692 34.2472075,15.1713463 C34.2472075,14.5354661 34.4213831,14.0214045 34.7652019,13.6451063 C35.1096681,13.2675325 35.627015,13.0755567 36.3017026,13.0755567 C36.7005583,13.0755567 37.1097738,13.1552809 37.4037356,13.2694459 C37.4037356,13.2694459 37.4600675,13.2962332 37.4354628,13.3606504 L37.2444524,13.8804522 Z" id="path3021" fill="#FFFFFF" transform="translate(35.844445, 15.174854) scale(-1, 1) rotate(-180.000000) translate(-35.844445, -15.174854) "></path>
                <path d="M38.6061889,15.6008438 C38.643096,15.8476699 38.7123777,16.0530395 38.819214,16.2131256 C38.9804398,16.456125 39.2264871,16.5894238 39.5722483,16.5894238 C39.9180096,16.5894238 40.1465746,16.4554872 40.3103903,16.2131256 C40.4191691,16.0530395 40.4664361,15.8387408 40.4852134,15.6008438 L38.6061889,15.6008438 Z M41.2265928,16.1436061 C41.1605486,16.3891567 40.9967328,16.6372584 40.889249,16.7507856 C40.7196059,16.9306434 40.5538477,17.0562887 40.3893845,17.126446 C40.1744168,17.2170127 39.9167146,17.2769653 39.6344077,17.2769653 C39.3054813,17.2769653 39.006987,17.2227529 38.7648246,17.1105012 C38.5220148,16.9982495 38.3180545,16.8451791 38.1581237,16.6544788 C37.998193,16.4644163 37.8777593,16.2379996 37.8013551,15.9809688 C37.7243035,15.7252136 37.6854539,15.4464978 37.6854539,15.1524749 C37.6854539,14.8533497 37.7255984,14.574634 37.8052401,14.3239811 C37.8855292,14.0714148 38.0137328,13.8488249 38.1872609,13.6645025 C38.3601415,13.4789046 38.5828791,13.3334877 38.8496462,13.2320785 C39.1144708,13.1313071 39.4362748,13.079008 39.8059933,13.0796458 C40.5667975,13.082197 40.9675957,13.2492989 41.1327064,13.3392278 C41.1618435,13.3551727 41.1896857,13.3832356 41.1547211,13.4635976 L40.982488,13.9387538 C40.9565883,14.0095489 40.8834216,13.9833993 40.8834216,13.9833993 C40.6950011,13.9145176 40.426939,13.7907857 39.8021083,13.7920613 C39.3935403,13.792699 39.0905136,13.9113286 38.9007982,14.0969266 C38.7059028,14.2869891 38.6107213,14.5663426 38.5938865,14.9604991 L41.2285353,14.9579479 C41.2285353,14.9579479 41.2978171,14.9592235 41.3049395,15.025554 C41.3075295,15.0536169 41.3955885,15.5587494 41.2265928,16.1436061 L41.2265928,16.1436061 Z" id="path3025" fill="#FFFFFF" transform="translate(39.507808, 15.178303) scale(-1, 1) rotate(-180.000000) translate(-39.507808, -15.178303) "></path>
                <path d="M17.5064662,15.6008438 C17.5440207,15.8476699 17.612655,16.0530395 17.7194913,16.2131256 C17.8807171,16.456125 18.1267644,16.5894238 18.4725256,16.5894238 C18.8182869,16.5894238 19.0468519,16.4554872 19.2113151,16.2131256 C19.3194464,16.0530395 19.3667134,15.8387408 19.3854907,15.6008438 L17.5064662,15.6008438 Z M20.1262226,16.1436061 C20.0601784,16.3891567 19.8970101,16.6372584 19.7895263,16.7507856 C19.6198831,16.9306434 19.454125,17.0562887 19.2896617,17.126446 C19.0746941,17.2170127 18.8169919,17.2769653 18.534685,17.2769653 C18.206406,17.2769653 17.9072643,17.2227529 17.6651019,17.1105012 C17.4222921,16.9982495 17.2183318,16.8451791 17.058401,16.6544788 C16.8984703,16.4644163 16.7780366,16.2379996 16.7016324,15.9809688 C16.6252282,15.7252136 16.5857312,15.4464978 16.5857312,15.1524749 C16.5857312,14.8533497 16.6258757,14.574634 16.7055174,14.3239811 C16.7858065,14.0714148 16.9140101,13.8488249 17.0875382,13.6645025 C17.2604188,13.4789046 17.4831564,13.3334877 17.7499235,13.2320785 C18.0147481,13.1313071 18.3365521,13.079008 18.7062706,13.0796458 C19.4670748,13.082197 19.8678729,13.2492989 20.0329836,13.3392278 C20.0621208,13.3551727 20.089963,13.3832356 20.0549984,13.4635976 L19.8834128,13.9387538 C19.8568656,14.0095489 19.7836989,13.9833993 19.7836989,13.9833993 C19.5952784,13.9145176 19.3278638,13.7907857 18.7017381,13.7920613 C18.2938176,13.792699 17.9907909,13.9113286 17.8010754,14.0969266 C17.6061801,14.2869891 17.5109986,14.5663426 17.4941638,14.9604991 L20.1288126,14.9579479 C20.1288126,14.9579479 20.1980944,14.9592235 20.2052168,15.025554 C20.2078067,15.0536169 20.2958658,15.5587494 20.1262226,16.1436061 L20.1262226,16.1436061 Z" id="path3029" fill="#FFFFFF" transform="translate(18.408041, 15.178303) scale(-1, 1) rotate(-180.000000) translate(-18.408041, -15.178303) "></path>
                <path d="M11.8117007,13.8968442 C11.7087494,13.977844 11.6945045,13.9982533 11.6595399,14.0505524 C11.6077405,14.1302766 11.5811932,14.2438039 11.5811932,14.3879452 C11.5811932,14.6162753 11.6575974,14.7801883 11.8162332,14.8905265 C11.8142907,14.8898888 12.0428557,15.0850536 12.5802749,15.0780379 C12.9577633,15.0729355 13.2951071,15.0180853 13.2951071,15.0180853 L13.2951071,13.8381672 L13.2957546,13.8381672 C13.2957546,13.8381672 12.9610007,13.7673721 12.5841598,13.7450493 C12.0480357,13.7131596 11.8097583,13.897482 11.8117007,13.8968442 M12.8599918,15.720296 C12.7531555,15.7279495 12.614592,15.7324141 12.4488338,15.7324141 C12.2228588,15.7324141 12.0046536,15.7043511 11.8000459,15.6501387 C11.5941431,15.5959262 11.4089601,15.5110997 11.2496769,15.398848 C11.0897461,15.2859586 10.960895,15.1418172 10.867656,14.9708885 C10.774417,14.7999599 10.72715,14.5984171 10.72715,14.3726382 C10.72715,14.1430325 10.7672946,13.9434031 10.8475837,13.7801279 C10.9278729,13.616215 11.0437741,13.4797272 11.1914025,13.3744912 C11.3377359,13.2692553 11.5183864,13.1920823 11.7281741,13.1455233 C11.9347244,13.0989644 12.1691168,13.0753661 12.4255241,13.0753661 C12.6955286,13.0753661 12.9648857,13.097051 13.2258253,13.1410588 C13.484175,13.1844288 13.8014466,13.2475703 13.8895056,13.2673419 C13.9769172,13.2877513 14.0740411,13.3139008 14.0740411,13.3139008 C14.1394379,13.3298457 14.1342579,13.3987274 14.1342579,13.3987274 L14.132963,15.7719573 C14.132963,16.2923968 13.9918095,16.6782619 13.714035,16.9174345 C13.4375555,17.1559693 13.0302825,17.2765123 12.5038707,17.2765123 C12.3063853,17.2765123 11.9884663,17.249725 11.7981034,17.2120951 C11.7981034,17.2120951 11.2224821,17.1023946 10.9854997,16.9199857 C10.9854997,16.9199857 10.9337003,16.888096 10.96219,16.8166631 L11.1486679,16.3230109 C11.1719777,16.2592315 11.2347845,16.2809165 11.2347845,16.2809165 C11.2347845,16.2809165 11.2548568,16.2885701 11.2781665,16.3019637 C11.7851535,16.5736638 12.4261715,16.5653725 12.4261715,16.5653725 C12.7110684,16.5653725 12.9299211,16.5092466 13.0775495,16.3976328 C13.2212929,16.2892078 13.2944596,16.1252949 13.2944596,15.7796108 L13.2944596,15.6699103 C13.0678371,15.7018 12.8599918,15.720296 12.8599918,15.720296" id="path3033" fill="#FFFFFF" fill-rule="nonzero" transform="translate(12.430752, 15.175939) scale(-1, 1) rotate(-180.000000) translate(-12.430752, -15.175939) "></path>
                <path d="M34.1095455,17.0201286 C34.1296178,17.0788056 34.0875308,17.1068685 34.0700485,17.1132464 C34.0253715,17.1304669 33.8013389,17.1770258 33.6284583,17.1878683 C33.2975894,17.2076399 33.1137014,17.1527896 32.9492382,17.0800812 C32.7860699,17.0073727 32.6047719,16.8900187 32.503763,16.7567198 L32.503763,17.0724277 C32.503763,17.1164354 32.4720359,17.1515141 32.4280063,17.1515141 L31.7526712,17.1515141 C31.7086417,17.1515141 31.6769145,17.1164354 31.6769145,17.0724277 L31.6769145,13.2016585 C31.6769145,13.1582885 31.7131741,13.1225721 31.7572036,13.1225721 L32.4493736,13.1225721 C32.4934031,13.1225721 32.5290152,13.1582885 32.5290152,13.2016585 L32.5290152,15.1354486 C32.5290152,15.3950306 32.5581524,15.6539748 32.6164268,15.8166121 C32.6734062,15.9773361 32.7511053,16.1061704 32.8469343,16.1986505 C32.9434107,16.2904927 33.052837,16.3549099 33.1726232,16.3912641 C33.2949994,16.4282562 33.4303254,16.4403742 33.5261544,16.4403742 C33.6640704,16.4403742 33.8155837,16.4052956 33.8155837,16.4052956 C33.8660882,16.3995554 33.8945779,16.4301695 33.9114127,16.4754529 C33.9567372,16.5940825 34.0849408,16.9493335 34.1095455,17.0201286" id="path3037" fill="#FFFFFF" transform="translate(32.895884, 15.157256) scale(-1, 1) rotate(-180.000000) translate(-32.895884, -15.157256) "></path>
                <path d="M27.612471,18.963861 C27.5282969,18.9893728 27.4518927,19.0065932 27.3521788,19.0250892 C27.2511699,19.0429474 27.1307362,19.0518765 26.9941152,19.0518765 C26.5175604,19.0518765 26.1420145,18.9192155 25.8784848,18.6577201 C25.6162502,18.3975003 25.4381896,18.0014305 25.3488356,17.4803532 L25.316461,17.3049599 L24.7181775,17.3049599 C24.7181775,17.3049599 24.6456583,17.3075111 24.6301184,17.2297003 L24.532347,16.6894891 C24.5252246,16.6384657 24.5478868,16.6059382 24.6178161,16.6059382 L25.1999122,16.6059382 L24.6093987,13.3582933 C24.5634267,13.096798 24.5103322,12.8818615 24.4514104,12.7185864 C24.3937835,12.5578624 24.3374516,12.4373194 24.2675224,12.3493039 C24.2001831,12.2651152 24.1367288,12.2026114 24.026655,12.1662572 C23.936006,12.1362809 23.8311121,12.1222494 23.7165059,12.1222494 C23.6530516,12.1222494 23.56823,12.1324541 23.5054232,12.14521 C23.4432638,12.157328 23.4102417,12.1707217 23.3629747,12.1904933 C23.3629747,12.1904933 23.294988,12.2160051 23.2677933,12.1490367 C23.246426,12.0935487 23.0910277,11.6732427 23.0722504,11.6215815 C23.0541206,11.5699202 23.0800203,11.5297392 23.1130424,11.5176211 C23.1907416,11.4908338 23.2483685,11.4729755 23.3539098,11.4481016 C23.5002432,11.4142985 23.6239144,11.4123852 23.7398156,11.4123852 C23.981978,11.4123852 24.2034206,11.4461882 24.3866611,11.5112432 C24.5705491,11.5769359 24.7311273,11.6911009 24.8735758,11.845447 C25.0270316,12.0125489 25.1235081,12.1873043 25.2154521,12.4264769 C25.3067486,12.6624606 25.3850952,12.9558456 25.4472545,13.2977029 L26.0410056,16.6059382 L26.9086461,16.6059382 C26.9086461,16.6059382 26.9818128,16.603387 26.9967052,16.6818356 L27.0951241,17.221409 C27.101599,17.2730703 27.0795843,17.3049599 27.0090075,17.3049599 L26.1666192,17.3049599 C26.1711516,17.323456 26.2093537,17.6155654 26.3058302,17.8904544 C26.3472697,18.0071707 26.4249689,18.1022019 26.4903657,18.1672568 C26.555115,18.2310362 26.6295767,18.2763195 26.7111608,18.3024691 C26.7946874,18.3292564 26.8898688,18.3420123 26.9941152,18.3420123 C27.0731093,18.3420123 27.151456,18.3330832 27.2103778,18.3209651 C27.2919619,18.3037447 27.3236891,18.2948156 27.3450564,18.2884376 C27.4311729,18.2629259 27.4428278,18.2877998 27.4596626,18.3286186 L27.6610329,18.8732943 C27.6817527,18.9319713 27.6306008,18.9568453 27.612471,18.963861" id="path3041" fill="#FFFFFF" transform="translate(25.366085, 15.232131) scale(-1, 1) rotate(-180.000000) translate(-25.366085, -15.232131) "></path>
                <path d="M15.8426684,11.5744463 C15.8426684,11.5310763 15.8109413,11.4959976 15.7669118,11.4959976 L15.0682669,11.4959976 C15.0242374,11.4959976 14.9931577,11.5310763 14.9931577,11.5744463 L14.9931577,17.1130456 C14.9931577,17.1564156 15.0242374,17.1914942 15.0682669,17.1914942 L15.7669118,17.1914942 C15.8109413,17.1914942 15.8426684,17.1564156 15.8426684,17.1130456 L15.8426684,11.5744463 Z" id="path3045" fill="#FFFFFF" transform="translate(15.417913, 14.343746) scale(-1, 1) rotate(-180.000000) translate(-15.417913, -14.343746) "></path>
            </g>
        </g>
    </g>
</svg>