<svg width="45" height="39" xmlns="http://www.w3.org/2000/svg" xmlns:xlink="http://www.w3.org/1999/xlink"><defs><path d="M32.344 32.036c0-8.462-7.24-15.322-16.172-15.322S0 23.574 0 32.036h32.344z" id="a"/><ellipse id="b" cx="15.469" cy="9.75" rx="9.844" ry="9.75"/><path d="M45 39c0-8.462-7.24-15.321-16.172-15.321-8.931 0-16.172 6.86-16.172 15.321H45z" id="c"/><ellipse id="d" cx="28.125" cy="16.714" rx="9.844" ry="9.75"/></defs><g fill="none" fill-rule="evenodd"><g><use fill="#CBD1B0" xlink:href="#a"/><path stroke="#838D94" d="M31.835 31.536c-.279-7.949-7.18-14.322-15.663-14.322-8.484 0-15.384 6.373-15.663 14.322h31.326z"/></g><g><use fill="#FFF" xlink:href="#b"/><ellipse stroke="#838D94" cx="15.469" cy="9.75" rx="9.344" ry="9.25"/></g><g><use fill="#FFF" xlink:href="#c"/><path stroke="#838D94" d="M44.491 38.5c-.279-7.948-7.179-14.321-15.663-14.321S13.444 30.552 13.165 38.5H44.492z"/></g><g><use fill="#FFF" xlink:href="#d"/><ellipse stroke="#838D94" cx="28.125" cy="16.714" rx="9.344" ry="9.25"/></g></g></svg>