<svg width="43" height="35" xmlns="http://www.w3.org/2000/svg"><path d="M42.5 4.808c-1.575.761-3.15 1.015-4.987 1.269 1.837-1.015 3.15-2.539 3.675-4.57-1.576 1.016-3.413 1.524-5.513 2.031C34.1 2.015 31.738 1 29.375 1c-4.462 0-8.4 3.808-8.4 8.377 0 .761 0 1.27.262 1.777C14.15 10.9 7.588 7.6 3.387 2.524c-.787 1.268-1.05 2.538-1.05 4.314 0 2.793 1.575 5.331 3.938 6.854-1.313 0-2.625-.507-3.938-1.015 0 4.061 2.888 7.361 6.825 8.123-.787.254-1.575.254-2.362.254-.525 0-1.05 0-1.575-.254 1.05 3.3 4.2 5.838 8.138 5.838C10.475 28.923 6.8 30.192 2.6 30.192H.5C4.438 32.477 8.9 34 13.625 34c15.75 0 24.413-12.692 24.413-23.608V9.377c1.837-1.27 3.412-2.792 4.462-4.57z" stroke="#838D94" fill-rule="nonzero" fill="#A7D1F2"/></svg>