<?xml version="1.0" encoding="UTF-8"?>
<svg width="43px" height="35px" viewBox="0 0 43 35" version="1.1" xmlns="http://www.w3.org/2000/svg" xmlns:xlink="http://www.w3.org/1999/xlink">
    <!-- Generator: Sketch 47.1 (45422) - http://www.bohemiancoding.com/sketch -->
    <title>icon--twitter_color--48</title>
    <desc>Created with Sketch.</desc>
    <defs></defs>
    <g id="Admin-home" stroke="none" stroke-width="1" fill="none" fill-rule="evenodd">
        <g id="icon--twitter_color--48" transform="translate(-7.000000, -11.000000)" stroke="#52A4E4" fill-rule="nonzero" fill="#EDF5FC">
            <g transform="translate(7.000000, 12.000000)" id="Shape">
                <path d="M42.5,3.80769231 C40.925,4.56923077 39.35,4.82307692 37.5125,5.07692308 C39.35,4.06153846 40.6625,2.53846154 41.1875,0.507692308 C39.6125,1.52307692 37.775,2.03076923 35.675,2.53846154 C34.1,1.01538462 31.7375,0 29.375,0 C24.9125,0 20.975,3.80769231 20.975,8.37692308 C20.975,9.13846154 20.975,9.64615385 21.2375,10.1538462 C14.15,9.9 7.5875,6.6 3.3875,1.52307692 C2.6,2.79230769 2.3375,4.06153846 2.3375,5.83846154 C2.3375,8.63076923 3.9125,11.1692308 6.275,12.6923077 C4.9625,12.6923077 3.65,12.1846154 2.3375,11.6769231 C2.3375,15.7384615 5.225,19.0384615 9.1625,19.8 C8.375,20.0538462 7.5875,20.0538462 6.8,20.0538462 C6.275,20.0538462 5.75,20.0538462 5.225,19.8 C6.275,23.1 9.425,25.6384615 13.3625,25.6384615 C10.475,27.9230769 6.8,29.1923077 2.6,29.1923077 L0.5,29.1923077 C4.4375,31.4769231 8.9,33 13.625,33 C29.375,33 38.0375,20.3076923 38.0375,9.39230769 L38.0375,8.37692308 C39.875,7.10769231 41.45,5.58461538 42.5,3.80769231 Z"></path>
            </g>
        </g>
    </g>
</svg>