<?xml version="1.0" encoding="UTF-8"?>
<svg width="41px" height="38px" viewBox="0 0 41 38" version="1.1" xmlns="http://www.w3.org/2000/svg" xmlns:xlink="http://www.w3.org/1999/xlink">
    <!-- Generator: Sketch 47.1 (45422) - http://www.bohemiancoding.com/sketch -->
    <title>icon--webhooks_color--48</title>
    <desc>Created with Sketch.</desc>
    <defs></defs>
    <g id="Admin-home" stroke="none" stroke-width="1" fill="none" fill-rule="evenodd">
        <g id="icon--webhooks_color--48" transform="translate(-8.000000, -9.000000)">
            <g transform="translate(9.000000, 10.000000)" id="Shape">
                <path d="M30.5675676,31.7647059 C28.2453547,31.7647059 26.3513514,29.8621324 26.3513514,27.5294118 C26.3513514,25.1966912 28.2453547,23.2941176 30.5675676,23.2941176 C32.8897804,23.2941176 34.7837838,25.1966912 34.7837838,27.5294118 C34.7837838,29.8621324 32.8897804,31.7647059 30.5675676,31.7647059 Z" fill="#4B4B4B" fill-rule="nonzero"></path>
                <path d="M20.027027,8.47058824 L26.4913434,20.1176471 C27.697741,19.443474 29.0894212,19.0588235 30.5675676,19.0588235 C35.2161104,19.0588235 39,22.8598348 39,27.5294118 C39,32.1989887 35.2161104,36 30.5675676,36 C27.9118457,36 25.5361069,34.7591912 23.9920822,32.8235294" stroke="#4B4B4B" stroke-width="2"></path>
                <path d="M30.5675676,27.5294118 L16.8648649,27.5294118 C16.8648649,32.1989887 13.0809752,36 8.43243243,36 C3.78388962,36 0,32.1989887 0,27.5294118 C0,23.5919118 2.69277924,20.2706799 6.32432432,19.3276652" stroke="#4B4B4B" stroke-width="2"></path>
                <path d="M8.43243243,31.7647059 C6.11021959,31.7647059 4.21621622,29.8621324 4.21621622,27.5294118 C4.21621622,25.1966912 6.11021959,23.2941176 8.43243243,23.2941176 C10.7546453,23.2941176 12.6486486,25.1966912 12.6486486,27.5294118 C12.6486486,29.8621324 10.7546453,31.7647059 8.43243243,31.7647059 Z" fill="#CB315F" fill-rule="nonzero"></path>
                <path d="M20.027027,12.7058824 C17.7048142,12.7058824 15.8108108,10.8033088 15.8108108,8.47058824 C15.8108108,6.13786765 17.7048142,4.23529412 20.027027,4.23529412 C22.3492399,4.23529412 24.2432432,6.13786765 24.2432432,8.47058824 C24.2432432,10.8033088 22.3492399,12.7058824 20.027027,12.7058824 Z" fill="#4B4B4B" fill-rule="nonzero"></path>
                <path d="M8.43243243,27.5294118 L15.6131757,15.6838235 C13.2044977,14.1907172 11.5945946,11.5147059 11.5945946,8.47058824 C11.5945946,3.80101129 15.3784842,0 20.027027,0 C24.6755698,0 28.4594595,3.80101129 28.4594595,8.47058824 C28.4594595,9.21093776 28.364759,9.93474318 28.1835935,10.6213235" stroke="#CB315F" stroke-width="2"></path>
            </g>
        </g>
    </g>
</svg>