<?xml version="1.0" encoding="UTF-8"?>
<svg width="44px" height="44px" viewBox="0 0 44 44" version="1.1" xmlns="http://www.w3.org/2000/svg" xmlns:xlink="http://www.w3.org/1999/xlink">
    <!-- Generator: Sketch 47.1 (45422) - http://www.bohemiancoding.com/sketch -->
    <title>icon--zapier_color--48</title>
    <desc>Created with Sketch.</desc>
    <defs></defs>
    <g id="Admin-home" stroke="none" stroke-width="1" fill="none" fill-rule="evenodd">
        <g id="icon--zapier_color--48" transform="translate(-6.000000, -6.000000)" fill-rule="nonzero" fill="#FF4700">
            <g transform="translate(6.000000, 6.000000)" id="Shape">
                <path d="M27.4998281,22.009625 C27.5005825,23.5961443 27.2143878,25.1697204 26.6550625,26.654375 C25.1698653,27.2136208 23.5959367,27.5002608 22.0089375,27.5005156 L21.990375,27.5005156 C20.3561875,27.4984531 18.7904062,27.1997344 17.345625,26.6550625 C16.7859505,25.170239 16.4994638,23.5964256 16.5,22.009625 L16.5,21.990375 C16.499235,20.4041557 16.7851311,18.8308538 17.3439062,17.3463125 C18.8289986,16.7860225 20.4032777,16.4992924 21.9905469,16.5 L22.0091094,16.5 C23.5962006,16.4992353 25.1703106,16.7859082 26.6552344,17.3461406 C27.2146244,18.8305385 27.5008227,20.4039012 27.5,21.9902031 L27.5,22.0094531 L27.4998281,22.009625 Z M43.6944062,18.3333906 L30.8525937,18.3333906 L39.9325781,9.25271875 C39.2198938,8.25157554 38.4249061,7.31165258 37.5558906,6.44273438 L37.5558906,6.44204688 C36.686849,5.57405759 35.7471837,4.77978313 34.7465937,4.06742188 L25.6659219,13.1480938 L25.6659219,0.30628125 C24.4582031,0.10311267 23.2356884,0.000666342005 22.011,0 L21.9883125,0 C20.7425625,0.0006875 19.5224219,0.1065625 18.3333906,0.30628125 L18.3333906,13.1480937 L9.25271875,4.06742187 C8.25196473,4.7795911 7.31269927,5.57443379 6.44479687,6.44359375 L6.43998437,6.44703125 C5.57245271,7.31486587 4.77857756,8.25332759 4.0665625,9.25271875 L13.1479219,18.3333906 L0.30628125,18.3333906 C0.30628125,18.3333906 0,20.7453125 0,21.9924375 L0,22.0075625 C0,23.2546875 0.105703125,24.4768906 0.30628125,25.6666094 L13.1480937,25.6666094 L4.06673437,34.7472813 C5.4953002,36.7520321 7.24796789,38.5046998 9.25271875,39.9332656 L18.3333906,30.8519063 L18.3333906,43.6944063 C19.5397817,43.8965652 20.7608042,43.998777 21.9840156,44 L22.015125,44 C23.2383414,43.9988945 24.4593735,43.8966819 25.66575,43.6944063 L25.66575,30.8519063 L34.7472813,39.9332656 C35.747663,39.2206585 36.6870985,38.426154 37.5558906,37.5579531 L37.5579531,37.5558906 C38.4257699,36.6869366 39.2200331,35.7475145 39.9325781,34.7472813 L30.8512187,25.6666094 L43.6944062,25.6666094 C43.8942969,24.4789531 43.998625,23.2603594 44,22.0159844 L44,21.9840156 C43.998625,20.7396406 43.8942969,19.5210469 43.6944062,18.3333906 Z"></path>
            </g>
        </g>
    </g>
</svg>