<?xml version="1.0" encoding="UTF-8" standalone="no"?>
<svg width="32px" height="32px" viewBox="0 0 32 32" version="1.1" xmlns="http://www.w3.org/2000/svg" xmlns:xlink="http://www.w3.org/1999/xlink">
    <!-- Generator: Sketch 39.1 (31720) - http://www.bohemiancoding.com/sketch -->
    <title>date</title>
    <desc>Created with Sketch.</desc>
    <defs></defs>
    <g id="✴️-Icons" stroke="none" stroke-width="1" fill="none" fill-rule="evenodd">
        <g id="date">
            <g transform="translate(8.000000, 8.000000)" id="Imported-Layers-3-Copy">
                <g>
                    <path d="M1,4 L15,4 L15,13.007983 C15,14.1081436 14.1030365,15 12.9955297,15 L8,15 L3.00447027,15 C1.89743191,15 1,14.0998238 1,13.007983 L1,4 Z" id="Rectangle-283" fill="#FFFFFF"></path>
                    <path d="M10,10 L12,10 L12,12 L10,12 L10,10 Z M10,7 L12,7 L12,9 L10,9 L10,7 Z M4,7 L6,7 L6,9 L4,9 L4,7 Z M7,7 L9,7 L9,9 L7,9 L7,7 Z M4,10 L6,10 L6,12 L4,12 L4,10 Z M7,10 L9,10 L9,12 L7,12 L7,10 Z" id="Fill-1" fill="#5F6C73"></path>
                    <path d="M5,1.5 L5,0.5 C5,0.224 4.776,0 4.5,0 L3.5,0 C3.224,0 3,0.224 3,0.5 L3,1.5 C3,1.776 3.224,2 3.5,2 L4.5,2 C4.776,2 5,1.776 5,1.5 Z M13,1.5 L13,0.5 C13,0.224 12.776,0 12.5,0 L11.5,0 C11.224,0 11,0.224 11,0.5 L11,1.5 C11,1.776 11.224,2 11.5,2 L12.5,2 C12.776,2 13,1.776 13,1.5 Z M13.5,3 L10.5,3 C10.224,3 10,2.776 10,2.5 L10,0.5 C10,0.224 9.776,0 9.5,0 L6.5,0 C6.224,0 6,0.224 6,0.5 L6,2.5 C6,2.776 5.776,3 5.5,3 L2.5,3 C2.224,3 2,2.776 2,2.5 L2,0.5 C2,0.224 1.776,0 1.5,0 L1,0 C0.448,0 0,0.447 0,1 L0,15 C0,15.553 0.448,16 1,16 L15,16 C15.552,16 16,15.553 16,15 L16,1 C16,0.447 15.552,0 15,0 L14.5,0 C14.224,0 14,0.224 14,0.5 L14,2.5 C14,2.776 13.776,3 13.5,3 Z M1,4 L15,4 L15,14.0044225 C15,14.5542648 14.5500512,15 13.9931545,15 L2.00684547,15 C1.45078007,15 1,14.555163 1,14.0044225 L1,4 Z" id="Fill-2" fill="#A1AAAF"></path>
                </g>
            </g>
        </g>
    </g>
</svg>