<?xml version="1.0" encoding="UTF-8" standalone="no"?>
<svg width="32px" height="32px" viewBox="0 0 32 32" version="1.1" xmlns="http://www.w3.org/2000/svg" xmlns:xlink="http://www.w3.org/1999/xlink">
    <!-- Generator: Sketch 39.1 (31720) - http://www.bohemiancoding.com/sketch -->
    <title>file</title>
    <desc>Created with Sketch.</desc>
    <defs></defs>
    <g id="✴️-Icons" stroke="none" stroke-width="1" fill="none" fill-rule="evenodd">
        <g id="file">
            <g transform="translate(8.000000, 8.000000)">
                <rect id="Rectangle-292" fill="#FFFFFF" x="1" y="4" width="11" height="11"></rect>
                <path d="M15,0 L4,0 C3.447,0 3,0.447 3,1 L3,3 L1,3 C0.447,3 0,3.447 0,4 L0,15 C0,15.553 0.447,16 1,16 L12,16 C12.553,16 13,15.553 13,15 L13,13 L15,13 C15.553,13 16,12.553 16,12 L16,1 C16,0.447 15.553,0 15,0 L15,0 Z M1,4 L12,4 L12,15 L1,15 L1,4 Z M13,12 L13,4 C13,3.32411111 13.1758889,3 12.5,3 L4,3 L4,1 L15,1 L15,12 L13,12 Z" id="Fill-823" fill="#A1AAAF"></path>
                <path d="M3.5,13.000137 L9.5,13.000137 C9.776,13.000137 10,12.861137 10,12.568137 L10,12.303137 C10,12.156137 9.825,11.890137 9.609,11.707137 L5.391,8.12513695 C5.175,7.94213695 4.842,7.96213695 4.647,8.17013695 L3.353,9.54113695 C3.158,9.74813695 3,10.153137 3,10.446137 L3,12.568137 C3,12.861137 3.224,13.000137 3.5,13.000137" id="Fill-824" fill="#90999F"></path>
                <path d="M8.5,9 C9.328,9 10,8.328 10,7.5 C10,6.672 9.328,6 8.5,6 C7.672,6 7,6.672 7,7.5 C7,8.328 7.672,9 8.5,9" id="Fill-825" fill="#90999F"></path>
            </g>
        </g>
    </g>
</svg>