<?xml version="1.0" encoding="UTF-8" standalone="no"?>
<svg width="42px" height="42px" viewBox="0 0 41 42" version="1.1" xmlns="http://www.w3.org/2000/svg" xmlns:xlink="http://www.w3.org/1999/xlink" xmlns:sketch="http://www.bohemiancoding.com/sketch/ns">
    <!-- Generator: Sketch 3.3.1 (12002) - http://www.bohemiancoding.com/sketch -->
    <title>Logo</title>
    <desc>Created with Sketch.</desc>
    <defs></defs>
    <g id="âœ´ï¸-Cases" stroke="none" stroke-width="1" fill="none" fill-rule="evenodd" sketch:type="MSPage">
        <g id="ðŸ”’case-overview-interactions" sketch:type="MSArtboardGroup">
            <g id="main-nav" sketch:type="MSLayerGroup" transform="translate(-1.000000, 0.000000)">
                <g id="Logo" sketch:type="MSShapeGroup">
                    <rect id="Rectangle-210" fill="#5083DB" x="0" y="0" width="42" height="42"></rect>
                    <path d="M31.7049368,11.7940562 C34.3381677,14.3388098 35.6540899,17.4107746 35.6540899,21.0086105 C35.6540899,24.5973999 34.3381677,27.665009 31.7049368,30.2102651 C29.0718792,32.7575316 25.8991427,34.0295733 22.186034,34.0295733 C18.4734454,34.0295733 15.2981092,32.7575316 12.666958,30.2102651 C10.0325139,27.665009 6.07694844,21.3096587 6.07694844,21.3096587 C5.97435052,21.1443084 5.97435052,20.8730802 6.07694844,20.7072272 C6.07694844,20.7072272 10.0325139,14.3388098 12.666958,11.7940562 C15.2981092,9.25617132 18.4734454,7.98781522 22.186034,7.98781522 C25.8991427,7.98781522 29.0718792,9.25617132 31.7049368,11.7940562" id="Fill-1" fill="#2859AD"></path>
                    <path d="M28.8399564,14.3306267 C28.896039,14.2586284 28.9022311,14.1849199 28.8611864,14.1084752 C28.8192571,14.027584 28.7543287,13.9872239 28.6660472,13.9872239 L25.5108579,13.9872239 C25.0098296,13.9872239 24.6107054,14.1825257 24.3136622,14.5738133 L20.6449395,19.3906871 C20.5329512,19.5343417 20.3846949,19.6073661 20.1992862,19.6073661 L19.4757802,19.6073662 L19.4757802,14.4925857 C19.4757802,14.3492732 18.959013,13.9872239 18.8105798,13.9872239 L16.4226331,13.9872239 C16.2738461,13.9872239 16,14.5124295 16,14.655742 L16,27.3680201 C16,27.5113326 16.3607487,28.0149196 16.5095357,28.0149196 L18.9981374,28.0149196 C19.1465706,28.0149196 19.4757802,27.5113326 19.4757802,27.3680201 L19.4757802,22.3947773 L20.1992862,22.3947774 C20.3846949,22.3947774 20.5329512,22.4678018 20.6449395,22.6114563 L24.3136622,27.4283302 C24.6107054,27.8196178 25.0098296,28.0149196 25.5108579,28.0149196 L28.6660472,28.0149196 C28.7543287,28.0149196 28.8192571,27.9745595 28.8611864,27.8936683 C28.9022311,27.8172236 28.896039,27.7435151 28.8399564,27.6715168 L23.5968297,21.0162068 L28.8399564,14.3306267 Z" id="Fill-2" fill="#FFFFFF"></path>
                </g>
            </g>
        </g>
    </g>
</svg>
