<?xml version="1.0" encoding="UTF-8"?>
<svg width="462px" height="262px" viewBox="0 0 462 262" version="1.1" xmlns="http://www.w3.org/2000/svg" xmlns:xlink="http://www.w3.org/1999/xlink">
    <!-- Generator: Sketch 41.2 (35397) - http://www.bohemiancoding.com/sketch -->
    <title>fb empty state</title>
    <desc>Created with Sketch.</desc>
    <defs>
        <circle id="path-1" cx="5" cy="117" r="5"></circle>
        <mask id="mask-2" maskContentUnits="userSpaceOnUse" maskUnits="objectBoundingBox" x="0" y="0" width="10" height="10" fill="white">
            <use xlink:href="#path-1"></use>
        </mask>
        <circle id="path-3" cx="64" cy="136" r="2"></circle>
        <mask id="mask-4" maskContentUnits="userSpaceOnUse" maskUnits="objectBoundingBox" x="0" y="0" width="4" height="4" fill="white">
            <use xlink:href="#path-3"></use>
        </mask>
        <circle id="path-5" cx="82" cy="5" r="5"></circle>
        <mask id="mask-6" maskContentUnits="userSpaceOnUse" maskUnits="objectBoundingBox" x="0" y="0" width="10" height="10" fill="white">
            <use xlink:href="#path-5"></use>
        </mask>
        <circle id="path-7" cx="343.5" cy="8.5" r="2.5"></circle>
        <mask id="mask-8" maskContentUnits="userSpaceOnUse" maskUnits="objectBoundingBox" x="0" y="0" width="5" height="5" fill="white">
            <use xlink:href="#path-7"></use>
        </mask>
        <circle id="path-9" cx="459" cy="60" r="3"></circle>
        <mask id="mask-10" maskContentUnits="userSpaceOnUse" maskUnits="objectBoundingBox" x="0" y="0" width="6" height="6" fill="white">
            <use xlink:href="#path-9"></use>
        </mask>
        <circle id="path-11" cx="396" cy="149" r="4"></circle>
        <mask id="mask-12" maskContentUnits="userSpaceOnUse" maskUnits="objectBoundingBox" x="0" y="0" width="8" height="8" fill="white">
            <use xlink:href="#path-11"></use>
        </mask>
        <rect id="path-13" x="91" y="58" width="272" height="190" rx="5"></rect>
        <mask id="mask-14" maskContentUnits="userSpaceOnUse" maskUnits="objectBoundingBox" x="0" y="0" width="272" height="190" fill="white">
            <use xlink:href="#path-13"></use>
        </mask>
        <rect id="path-15" x="96" y="62" width="6" height="8" rx="2"></rect>
        <mask id="mask-16" maskContentUnits="userSpaceOnUse" maskUnits="objectBoundingBox" x="0" y="0" width="6" height="8" fill="white">
            <use xlink:href="#path-15"></use>
        </mask>
    </defs>
    <g id="Illustrations" stroke="none" stroke-width="1" fill="none" fill-rule="evenodd">
        <g id="Facebook" transform="translate(-114.000000, -150.000000)">
            <g id="fb-empty-state" transform="translate(114.000000, 150.000000)">
                <g id="bg-thingy">
                    <g id="Group-2">
                        <use id="Oval-2" stroke="#FCE2D9" mask="url(#mask-2)" stroke-width="3" xlink:href="#path-1"></use>
                        <use id="Oval-3" stroke="#FCE2D9" mask="url(#mask-4)" stroke-width="3" xlink:href="#path-3"></use>
                        <use id="Oval-4" stroke="#FCE2D9" mask="url(#mask-6)" stroke-width="3" xlink:href="#path-5"></use>
                        <use id="Oval-5" stroke="#FCE2D9" mask="url(#mask-8)" stroke-width="3" xlink:href="#path-7"></use>
                        <use id="Oval-6" stroke="#FCE2D9" mask="url(#mask-10)" stroke-width="3" xlink:href="#path-9"></use>
                        <use id="Oval-7" stroke="#FCE2D9" mask="url(#mask-12)" stroke-width="3" xlink:href="#path-11"></use>
                        <g id="Group" transform="translate(397.000000, 60.000000)" stroke="#FEF4DF" stroke-width="1.5" stroke-linecap="round" stroke-linejoin="round">
                            <path d="M8.30190506,4.35952224 L0.612157443,4.35952224 C0.336015068,4.35952224 0.112157443,4.58337987 0.112157443,4.85952224 C0.112157443,5.13566462 0.336015068,5.35952224 0.612157443,5.35952224 L8.30190506,5.35952224 C8.57804743,5.35952224 8.80190506,5.13566462 8.80190506,4.85952224" id="Combined-Shape"></path>
                            <path d="M3.95703125,1.01464844 L3.95703125,8.70439605 C3.95703125,8.98053843 4.18088888,9.20439605 4.45703125,9.20439605 C4.73317362,9.20439605 4.95703125,8.98053843 4.95703125,8.70439605 L4.95703125,1.01464844 C4.95703125,0.738506063 4.73317362,0.514648438 4.45703125,0.514648438" id="Path-5"></path>
                        </g>
                        <g id="Group-Copy" transform="translate(437.853553, 116.646447) rotate(45.000000) translate(-437.853553, -116.646447) translate(431.353553, 110.146447)" stroke="#FEF4DF" stroke-width="1.7" stroke-linecap="round" stroke-linejoin="round">
                            <path d="M11.8207574,6.08110892 L1.0551107,6.08110892 C0.668511373,6.08110892 0.355110698,6.40445882 0.355110698,6.80333114 C0.355110698,7.20220346 0.668511373,7.52555336 1.0551107,7.52555336 L11.8207574,7.52555336 C12.2073567,7.52555336 12.5207574,7.20220346 12.5207574,6.80333114" id="Combined-Shape"></path>
                            <path d="M5.71571181,1.42050781 L5.71571181,12.1861545 C5.71571181,12.5727538 6.03906171,12.8861545 6.43793403,12.8861545 C6.83680635,12.8861545 7.16015625,12.5727538 7.16015625,12.1861545 L7.16015625,1.42050781 C7.16015625,1.03390849 6.83680635,0.720507813 6.43793403,0.720507813" id="Path-5"></path>
                        </g>
                        <g id="Group-Copy-3" transform="translate(173.000000, 21.000000)" stroke="#FEF4DF" stroke-width="1.5" stroke-linecap="round" stroke-linejoin="round">
                            <path d="M10.0613312,5.22031558 L0.833634071,5.22031558 C0.502263221,5.22031558 0.233634071,5.49391935 0.233634071,5.83142669 C0.233634071,6.16893404 0.502263221,6.4425378 0.833634071,6.4425378 L10.0613312,6.4425378 C10.3927021,6.4425378 10.6613312,6.16893404 10.6613312,5.83142669" id="Combined-Shape"></path>
                            <path d="M4.83637153,1.21757812 L4.83637153,10.4452753 C4.83637153,10.7766461 5.10997529,11.0452753 5.44748264,11.0452753 C5.78498999,11.0452753 6.05859375,10.7766461 6.05859375,10.4452753 L6.05859375,1.21757812 C6.05859375,0.886207275 5.78498999,0.617578125 5.44748264,0.617578125" id="Path-5"></path>
                        </g>
                        <g id="Group-Copy-2" transform="translate(44.000000, 74.500000) rotate(45.000000) translate(-44.000000, -74.500000) translate(39.000000, 69.000000)" stroke="#FEF4DF" stroke-width="1.5" stroke-linecap="round" stroke-linejoin="round">
                            <path d="M9.18161813,4.78991891 L0.722895757,4.78991891 C0.419139145,4.78991891 0.172895757,5.03864961 0.172895757,5.34547447 C0.172895757,5.65229933 0.419139145,5.90103002 0.722895757,5.90103002 L9.18161813,5.90103002 C9.48537474,5.90103002 9.73161813,5.65229933 9.73161813,5.34547447" id="Combined-Shape"></path>
                            <path d="M4.39670139,1.11611328 L4.39670139,9.57483566 C4.39670139,9.87859227 4.64543208,10.1248357 4.95225694,10.1248357 C5.25908181,10.1248357 5.5078125,9.87859227 5.5078125,9.57483566 L5.5078125,1.11611328 C5.5078125,0.812356669 5.25908181,0.566113281 4.95225694,0.566113281" id="Path-5"></path>
                        </g>
                    </g>
                    <g id="Group-3" transform="translate(42.000000, 228.000000)" stroke="#D9D7DB" stroke-width="1.5" stroke-linecap="round" stroke-linejoin="round">
                        <path d="M0.37109375,32.8378906 C0.37109375,32.8378906 25.6328125,9.72753906 49.9160156,0.0908203125" id="Path-6"></path>
                        <path d="M321.371094,32.8378906 C321.371094,32.8378906 346.632812,9.72753906 370.916016,0.0908203125" id="Path-6-Copy" transform="translate(346.143555, 16.464355) scale(-1, 1) translate(-346.143555, -16.464355) "></path>
                    </g>
                    <ellipse id="Oval-8" fill="#F7F8F9" cx="227.5" cy="246" rx="142.5" ry="10"></ellipse>
                    <rect id="Rectangle-4" fill="#FFFFFF" x="93" y="235" width="270" height="12"></rect>
                </g>
                <rect id="Rectangle-Copy" fill="#EBEEF0" opacity="0.6" x="91" y="59" width="16" height="190" rx="5"></rect>
                <path d="M300.75,58.2910156 L300.914062,246.251953" id="Path-2-Copy" stroke="#F3F5F6" stroke-width="1.5"></path>
                <path d="M106.769531,72.75 L300.549805,73" id="Path-3" stroke="#F3F5F6" stroke-width="1.5"></path>
                <path d="M144.417236,72.75 L193.000488,72.75" id="Path-3-Copy-3" stroke="#FFFFFF" stroke-width="1.5"></path>
                <path d="M143.75,58.9619141 L143.75,72.55101" id="Path-7" stroke="#F3F5F6" stroke-width="1.5"></path>
                <path d="M193.75,58.9619141 L193.75,72.55101" id="Path-7-Copy" stroke="#F3F5F6" stroke-width="1.5"></path>
                <use id="Rectangle" stroke="#D9D7DB" mask="url(#mask-14)" stroke-width="3" xlink:href="#path-13"></use>
                <path d="M106.75,58.7519531 L106.75,247.279999" id="Path-2" stroke="#D9D7DB" stroke-width="1.5"></path>
                <g id="Group-4" transform="translate(306.000000, 66.000000)">
                    <rect id="Rectangle-3" fill="#F3F5F6" x="5" y="0" width="13" height="13" rx="3"></rect>
                    <rect id="Rectangle-5-Copy-4" fill="#F3F5F6" x="27" y="1" width="20" height="4" rx="2"></rect>
                    <rect id="Rectangle-5-Copy-5" fill="#F3F5F6" x="27" y="8" width="14" height="4" rx="2"></rect>
                    <rect id="Rectangle-5-Copy-9" fill="#F3F5F6" x="5" y="18" width="42" height="4" rx="2"></rect>
                    <rect id="Rectangle-5-Copy-10" fill="#F3F5F6" x="5" y="26" width="42" height="4" rx="2"></rect>
                    <rect id="Rectangle-5-Copy-11" fill="#F3F5F6" x="5" y="34" width="32" height="4" rx="2"></rect>
                    <path d="M0.76953125,48.75 L49.7695312,48.75" id="Path-3-Copy" stroke="#F3F5F6" stroke-width="1.5" stroke-linecap="round" stroke-linejoin="round"></path>
                    <rect id="Rectangle-5-Copy-13" fill="#F3F5F6" x="5" y="59" width="22" height="4" rx="2"></rect>
                    <rect id="Rectangle-5-Copy-12" fill="#F3F5F6" x="5" y="67" width="42" height="4" rx="2"></rect>
                    <path d="M0.76953125,81.75 L49.7695312,81.75" id="Path-3-Copy-4" stroke="#F3F5F6" stroke-width="1.5" stroke-linecap="round" stroke-linejoin="round"></path>
                    <rect id="Rectangle-5-Copy-15" fill="#F3F5F6" x="5" y="92" width="22" height="4" rx="2"></rect>
                    <rect id="Rectangle-5-Copy-14" fill="#F3F5F6" x="5" y="100" width="42" height="4" rx="2"></rect>
                    <path d="M0.76953125,114.75 L49.7695312,114.75" id="Path-3-Copy-5" stroke="#F3F5F6" stroke-width="1.5" stroke-linecap="round" stroke-linejoin="round"></path>
                    <rect id="Rectangle-5-Copy-16" fill="#F3F5F6" x="5" y="125" width="12" height="4" rx="2"></rect>
                    <rect id="Rectangle-5-Copy-17" fill="#F3F5F6" x="25" y="125" width="22" height="4" rx="2"></rect>
                    <rect id="Rectangle-5-Copy-19" fill="#F3F5F6" x="5" y="135" width="12" height="4" rx="2"></rect>
                    <rect id="Rectangle-5-Copy-18" fill="#F3F5F6" x="25" y="135" width="22" height="4" rx="2"></rect>
                    <rect id="Rectangle-5-Copy-21" fill="#F3F5F6" x="5" y="145" width="12" height="4" rx="2"></rect>
                    <rect id="Rectangle-5-Copy-20" fill="#F3F5F6" x="25" y="145" width="22" height="4" rx="2"></rect>
                </g>
                <g id="1" transform="translate(113.000000, 88.000000)">
                    <rect id="Rectangle-3-Copy" fill="#F3F5F6" x="0" y="0" width="13" height="13" rx="3"></rect>
                    <rect id="Rectangle-5-Copy-8" fill="#F3F5F6" x="22" y="1" width="70" height="4" rx="2"></rect>
                    <rect id="Rectangle-5-Copy-7" fill="#F3F5F6" x="22" y="8" width="30" height="4" rx="2"></rect>
                    <path d="M0.76953125,20.75 L180.769531,20.75" id="Path-3-Copy" stroke="#F3F5F6" stroke-width="1.5" stroke-linecap="round" stroke-linejoin="round"></path>
                </g>
                <g id="2" transform="translate(113.000000, 118.000000)">
                    <rect id="Rectangle-3-Copy" fill="#F3F5F6" x="0" y="0" width="13" height="13" rx="3"></rect>
                    <circle id="Oval-9" fill="#C3CCE1" cx="11" cy="12" r="5"></circle>
                    <path d="M13,12.125 L12.1111111,12.125 C11.9777778,12.125 11.6666667,12.302 11.6666667,12.5 L11.6666667,13.25 L13,13.25 L13,14.375 L11.6666667,14.375 L11.6666667,17 L10.3333333,17 L10.3333333,14.375 L9,14.375 L9,13.25 L10.3333333,13.25 L10.3333333,12.5 C10.3333333,11.67275 11.2048889,11 12.1386667,11 L13,11 L13,12.125" id="icon-facebook-copy" fill="#FFFFFF"></path>
                    <rect id="Rectangle-5-Copy-8" fill="#F3F5F6" x="22" y="1" width="20" height="4" rx="2"></rect>
                    <rect id="Rectangle-5-Copy-7" fill="#F3F5F6" x="22" y="8" width="14" height="4" rx="2"></rect>
                    <rect id="Rectangle-5-Copy-31" fill="#F3F5F6" x="22" y="18" width="140" height="4" rx="2"></rect>
                    <rect id="Rectangle-5-Copy-32" fill="#F3F5F6" x="22" y="26" width="140" height="4" rx="2"></rect>
                    <rect id="Rectangle-5-Copy-34" fill="#F3F5F6" x="22" y="34" width="15" height="4" rx="2"></rect>
                    <rect id="Rectangle-5-Copy-35" fill="#F3F5F6" x="22" y="42" width="22" height="4" rx="2"></rect>
                </g>
                <g id="3" transform="translate(113.000000, 178.000000)">
                    <rect id="Rectangle-3-Copy" fill="#F3F5F6" x="0" y="0" width="13" height="13" rx="3"></rect>
                    <circle id="Oval-9-Copy" fill="#C3CCE1" cx="11" cy="12" r="5"></circle>
                    <path d="M13,12.125 L12.1111111,12.125 C11.9777778,12.125 11.6666667,12.302 11.6666667,12.5 L11.6666667,13.25 L13,13.25 L13,14.375 L11.6666667,14.375 L11.6666667,17 L10.3333333,17 L10.3333333,14.375 L9,14.375 L9,13.25 L10.3333333,13.25 L10.3333333,12.5 C10.3333333,11.67275 11.2048889,11 12.1386667,11 L13,11 L13,12.125" id="icon-facebook-copy-2" fill="#FFFFFF"></path>
                    <rect id="Rectangle-5-Copy-8" fill="#F3F5F6" x="22" y="1" width="20" height="4" rx="2"></rect>
                    <rect id="Rectangle-5-Copy-7" fill="#F3F5F6" x="22" y="8" width="14" height="4" rx="2"></rect>
                    <rect id="Rectangle-5-Copy-31" fill="#F3F5F6" x="22" y="18" width="140" height="4" rx="2"></rect>
                    <rect id="Rectangle-5-Copy-32" fill="#F3F5F6" x="22" y="26" width="80" height="4" rx="2"></rect>
                </g>
                <rect id="Rectangle-5-Copy-36" fill="#F3F5F6" x="113" y="64" width="20" height="4" rx="2"></rect>
                <rect id="Rectangle-5-Copy-37" fill="#F3F5F6" x="153" y="64" width="30" height="4" rx="2"></rect>
                <circle id="Oval-Copy-2" stroke="#D9D7DB" stroke-width="1.5" fill="#FFFFFF" cx="99" cy="102" r="2"></circle>
                <circle id="Oval-Copy" stroke="#D9D7DB" stroke-width="1.5" fill="#FFFFFF" cx="99" cy="92" r="2"></circle>
                <circle id="Oval" stroke="#D9D7DB" stroke-width="1.5" fill="#FFFFFF" cx="99" cy="82" r="2"></circle>
                <use id="Rectangle-2" stroke="#D9D7DB" mask="url(#mask-16)" stroke-width="3" fill="#FFFFFF" xlink:href="#path-15"></use>
                <g id="reply" transform="translate(113.000000, 217.000000)">
                    <rect id="Rectangle-6-Copy" stroke="#F3F5F6" stroke-width="1.5" x="0" y="0" width="180" height="25" rx="2"></rect>
                    <rect id="Rectangle-5-Copy-6" fill="#F3F5F6" x="5" y="6" width="10" height="4" rx="2"></rect>
                    <rect id="Rectangle-5-Copy-22" fill="#F3F5F6" x="23" y="6" width="30" height="4" rx="2"></rect>
                    <rect id="Rectangle-5-Copy-23" fill="#F3F5F6" x="120" y="6" width="10" height="4" rx="2"></rect>
                    <rect id="Rectangle-5-Copy-24" fill="#F3F5F6" x="135" y="6" width="10" height="4" rx="2"></rect>
                    <rect id="Rectangle-5-Copy-25" fill="#F3F5F6" x="150" y="6" width="10" height="4" rx="2"></rect>
                    <rect id="Rectangle-5-Copy-26" fill="#F3F5F6" x="165" y="6" width="10" height="4" rx="2"></rect>
                    <rect id="Rectangle-5-Copy-27" fill="#F3F5F6" x="145" y="16" width="30" height="4" rx="2"></rect>
                </g>
            </g>
        </g>
    </g>
</svg>