<?xml version="1.0" encoding="UTF-8" standalone="no"?>
<svg xmlns="http://www.w3.org/2000/svg" height="32px" width="32px" version="1.1" xmlns:xlink="http://www.w3.org/1999/xlink" viewBox="0 0 32 32"><!-- Generator: Sketch 41.2 (35397) - http://www.bohemiancoding.com/sketch -->
 <title>3</title>
 <desc>Created with Sketch.</desc>
 <defs>
  <path id="path-1" d="m0 16c0-8.8366 7.1615-16 16-16 8.837 0 16 7.1615 16 16 0 8.837-7.162 16-16 16-8.8366 0-16-7.162-16-16z"/>
  <mask id="mask-2" maskContentUnits="userSpaceOnUse" height="32" width="32" y="0" x="0" maskUnits="objectBoundingBox" fill="white">
   <use xlink:href="#path-1"/>
  </mask>
 </defs>
 <g id="Symbols" fill-rule="evenodd" fill="none">
  <g id="Step-3" transform="translate(-9 -9)">
   <g id="3">
    <g transform="translate(9 9)">
     <use id="Rectangle-13" xlink:href="#path-1" stroke="#EBEEF0" stroke-width="2" mask="url(#mask-2)"/>
     <path fill="#838D94" d="m12.736 16.194c0 0.35 0.266 0.658 0.882 0.658 0.476 0 1.092-0.224 2.478-0.224 0.798 0 2.45 0.252 2.45 1.33 0 1.582-2.632 2.016-3.92 2.016-1.316 0-1.4-0.448-2.226-0.448-0.364 0-0.826 0.364-0.826 1.134 0 0.84 0.924 1.26 2.03 1.26 3.346 0 6.692-1.68 6.692-4.606 0-1.12-0.938-1.904-2.646-1.946 1.442-0.924 2.212-2.422 2.212-3.528 0-1.428-1.904-1.61-3.402-1.61-0.868 0-4.704 0.126-4.704 1.708 0 0.364 0.35 0.784 1.064 0.784 1.148 0 1.722-0.686 3.64-0.686 0.742 0 1.218 0.168 1.218 0.728 0 0.98-1.68 2.45-3.906 2.478-0.672 0.014-1.036 0.532-1.036 0.952z" fill-opacity=".7"/>
    </g>
   </g>
  </g>
 </g>
</svg>
