<?xml version="1.0" encoding="UTF-8" standalone="no"?>
<svg xmlns="http://www.w3.org/2000/svg" height="32px" width="32px" version="1.1" xmlns:xlink="http://www.w3.org/1999/xlink" viewBox="0 0 32 32"><!-- Generator: Sketch 41.2 (35397) - http://www.bohemiancoding.com/sketch -->
 <title>4</title>
 <desc>Created with Sketch.</desc>
 <defs>
  <path id="path-1" d="m0 16c0-8.8366 7.1615-16 16-16 8.837 0 16 7.1615 16 16 0 8.837-7.162 16-16 16-8.8366 0-16-7.162-16-16z"/>
  <mask id="mask-2" maskContentUnits="userSpaceOnUse" height="32" width="32" y="0" x="0" maskUnits="objectBoundingBox" fill="white">
   <use xlink:href="#path-1"/>
  </mask>
 </defs>
 <g id="Symbols" fill-rule="evenodd" fill="none">
  <g id="Step-4" transform="translate(-9 -9)">
   <g id="4">
    <g transform="translate(9 9)">
     <use id="Rectangle-13" xlink:href="#path-1" stroke="#EBEEF0" stroke-width="2" mask="url(#mask-2)"/>
     <path fill="#838D94" d="m18.03 20.436c0-0.126-0.014-0.658-0.028-1.344 0.91-0.084 1.778-0.21 2.324-0.364 0.238-0.07 0.434-0.518 0.434-0.84 0-0.448-0.266-0.798-0.672-0.798-0.56 0-1.288 0.182-2.1 0.238v-1.008c0-0.826 0.014-1.148 0.056-1.988-0.014-0.798-0.504-1.064-0.896-1.064-0.658 0-0.84 0.49-0.84 1.12 0 0.098 0.028-0.182 0.042 2.982-0.952 0.028-1.918 0.098-2.702 0.098 0.574-2.786 0.98-4.41 0.994-5.796 0-0.98-0.518-1.288-0.938-1.288-0.672 0-0.868 0.588-0.868 1.344 0 1.736-0.924 5.754-0.924 6.3 0 0.49 0.364 0.952 0.994 1.036 0.742 0.098 1.638 0.154 2.59 0.154 0.252 0 0.546 0 0.868-0.014v1.806c0 0.406 0.35 0.854 0.952 0.854 0.714 0 0.714-0.798 0.714-1.428z" fill-opacity=".7"/>
    </g>
   </g>
  </g>
 </g>
</svg>
