<?xml version="1.0" encoding="UTF-8" standalone="no"?>
<svg xmlns="http://www.w3.org/2000/svg" height="16px" width="16px" version="1.1" xmlns:xlink="http://www.w3.org/1999/xlink" viewBox="0 0 16 16">
 <g fill-rule="evenodd" fill="none">
  <g fill="#BEC4C7" transform="translate(-626 -376)">
   <path id="Fill-775" d="m633.44 380.32l-0.69-0.69c-0.38-0.38-1.01-0.37-1.4 0.02l-0.7 0.7c-0.39 0.39-0.42 1-0.06 1.35l0.64 0.65-4.88 4.88c-0.19 0.2-0.35 0.58-0.35 0.86v3.41c0 0.27 0.23 0.5 0.5 0.5h3.41c0.28 0 0.66-0.16 0.86-0.36l4.88-4.87s0.29 0.29 0.65 0.64c0.35 0.36 0.96 0.33 1.35-0.06l0.7-0.7c0.39-0.39 0.4-1.02 0.02-1.4l-0.69-0.69 3.44-3.44c1.17-1.17 1.17-3.07 0-4.24s-3.07-1.17-4.24 0l-3.44 3.44zm-3.85 9.68h-1.59v-1.59l4.65-4.64 1.58 1.58-4.64 4.65z"/>
  </g>
 </g>
</svg>
