<?xml version="1.0" encoding="UTF-8" standalone="no"?>
<svg xmlns="http://www.w3.org/2000/svg" height="18px" width="19px" version="1.1" xmlns:xlink="http://www.w3.org/1999/xlink" viewBox="0 0 19 18">
 <g fill-rule="evenodd" fill="none">
  <g fill="#fff" transform="translate(-384 -504)">
   <g transform="translate(236 496)">
    <g>
     <path transform="translate(153.73 17) rotate(45) translate(-153.73 -17)" d="m155.1 25.526l-2.54-5.088c-0.14-0.28-0.12-0.614 0.06-0.872l4.11-5.566-5.57 4.105c-0.26 0.179-0.59 0.201-0.87 0.062l-5.09-2.543c-0.3-0.154-0.49-0.473-0.47-0.814 0.02-0.342 0.24-0.64 0.56-0.757l16.28-6.0005c0.32-0.114 0.67-0.0394 0.91 0.198 0.23 0.2357 0.31 0.5889 0.19 0.9026l-6 16.286c-0.11 0.321-0.41 0.541-0.75 0.559-0.37 0.002-0.67-0.181-0.82-0.472z"/>
    </g>
   </g>
  </g>
 </g>
</svg>
